<svg id="Group_1" data-name="Group 1" xmlns="http://www.w3.org/2000/svg" width="200" height="56.2" viewBox="0 0 200 56.2">
  <g id="Group_3" data-name="Group 3">
    <path id="Path_1" data-name="Path 1" d="M90.7,20.7l.2-6.4h7.8l-.2,6.4Z" fill="#fff"/>
    <path id="Path_2" data-name="Path 2" d="M98.3,22.4a166.209,166.209,0,0,0-1,19.7h-8c.6-6.2,1-12.7,1-19.7Z" fill="#fff"/>
    <g id="Group_1-2" data-name="Group 1">
      <path id="Path_3" data-name="Path 3" d="M137.4,26.4H146c1.4,0,2.6,0,3.5-.1v2.3H137.3l-.3,5.2c0,1-.1,3.9-.2,8.2h-3c.7-6.2,1.2-15.5,1.5-27.6H151l-.1,2.3h-1.2c-1.7-.1-2.6-.1-2.9-.1H138l-.1,2c0,.6-.1,1.4-.2,2.4Z" fill="#fff"/>
      <path id="Path_4" data-name="Path 4" d="M174,17.4a20.68,20.68,0,0,0-7-1.4,12.59,12.59,0,0,0-9.3,3.5c-2.3,2.3-3.4,5.5-3.4,9.5a11,11,0,0,0,3,8.2c2,2,4.8,3,8.5,3a23.05,23.05,0,0,0,7.4-1.4l-.2,2.8a32.11,32.11,0,0,1-7.1.9q-6.75,0-10.5-3.6c-2.5-2.4-3.8-5.7-3.8-9.9a15.12,15.12,0,0,1,4.1-11,14.88,14.88,0,0,1,10.9-4.1,27.75,27.75,0,0,1,7.3,1.1Z" fill="#fff"/>
      <path id="Path_5" data-name="Path 5" d="M181.1,14.4a42.511,42.511,0,0,0-.5,5.4l-.5,11.8c0,5.6,2.6,8.3,7.9,8.3a9.28,9.28,0,0,0,6.6-2.3,6.33,6.33,0,0,0,1.4-2.4,23.79,23.79,0,0,0,.6-4.9l.4-9.1c0-1.4.1-3,.1-4.8V14.5H200l-.2,3.3c0,.6-.1,1.4-.2,2.4l-.4,9.5V31c-.1,3.4-.6,5.8-1.5,7.4a7.74,7.74,0,0,1-3.7,3.1,15.5,15.5,0,0,1-6.1,1q-10.2,0-10.2-9.6c0,.2.1-2,.2-6.6.2-4.8.3-8.7.3-11.8h2.9Z" fill="#fff"/>
    </g>
    <path id="Path_6" data-name="Path 6" d="M85.4,41a38.86,38.86,0,0,1-10,1.4c-5.3,0-9.3-1.2-12.2-3.5S59,33.3,59,29c0-4.8,1.6-8.6,4.7-11.3s7.5-4.1,13.2-4.1a65.311,65.311,0,0,1,8.6.8v6.3A32.28,32.28,0,0,0,78,19.6c-3.3,0-5.8.8-7.6,2.5a8.82,8.82,0,0,0-2.7,6.8,6.29,6.29,0,0,0,2,5.1,7.74,7.74,0,0,0,5.5,1.8,9.2,9.2,0,0,0,2.9-.4c.1-1.2.2-2.3.2-3.3v-.7H74.5V25.5H86.7c-.5,5.1-1.4,9.2-1.4,12.5a25.058,25.058,0,0,0,.1,3Z" fill="#fff"/>
    <path id="Path_7" data-name="Path 7" d="M101.1,34.6a25.26,25.26,0,0,0,8.3,1.5c1.9,0,2.8-.6,2.8-1.8,0-.7-1-1.9-3-3.4-.1-.1-.4-.3-.8-.6-4.4-3.5-6.6-6.4-6.6-8.9a6.55,6.55,0,0,1,2.9-5.5c1.9-1.4,4.6-2,8.1-2a53.16,53.16,0,0,1,8.6,1.3V21a34.34,34.34,0,0,0-6.9-1.1c-2.3,0-3.5.6-3.5,1.9q0,1.05,3.3,3.6l.9.7a26.939,26.939,0,0,1,4.8,4.5,7.09,7.09,0,0,1,1.3,4c0,5.2-3.9,7.7-11.5,7.7a55.52,55.52,0,0,1-8.7-1.3V34.6Z" fill="#fff"/>
    <g id="Group_2" data-name="Group 2">
      <path id="Path_8" data-name="Path 8" d="M124.7,36.8h5.2l-.3,5.2h-5.1Z" fill="#fff"/>
    </g>
  </g>
  <path id="Path_9" data-name="Path 9" d="M65.4,48.7a3.07,3.07,0,0,0-1.4-.5,1.35,1.35,0,0,0-1.2.5,1.7,1.7,0,0,0-.5,1.2,1.35,1.35,0,0,0,.5,1.2,1.6,1.6,0,0,0,1.2.4,1.5,1.5,0,0,0,.9-.2v-.9H63.7v-.7h2v2.1a4,4,0,0,1-1.8.4,2.27,2.27,0,0,1-1.8-.7,2.11,2.11,0,0,1-.7-1.8,2.42,2.42,0,0,1,.7-1.8,2.91,2.91,0,0,1,1.8-.7,2.81,2.81,0,0,1,1.5.4Z" fill="#fff"/>
  <path id="Path_10" data-name="Path 10" d="M66.6,52.1V47.6h.8v4.5Z" fill="#fff"/>
  <path id="Path_11" data-name="Path 11" d="M68.4,51.1a2.51,2.51,0,0,0,1.3.4.74.74,0,0,0,.6-.2.7.7,0,0,0,.2-.4.63.63,0,0,0-.1-.4c-.1-.1-.3-.2-.5-.4l-.3-.2a2.76,2.76,0,0,1-.8-.6,1.42,1.42,0,0,1-.2-.7,1.24,1.24,0,0,1,.4-.9,1.5,1.5,0,0,1,1-.3,2.63,2.63,0,0,1,1.2.3v.7a2.66,2.66,0,0,0-1.1-.3.74.74,0,0,0-.5.1.52.52,0,0,0-.2.4.37.37,0,0,0,.1.3,1.12,1.12,0,0,0,.5.3l.3.2c.4.2.7.4.8.7a2,2,0,0,1,.2.8,1.29,1.29,0,0,1-.4,1,2.16,2.16,0,0,1-1.2.4,3.09,3.09,0,0,1-1.3-.3Z" fill="#fff"/>
  <path id="Path_12" data-name="Path 12" d="M76.7,48.3H77c.8,0,1.2.2,1.2.7s-.4.7-1.1.7h-.4Zm0,3.8V50.2h.4l1.4,1.9h1l-1.5-2a1.2,1.2,0,0,0,1-1.3,1.39,1.39,0,0,0-.5-1,2.78,2.78,0,0,0-1.5-.3H75.9V52C75.9,52.1,76.7,52.1,76.7,52.1Z" fill="#fff"/>
  <path id="Path_13" data-name="Path 13" d="M80.1,52.1V47.6h2.8v.7h-2v1.1h1.7v.7H80.9v1.3h2v.7Z" fill="#fff"/>
  <path id="Path_14" data-name="Path 14" d="M83.5,51.1a2.51,2.51,0,0,0,1.3.4.74.74,0,0,0,.6-.2.7.7,0,0,0,.2-.4.63.63,0,0,0-.1-.4c-.1-.1-.3-.2-.5-.4l-.3-.2a2.76,2.76,0,0,1-.8-.6,1.42,1.42,0,0,1-.2-.7,1.24,1.24,0,0,1,.4-.9,1.5,1.5,0,0,1,1-.3,2.63,2.63,0,0,1,1.2.3v.7a2.66,2.66,0,0,0-1.1-.3.74.74,0,0,0-.5.1.52.52,0,0,0-.2.4.37.37,0,0,0,.1.3,1.12,1.12,0,0,0,.5.3l.3.2c.4.2.7.4.8.7a2,2,0,0,1,.2.8,1.29,1.29,0,0,1-.4,1,2.16,2.16,0,0,1-1.2.4,3.09,3.09,0,0,1-1.3-.3Z" fill="#fff"/>
  <path id="Path_15" data-name="Path 15" d="M87.3,52.1V47.6h2.8v.7h-2v1.1h1.7v.7H88.1v1.3h2v.7Z" fill="#fff"/>
  <path id="Path_16" data-name="Path 16" d="M92.6,49l.8,1.7H91.8Zm-1.1,2.3h2.1l.4.8h.9l-2.2-4.7h0l-2.3,4.7h.8Z" fill="#fff"/>
  <path id="Path_17" data-name="Path 17" d="M96.2,48.3h.3c.8,0,1.2.2,1.2.7s-.4.7-1.1.7h-.4Zm0,3.8V50.2h.4L98,52.1h1l-1.5-2a1.2,1.2,0,0,0,1-1.3,1.39,1.39,0,0,0-.5-1,2.78,2.78,0,0,0-1.5-.3H95.4V52C95.3,52.1,96.2,52.1,96.2,52.1Z" fill="#fff"/>
  <path id="Path_18" data-name="Path 18" d="M103,51.8a2.32,2.32,0,0,1-1.4.4,2.27,2.27,0,0,1-1.5-.5,2.31,2.31,0,0,1-.9-1.9,2,2,0,0,1,.7-1.7,2.4,2.4,0,0,1,1.7-.7,2.32,2.32,0,0,1,1.4.4l-.1.9a1.75,1.75,0,0,0-1.3-.6,1.35,1.35,0,0,0-1.2.5,2,2,0,0,0,0,2.4,1.49,1.49,0,0,0,1.1.4,2.09,2.09,0,0,0,1.5-.7Z" fill="#fff"/>
  <path id="Path_19" data-name="Path 19" d="M103.8,52.1V47.6h.8v1.8h2.2V47.6h.8v4.5h-.8v-2h-2.3v2Z" fill="#fff"/>
  <path id="Path_20" data-name="Path 20" d="M116,51.8a2.32,2.32,0,0,1-1.4.4,2.27,2.27,0,0,1-1.5-.5,2.31,2.31,0,0,1-.9-1.9,2,2,0,0,1,.7-1.7,2.4,2.4,0,0,1,1.7-.7,2.32,2.32,0,0,1,1.4.4l-.1.9a1.75,1.75,0,0,0-1.3-.6,1.35,1.35,0,0,0-1.2.5,2,2,0,0,0,0,2.4,1.49,1.49,0,0,0,1.1.4,2.09,2.09,0,0,0,1.5-.7Z" fill="#fff"/>
  <path id="Path_21" data-name="Path 21" d="M116.8,52.1V47.6h2.8v.7h-2v1.1h1.7v.7h-1.7v1.3h2v.7Z" fill="#fff"/>
  <path id="Path_22" data-name="Path 22" d="M120.5,52.1V47.5h.1l3.1,3V47.6h.8v4.7h-.1l-3.1-3v2.9Z" fill="#fff"/>
  <path id="Path_23" data-name="Path 23" d="M127.5,48.3v3.8h-.8V48.3H125v-.7h4.1v.7Z" fill="#fff"/>
  <path id="Path_24" data-name="Path 24" d="M129.6,52.1V47.6h2.8v.7h-2v1.1h1.7v.7h-1.7v1.3h2v.7Z" fill="#fff"/>
  <path id="Path_25" data-name="Path 25" d="M134.1,48.3h.3c.8,0,1.2.2,1.2.7s-.4.7-1.1.7H134Zm0,3.8V50.2h.4l1.4,1.9h1l-1.5-2a1.2,1.2,0,0,0,1-1.3,1.39,1.39,0,0,0-.5-1,2.78,2.78,0,0,0-1.5-.3h-1.1V52C133.3,52.1,134.1,52.1,134.1,52.1Z" fill="#fff"/>
  <path id="Path_26" data-name="Path 26" d="M137,53.2l.6-1.7h.8l-.7,1.7Z" fill="#fff"/>
  <path id="Path_27" data-name="Path 27" d="M143,52.1V47.6h2.8v.7h-2v1.1h1.8v.7h-1.8v2Z" fill="#fff"/>
  <path id="Path_28" data-name="Path 28" d="M150.1,51.8a2.32,2.32,0,0,1-1.4.4,2.27,2.27,0,0,1-1.5-.5,2.31,2.31,0,0,1-.9-1.9,2,2,0,0,1,.7-1.7,2.62,2.62,0,0,1,1.7-.7,2.32,2.32,0,0,1,1.4.4l-.1.9a1.75,1.75,0,0,0-1.3-.6,1.35,1.35,0,0,0-1.2.5,2,2,0,0,0,0,2.4,1.49,1.49,0,0,0,1.1.4,2.09,2.09,0,0,0,1.5-.7Z" fill="#fff"/>
  <path id="Path_29" data-name="Path 29" d="M151.7,47.6v2.6c0,.9.4,1.3,1.2,1.3s1.1-.4,1.1-1.3V47.6h.7v2.6a1.75,1.75,0,0,1-1.48,2,2,2,0,0,1-.42,0,2.46,2.46,0,0,1-1.5-.5,2,2,0,0,1-.5-1.5V47.6Z" fill="#fff"/>
  <path id="Path_30" data-name="Path 30" d="M3.9,40.5c-.1.8-.8,1.4-.7,2.1l-.4.1c-.7.5-1.8.3-2,1.3-.4.3-.7.2-.8,0V56.2H17.6V38.6H4.2C4,39.2,4.3,40.1,3.9,40.5Z" fill="#fff"/>
  <rect id="Rectangle_1" data-name="Rectangle 1" width="17.6" height="17.6" transform="translate(19.2 38.6)" fill="#fff"/>
  <rect id="Rectangle_2" data-name="Rectangle 2" width="17.6" height="17.6" transform="translate(38.5 38.6)" fill="#fff"/>
  <path id="Path_31" data-name="Path 31" d="M2,25.1l.9-.5c.5,0,1,.7,1.5.1.3.1.6-.2.7-.5a1.48,1.48,0,0,0-.4-1.4,3.62,3.62,0,0,1-1.5-.1c-.1-.4-.4-1-.9-1.1a.68.68,0,0,0-.5.4c.2.5-.5.2-.6.7-.4-.4.1-1.2-.4-1.7-.2-.1-.5-.2-.5-.6-.2-.1-.2-.2-.3-.3v4.3H.2a2.08,2.08,0,0,0,1.8.7Z" fill="#fff"/>
  <path id="Path_32" data-name="Path 32" d="M16.7,30.6c-.1.2-.4.1-.5,0-.1-.4,0-.8-.5-1.1s0-.9.1-1.4c-.3-.3-.7-.4-.7-.9a.56.56,0,0,0-.3-.7c-.5-.1-1.1,0-1.5-.4a2.13,2.13,0,0,1-1.9.2c-.3-.3-.5-.7-1-.6-.3-.1-.3-1.1-.9-.6-.2-.4-.7-.1-.9-.5-.1,0-.2.1-.3.2a6.68,6.68,0,0,0,1.4,1.9c.4.1.9.7,1.4.2.2.6-.6,1-.7,1.7a7.65,7.65,0,0,0-.9.9c-.5,0-.6-.6-1-.6a.68.68,0,0,1-.86-.41.65.65,0,0,1,0-.19c-.7-.3-1-1-1.5-1.6,0-.4-.5-.7-.8-1-.3.3-.7-.1-1,.3-.1.6.7.8.4,1.5,1.4.8,1.2,3.2,3.1,3l.4-.3.1.3c-.3.6-.1,1.4-.8,1.7-.7.6.2,1.8-.9,2A2.35,2.35,0,0,0,6,36.7V37H17.8V29.3a4.43,4.43,0,0,0-1.1,1.3Z" fill="#fff"/>
  <path id="Path_33" data-name="Path 33" d="M31.9,20c-.4.6-.1,1.5-.9,1.9-.1.2.1.4.2.6.1.4-.3.7-.6.9-.2-.4,0-.9-.2-1.3s-.2-.9-.7-.8-.7.7-.9,1.1c0,.4-.3,1.1.2,1.4a4.05,4.05,0,0,1,0,1.1c.4.3,0,.7-.1,1.1-.4.3-1.1.6-1.4,1.2l.2.4c-.7,0-1.2.9-2,.4-.3.1-.9.1-.9.7.1.2-.2.6.1.8,0,.1-.1.3,0,.4s.6.1.5.5a.35.35,0,0,1-.6.2,1.26,1.26,0,0,0-1.2-.2,1.27,1.27,0,0,0-.4.9,10.44,10.44,0,0,0,1,1.1v.1a2.55,2.55,0,0,1-1.3-.6c-.6.1,0-.6-.4-.7s-.6.2-.7-.1a.91.91,0,0,0-.4-.8c.3-.5-.6-.8-.3-1.5,0-.7-1.1-.1-.8-.8-.2-.3-.7-.3-1.1-.1v9.3H36.8V19.4H32.6a4.44,4.44,0,0,1-.7.6Z" fill="#fff"/>
  <path id="Path_34" data-name="Path 34" d="M55.4,27.1c-.3-.5-.1-1.2-.4-1.7,0-.5-.3-.8-.5-1.3-.1-.2-.3-.1-.5-.1-.5.2-.2.7-.2,1a3.7,3.7,0,0,1,.1,1.1,1.17,1.17,0,0,1,0,1,17.35,17.35,0,0,1-.9-2.4l-.8-1.1c-.2-1.4.3-3-.1-4.3H38.5V36.9H56.1v-9C56,27.6,55.9,27.2,55.4,27.1Z" fill="#fff"/>
  <path id="Path_35" data-name="Path 35" d="M2.5,5.3c.4.8,1.2.8,1.8,1.5l1.4.1.1.6c-.4.6-1,1.1-1.4,1.8.4,1.4,1.6.5,2.4.4.7-.4.5-1.1.9-1.5a2.56,2.56,0,0,0,1.9-.4c0-.3.4-.3.5-.4.4.1.5-.1.7-.4A2.16,2.16,0,0,1,12,6.8c-.1.4.2.5.5.7A1.83,1.83,0,0,0,13.6,7c.3-.4-.3-.6-.5-.9-.3-.1-.2-.5-.6-.7.1-.3.5-.1.9-.2a.887.887,0,0,0,.6-1c-.1-.1,0-.3.1-.4a1.1,1.1,0,0,1,1.1-.2,2.74,2.74,0,0,1-.5.9,1.55,1.55,0,0,0,.1.6,2.44,2.44,0,0,0-.2,1.7,1.85,1.85,0,0,1,.5,1.5c.4,1,1-.3,1.5.3a.88.88,0,0,0,.5,1.1.32.32,0,0,0,.3.3h.2V7.6a1.76,1.76,0,0,1-.5-.4c.1-.2.3-.6.1-.9s-.7-.1-.9-.5c0-.3.1-.7.5-.6.2,0,.4.2.6.4h.1V.3H0V6.2C.9,6,1.5,5,2.5,5.3Z" fill="#fff"/>
  <path id="Path_36" data-name="Path 36" d="M.9,13.9c.2-.4.7-.1.9-.6.3,0,.5-.4.6-.6a1.58,1.58,0,0,0-.7-1.5,2.78,2.78,0,0,0,.5-1.6c-.2-.3-.7-.2-1-.1C.4,9.8.3,10.6,0,11.2v3.6C.3,14.5.9,14.5.9,13.9Z" fill="#fff"/>
  <path id="Path_37" data-name="Path 37" d="M36.2,13.1c-.9.7-2.3,1.2-2.3,2.5.1.2.4.6.8.5-.2.4-.8.7-.7,1.3v.3h2.8V12.9a.45.45,0,0,1-.6.2Z" fill="#fff"/>
  <path id="Path_38" data-name="Path 38" d="M27.6,2.9l.2.4c.9.1,1.5.7,2.5.3a1.43,1.43,0,0,0,.8.9c.2-.1.7.1.9-.2.9,1,2.1-.1,3.1-.3.7.2,1,1.3,1.8,1.3V0H19.2V2.8l1-.8C23.3,1,24.8,1.6,27.6,2.9Z" fill="#fff"/>
  <path id="Path_39" data-name="Path 39" d="M51.9,17.1c-.5-.7-.2-1.6-.9-2.3-.2-.3-.3-.9-.8-.7a1.27,1.27,0,0,1-.8-.8.83.83,0,0,0-.6-.3.84.84,0,0,0-.2-.8,1.93,1.93,0,0,0-1.3,0c-.5.3-.3.9-.9,1-.3.2,0,.8-.6.8-.3.1-.6-.2-.9-.2,0-.2-.3-.4-.3-.7a.94.94,0,0,0,.4-1c0-.5-.8-.4-.8-.9s.6-.5.6-1c0-.3-.3-.4-.5-.6h-.5c-.1-.2-.6-.6-.2-.8.2-.1.3.2.6.2a.91.91,0,0,0,1-.3c.4-.7-1-2.1.6-2.2l.2-.7a6.27,6.27,0,0,1,2,1.3c.6.1,1.5-.1,1.7.7.4.2,1.1,0,1.1.6.2.2.4.7.8.5.6,0,.4-.8,1.1-.9.4,0,.8-.2,1.1.1.1.3.4.2.6.4s.5.9,1,.9c.2,0,.4-.1.6,0,.1.3,0,.7.2.9V.1H38.5V5.6a8.87,8.87,0,0,1,1.7.2c.8,1.1.3,2.5.9,3.7,0,.6-.5,1.3,0,1.9.2.4.6.8.5,1.2l.2.2c-.5,1.2-2.4,1.7-2.1,3.2-.4.2-.3,1.1-1,.7-.2-.7.7-1.3.2-2s.4-1.3.7-1.9c-.1-.5-.7-.6-1.1-.6v5.4H52.4a2.37,2.37,0,0,0-.5-.5Z" fill="#fff"/>
</svg>
