<?xml version="1.0" encoding="utf-8"?>
<!-- Generator: Adobe Illustrator 26.2.1, SVG Export Plug-In . SVG Version: 6.00 Build 0)  -->
<svg version="1.1" id="圖層_1" xmlns="http://www.w3.org/2000/svg" xmlns:xlink="http://www.w3.org/1999/xlink" x="0px" y="0px"
	 viewBox="0 0 72.7 72.7" style="enable-background:new 0 0 72.7 72.7;" xml:space="preserve">
<style type="text/css">
	.st0{fill-rule:evenodd;clip-rule:evenodd;fill:#FFFFFF;}
	.st1{fill-rule:evenodd;clip-rule:evenodd;fill:#00A63C;}
	.st2{fill-rule:evenodd;clip-rule:evenodd;fill:#009EE3;}
</style>
<g>
	<path class="st0" d="M36.3,0c20.1,0,36.3,16.3,36.3,36.3c0,20.1-16.3,36.3-36.3,36.3C16.3,72.7,0,56.4,0,36.3C0,16.3,16.3,0,36.3,0
		L36.3,0L36.3,0z"/>
	<path class="st1" d="M52.3,67c-4.8,2.5-10.2,3.9-16,3.9c-9.8,0-18.6-4-24.8-10.5c2.3-0.4,4.7-0.7,7.4-0.7c14.7,0,17.2,7.4,32.9,7.3
		C51.9,67,52.1,67,52.3,67L52.3,67L52.3,67z"/>
	<path class="st1" d="M65.2,55.3c-1.9,2.9-4.3,5.5-7,7.7c-2,0.3-4.2,0.5-6.5,0.6c-15.7,0.1-18.1-7.3-32.9-7.3
		c-3.7,0-6.9,0.5-9.8,1.2c-1.2-1.6-2.3-3.3-3.3-5c3.6-1.2,8-2.2,13.1-2.2c14.7,0,17.2,7.4,32.9,7.3C56.9,57.5,61.5,56.6,65.2,55.3
		L65.2,55.3L65.2,55.3z"/>
	<path class="st1" d="M70.2,43.3c-0.6,2.7-1.4,5.3-2.6,7.7c-4.1,1.7-9.5,3.2-15.9,3.2c-15.7,0.1-18.1-7.3-32.9-7.3
		c-5.7,0-10.6,1.2-14.5,2.7c-0.8-1.8-1.4-3.8-1.8-5.8c4.1-1.8,9.6-3.4,16.3-3.4c14.7,0,17.2,7.4,32.9,7.3
		C59.6,47.6,65.8,45.5,70.2,43.3L70.2,43.3L70.2,43.3z"/>
	<path class="st2" d="M36.3,1.8c19.1,0,34.6,15.5,34.6,34.6c0,1.1-0.1,2.2-0.2,3.3c-4.3,2.2-10.8,4.6-19,4.6
		C36.1,44.4,33.6,37,18.8,37c-7,0-12.6,1.8-16.8,3.7c-0.2-1.4-0.3-2.9-0.3-4.3C1.8,17.2,17.2,1.8,36.3,1.8L36.3,1.8L36.3,1.8z"/>
	<path class="st0" d="M44,20.9c0.9,1.4,1.3,3,1.3,4.7c0,5-4,9-9,9c-5,0-9-4-9-9c0-1.7,0.5-3.3,1.3-4.7l7.7-11L44,20.9L44,20.9z"/>
	<path class="st2" d="M37.4,29.5c2.1-0.4,3.5-2.4,3.4-4.5c0-0.6,0.5-1,1.1-1.1c0.8-0.1,1.4,0.6,1.4,1.4c-0.1,3.1-2.1,5.8-5.1,6.5
		c-0.6,0.2-1.1,0-1.4-0.5C36.3,30.7,36.6,29.7,37.4,29.5L37.4,29.5L37.4,29.5z"/>
</g>
</svg>
