<svg xmlns="http://www.w3.org/2000/svg" width="30.847" height="31.905" viewBox="0 0 30.847 31.905">
  <g id="goTop" transform="translate(0 0.01)">
    <path id="Path_1" data-name="Path 1" d="M1198.24,4642.73h-3.48v10.49h-1.88v-10.49h-3.47v-1.61h8.83Z" transform="translate(-1189.41 -4621.52)" fill="#fff"/>
    <path id="Path_2" data-name="Path 2" d="M1198.49,4647.33a6.649,6.649,0,0,1,1.61-4.64,5.549,5.549,0,0,1,4.33-1.771,5.239,5.239,0,0,1,4.1,1.72,6.322,6.322,0,0,1,1.55,4.4,6.66,6.66,0,0,1-1.58,4.619,6,6,0,0,1-8.42.061A6.17,6.17,0,0,1,1198.49,4647.33Zm2-.14a5.182,5.182,0,0,0,1,3.3,3.36,3.36,0,0,0,2.77,1.29,3.459,3.459,0,0,0,2.84-1.229,5.062,5.062,0,0,0,1-3.331,5.4,5.4,0,0,0-1-3.39,3.359,3.359,0,0,0-2.79-1.25,3.488,3.488,0,0,0-2.83,1.3,5.108,5.108,0,0,0-1.02,3.311Z" transform="translate(-1189.41 -4621.52)" fill="#fff"/>
    <path id="Path_3" data-name="Path 3" d="M1214.2,4648.79v4.43h-1.87v-12.1H1216a4.687,4.687,0,0,1,3.15.95,3.462,3.462,0,0,1,1.1,2.76,3.65,3.65,0,0,1-1.31,2.92,4.518,4.518,0,0,1-3.23,1Zm0-6.1v4.54h1.35c1.8,0,2.71-.77,2.71-2.33s-.87-2.21-2.6-2.21Z" transform="translate(-1189.41 -4621.52)" fill="#fff"/>
    <path id="Path_4" data-name="Path 4" d="M1198,4631l-.82-.81a.88.88,0,0,1,0-1.25l7.16-7.17a.881.881,0,0,1,1.25,0l7.17,7.17a.88.88,0,0,1,0,1.25l-.82.81a.88.88,0,0,1-1.26,0l-4.24-4.44v10.59a.88.88,0,0,1-.88.89h-1.18a.879.879,0,0,1-.88-.89v-10.59l-4.24,4.44a.87.87,0,0,1-1.26,0Z" transform="translate(-1189.41 -4621.52)" fill="#fff"/>
  </g>
</svg>
