<svg xmlns="http://www.w3.org/2000/svg" width="200" height="56.2" viewBox="0 0 200 56.2">
  <g id="Group_6" data-name="Group 6" transform="translate(0 0.2)">
    <g id="Group_3" data-name="Group 3">
      <path id="Path_1" data-name="Path 1" d="M90.7,20.5l.2-6.4h7.8l-.2,6.4Z" fill="#005490"/>
      <path id="Path_2" data-name="Path 2" d="M98.3,22.2a165.792,165.792,0,0,0-1,19.7h-8c.6-6.2,1-12.7,1-19.7Z" fill="#aacd22"/>
      <g id="Group_1" data-name="Group 1">
        <path id="Path_3" data-name="Path 3" d="M137.4,26.2H146c1.4,0,2.6,0,3.5-.1v2.3H137.3l-.3,5.2c0,1-.1,3.9-.2,8.2h-3c.7-6.2,1.2-15.5,1.5-27.6H151l-.1,2.3h-1.2c-1.7-.1-2.6-.1-2.9-.1H138l-.1,2c0,.6-.1,1.4-.2,2.4Z" fill="#005490"/>
        <path id="Path_4" data-name="Path 4" d="M174,17.2a20.727,20.727,0,0,0-7-1.4,12.6,12.6,0,0,0-9.3,3.5c-2.3,2.3-3.4,5.5-3.4,9.5a11.028,11.028,0,0,0,3,8.2c2,2,4.8,3,8.5,3a22.927,22.927,0,0,0,7.4-1.4l-.2,2.8a32.057,32.057,0,0,1-7.1.9q-6.75,0-10.5-3.6c-2.5-2.4-3.8-5.7-3.8-9.9a15.105,15.105,0,0,1,4.1-11,14.865,14.865,0,0,1,10.9-4.1,27.525,27.525,0,0,1,7.3,1.1Z" fill="#005490"/>
        <path id="Path_5" data-name="Path 5" d="M181.1,14.2a41.462,41.462,0,0,0-.5,5.4l-.5,11.8c0,5.6,2.6,8.3,7.9,8.3a9.29,9.29,0,0,0,6.6-2.3A6.344,6.344,0,0,0,196,35a23.875,23.875,0,0,0,.6-4.9L197,21c0-1.4.1-3,.1-4.8V14.3H200l-.2,3.3c0,.6-.1,1.4-.2,2.4l-.4,9.5v1.3c-.1,3.4-.6,5.8-1.5,7.4a7.731,7.731,0,0,1-3.7,3.1,15.58,15.58,0,0,1-6.1,1q-10.2,0-10.2-9.6c0,.2.1-2,.2-6.6.2-4.8.3-8.7.3-11.8h2.9Z" fill="#005490"/>
      </g>
      <path id="Path_6" data-name="Path 6" d="M85.4,40.8a38.888,38.888,0,0,1-10,1.4c-5.3,0-9.3-1.2-12.2-3.5Q59,35.25,59,28.8c0-4.8,1.6-8.6,4.7-11.3s7.5-4.1,13.2-4.1a65.062,65.062,0,0,1,8.6.8v6.3A32.653,32.653,0,0,0,78,19.4c-3.3,0-5.8.8-7.6,2.5a8.814,8.814,0,0,0-2.7,6.8,6.291,6.291,0,0,0,2,5.1,7.754,7.754,0,0,0,5.5,1.8,9.246,9.246,0,0,0,2.9-.4c.1-1.2.2-2.3.2-3.3v-.7H74.5V25.3H86.7c-.5,5.1-1.4,9.2-1.4,12.5A25.384,25.384,0,0,0,85.4,40.8Z" fill="#005490"/>
      <path id="Path_7" data-name="Path 7" d="M101.1,34.4a25.208,25.208,0,0,0,8.3,1.5c1.9,0,2.8-.6,2.8-1.8,0-.7-1-1.9-3-3.4-.1-.1-.4-.3-.8-.6-4.4-3.5-6.6-6.4-6.6-8.9a6.528,6.528,0,0,1,2.9-5.5c1.9-1.4,4.6-2,8.1-2a53.018,53.018,0,0,1,8.6,1.3v5.8a33.766,33.766,0,0,0-6.9-1.1c-2.3,0-3.5.6-3.5,1.9q0,1.05,3.3,3.6l.9.7a27.124,27.124,0,0,1,4.8,4.5,7.068,7.068,0,0,1,1.3,4c0,5.2-3.9,7.7-11.5,7.7a55.72,55.72,0,0,1-8.7-1.3V34.4Z" fill="#005490"/>
      <g id="Group_2" data-name="Group 2">
        <path id="Path_8" data-name="Path 8" d="M124.7,36.6h5.2l-.3,5.2h-5.1Z" fill="#005490"/>
      </g>
    </g>
    <path id="Path_9" data-name="Path 9" d="M65.4,48.5A2.979,2.979,0,0,0,64,48a1.346,1.346,0,0,0-1.2.5,1.656,1.656,0,0,0-.5,1.2,1.346,1.346,0,0,0,.5,1.2,1.594,1.594,0,0,0,1.2.4,1.486,1.486,0,0,0,.9-.2v-.9H63.7v-.7h2v2.1a3.922,3.922,0,0,1-1.8.4,2.268,2.268,0,0,1-1.8-.7,2.139,2.139,0,0,1-.7-1.8,2.41,2.41,0,0,1,.7-1.8,2.875,2.875,0,0,1,1.8-.7,2.822,2.822,0,0,1,1.5.4Z" fill="#888"/>
    <path id="Path_10" data-name="Path 10" d="M66.6,51.9V47.4h.8v4.5Z" fill="#888"/>
    <path id="Path_11" data-name="Path 11" d="M68.4,50.9a2.421,2.421,0,0,0,1.3.4.735.735,0,0,0,.6-.2.758.758,0,0,0,.2-.4.6.6,0,0,0-.1-.4c-.1-.1-.3-.2-.5-.4l-.3-.2a2.761,2.761,0,0,1-.8-.6,1.445,1.445,0,0,1-.2-.7,1.222,1.222,0,0,1,.4-.9,1.493,1.493,0,0,1,1-.3,2.663,2.663,0,0,1,1.2.3v.7a2.607,2.607,0,0,0-1.1-.3.749.749,0,0,0-.5.1.52.52,0,0,0-.2.4.367.367,0,0,0,.1.3,1.069,1.069,0,0,0,.5.3l.3.2c.4.2.7.4.8.7a1.884,1.884,0,0,1,.2.8,1.284,1.284,0,0,1-.4,1,2.144,2.144,0,0,1-1.2.4,3.079,3.079,0,0,1-1.3-.3Z" fill="#888"/>
    <path id="Path_12" data-name="Path 12" d="M76.7,48.1H77c.8,0,1.2.2,1.2.7s-.4.7-1.1.7h-.4V48.1Zm0,3.8V50h.4l1.4,1.9h1l-1.5-2a1.2,1.2,0,0,0,1-1.3,1.389,1.389,0,0,0-.5-1,2.81,2.81,0,0,0-1.5-.3H75.9v4.5C75.9,51.9,76.7,51.9,76.7,51.9Z" fill="#888"/>
    <path id="Path_13" data-name="Path 13" d="M80.1,51.9V47.4h2.8v.7h-2v1.1h1.7v.7H80.9v1.3h2v.7Z" fill="#888"/>
    <path id="Path_14" data-name="Path 14" d="M83.5,50.9a2.421,2.421,0,0,0,1.3.4.735.735,0,0,0,.6-.2.758.758,0,0,0,.2-.4.6.6,0,0,0-.1-.4c-.1-.1-.3-.2-.5-.4l-.3-.2a2.761,2.761,0,0,1-.8-.6,1.445,1.445,0,0,1-.2-.7,1.222,1.222,0,0,1,.4-.9,1.493,1.493,0,0,1,1-.3,2.663,2.663,0,0,1,1.2.3v.7a2.607,2.607,0,0,0-1.1-.3.749.749,0,0,0-.5.1.52.52,0,0,0-.2.4.367.367,0,0,0,.1.3,1.069,1.069,0,0,0,.5.3l.3.2c.4.2.7.4.8.7a1.884,1.884,0,0,1,.2.8,1.284,1.284,0,0,1-.4,1,2.144,2.144,0,0,1-1.2.4,3.079,3.079,0,0,1-1.3-.3Z" fill="#888"/>
    <path id="Path_15" data-name="Path 15" d="M87.3,51.9V47.4h2.8v.7h-2v1.1h1.7v.7H88.1v1.3h2v.7Z" fill="#888"/>
    <path id="Path_16" data-name="Path 16" d="M92.6,48.8l.8,1.7H91.8Zm-1.1,2.3h2.1l.4.8h.9l-2.2-4.7h0l-2.3,4.7h.8Z" fill="#888"/>
    <path id="Path_17" data-name="Path 17" d="M96.2,48.1h.3c.8,0,1.2.2,1.2.7s-.4.7-1.1.7h-.4V48.1Zm0,3.8V50h.4L98,51.9h1l-1.5-2a1.2,1.2,0,0,0,1-1.3,1.389,1.389,0,0,0-.5-1,2.81,2.81,0,0,0-1.5-.3H95.4v4.5C95.3,51.9,96.2,51.9,96.2,51.9Z" fill="#888"/>
    <path id="Path_18" data-name="Path 18" d="M103,51.6a2.3,2.3,0,0,1-1.4.4,2.26,2.26,0,0,1-1.5-.5,2.323,2.323,0,0,1-.9-1.9,2.06,2.06,0,0,1,.7-1.7,2.413,2.413,0,0,1,1.7-.7,2.3,2.3,0,0,1,1.4.4l-.1.9a1.76,1.76,0,0,0-1.3-.6,1.346,1.346,0,0,0-1.2.5,2,2,0,0,0,0,2.4,1.5,1.5,0,0,0,1.1.4,2.084,2.084,0,0,0,1.5-.7Z" fill="#888"/>
    <path id="Path_19" data-name="Path 19" d="M103.8,51.9V47.4h.8v1.8h2.2V47.4h.8v4.5h-.8v-2h-2.3v2Z" fill="#888"/>
    <path id="Path_20" data-name="Path 20" d="M116,51.6a2.3,2.3,0,0,1-1.4.4,2.26,2.26,0,0,1-1.5-.5,2.323,2.323,0,0,1-.9-1.9,2.06,2.06,0,0,1,.7-1.7,2.413,2.413,0,0,1,1.7-.7,2.3,2.3,0,0,1,1.4.4l-.1.9a1.76,1.76,0,0,0-1.3-.6,1.346,1.346,0,0,0-1.2.5,2,2,0,0,0,0,2.4,1.5,1.5,0,0,0,1.1.4,2.084,2.084,0,0,0,1.5-.7Z" fill="#888"/>
    <path id="Path_21" data-name="Path 21" d="M116.8,51.9V47.4h2.8v.7h-2v1.1h1.7v.7h-1.7v1.3h2v.7Z" fill="#888"/>
    <path id="Path_22" data-name="Path 22" d="M120.5,51.9V47.3h.1l3.1,3V47.4h.8v4.7h-.1l-3.1-3V52l-.8-.1Z" fill="#888"/>
    <path id="Path_23" data-name="Path 23" d="M127.5,48.1v3.8h-.8V48.1H125v-.7h4.1v.7Z" fill="#888"/>
    <path id="Path_24" data-name="Path 24" d="M129.6,51.9V47.4h2.8v.7h-2v1.1h1.7v.7h-1.7v1.3h2v.7Z" fill="#888"/>
    <path id="Path_25" data-name="Path 25" d="M134.1,48.1h.3c.8,0,1.2.2,1.2.7s-.4.7-1.1.7H134l.1-1.4Zm0,3.8V50h.4l1.4,1.9h1l-1.5-2a1.2,1.2,0,0,0,1-1.3,1.389,1.389,0,0,0-.5-1,2.81,2.81,0,0,0-1.5-.3h-1.1v4.5C133.3,51.9,134.1,51.9,134.1,51.9Z" fill="#888"/>
    <path id="Path_26" data-name="Path 26" d="M137,53l.6-1.7h.8l-.7,1.7Z" fill="#888"/>
    <path id="Path_27" data-name="Path 27" d="M143,51.9V47.4h2.8v.7h-2v1.1h1.8v.7h-1.8v2Z" fill="#888"/>
    <path id="Path_28" data-name="Path 28" d="M150.1,51.6a2.3,2.3,0,0,1-1.4.4,2.26,2.26,0,0,1-1.5-.5,2.323,2.323,0,0,1-.9-1.9,2.06,2.06,0,0,1,.7-1.7,2.609,2.609,0,0,1,1.7-.7,2.3,2.3,0,0,1,1.4.4l-.1.9a1.76,1.76,0,0,0-1.3-.6,1.346,1.346,0,0,0-1.2.5,2,2,0,0,0,0,2.4,1.5,1.5,0,0,0,1.1.4,2.084,2.084,0,0,0,1.5-.7Z" fill="#888"/>
    <path id="Path_29" data-name="Path 29" d="M151.7,47.4V50c0,.9.4,1.3,1.2,1.3s1.1-.4,1.1-1.3V47.4h.7V50a1.752,1.752,0,0,1-1.9,2,2.456,2.456,0,0,1-1.5-.5,2.07,2.07,0,0,1-.5-1.5V47.4Z" fill="#888"/>
    <g id="Group_5" data-name="Group 5">
      <path id="Path_30" data-name="Path 30" d="M3.9,40.3c-.1.8-.8,1.4-.7,2.1l-.4.1c-.7.5-1.8.3-2,1.3-.4.3-.7.2-.8,0V56H17.6V38.4H4.2C4,39,4.3,39.9,3.9,40.3Z" fill="#005490"/>
      <rect id="Rectangle_1" data-name="Rectangle 1" width="17.6" height="17.6" transform="translate(19.2 38.4)" fill="#005490"/>
      <rect id="Rectangle_2" data-name="Rectangle 2" width="17.6" height="17.6" transform="translate(38.5 38.4)" fill="#005490"/>
      <path id="Path_31" data-name="Path 31" d="M2,24.9l.9-.5c.5,0,1,.7,1.5.1.3.1.6-.2.7-.5a1.485,1.485,0,0,0-.4-1.4,3.685,3.685,0,0,1-1.5-.1c-.1-.4-.4-1-.9-1.1a.664.664,0,0,0-.5.4c.2.5-.5.2-.6.7-.4-.4.1-1.2-.4-1.7-.2-.1-.5-.2-.5-.6-.2-.1-.2-.2-.3-.3v4.3H.2A2.086,2.086,0,0,0,2,24.9Z" fill="#005490"/>
      <path id="Path_32" data-name="Path 32" d="M16.7,30.4c-.1.2-.4.1-.5,0-.1-.4,0-.8-.5-1.1-.4-.4,0-.9.1-1.4-.3-.3-.7-.4-.7-.9a.55.55,0,0,0-.3-.7c-.5-.1-1.1,0-1.5-.4a2.117,2.117,0,0,1-1.9.2c-.3-.3-.5-.7-1-.6-.3-.1-.3-1.1-.9-.6-.2-.4-.7-.1-.9-.5-.1,0-.2.1-.3.2a6.69,6.69,0,0,0,1.4,1.9c.4.1.9.7,1.4.2.2.6-.6,1-.7,1.7a7.637,7.637,0,0,0-.9.9c-.5,0-.6-.6-1-.6a.676.676,0,0,1-.9-.6c-.7-.3-1-1-1.5-1.6,0-.4-.5-.7-.8-1-.3.3-.7-.1-1,.3-.1.6.7.8.4,1.5,1.4.8,1.2,3.2,3.1,3l.4-.3.1.3c-.3.6-.1,1.4-.8,1.7-.7.6.2,1.8-.9,2A2.353,2.353,0,0,0,6,36.5v.3H17.8V29.1A4.487,4.487,0,0,0,16.7,30.4Z" fill="#005490"/>
      <path id="Path_33" data-name="Path 33" d="M31.9,19.8c-.4.6-.1,1.5-.9,1.9-.1.2.1.4.2.6.1.4-.3.7-.6.9-.2-.4,0-.9-.2-1.3-.1-.3-.2-.9-.7-.8s-.7.7-.9,1.1c0,.4-.3,1.1.2,1.4a4.033,4.033,0,0,1,0,1.1c.4.3,0,.7-.1,1.1-.4.3-1.1.6-1.4,1.2l.2.4c-.7,0-1.2.9-2,.4-.3.1-.9.1-.9.7.1.2-.2.6.1.8,0,.1-.1.3,0,.4.1.2.6.1.5.5a.349.349,0,0,1-.6.2,1.277,1.277,0,0,0-1.2-.2,1.268,1.268,0,0,0-.4.9,9.958,9.958,0,0,0,1,1.1v.1a2.549,2.549,0,0,1-1.3-.6c-.6.1,0-.6-.4-.7-.3-.1-.6.2-.7-.1a.909.909,0,0,0-.4-.8c.3-.5-.6-.8-.3-1.5,0-.7-1.1-.1-.8-.8-.2-.3-.7-.3-1.1-.1V37H36.8V19.2H32.6A4.349,4.349,0,0,1,31.9,19.8Z" fill="#aacd22"/>
      <path id="Path_34" data-name="Path 34" d="M55.4,26.9c-.3-.5-.1-1.2-.4-1.7,0-.5-.3-.8-.5-1.3-.1-.2-.3-.1-.5-.1-.5.2-.2.7-.2,1a3.749,3.749,0,0,1,.1,1.1,1.167,1.167,0,0,1,0,1,17.03,17.03,0,0,1-.9-2.4l-.8-1.1c-.2-1.4.3-3-.1-4.3H38.5V36.7H56.1v-9C56,27.4,55.9,27,55.4,26.9Z" fill="#005490"/>
      <path id="Path_35" data-name="Path 35" d="M2.5,5.1c.4.8,1.2.8,1.8,1.5l1.4.1.1.6c-.4.6-1,1.1-1.4,1.8.4,1.4,1.6.5,2.4.4.7-.4.5-1.1.9-1.5a2.56,2.56,0,0,0,1.9-.4c0-.3.4-.3.5-.4.4.1.5-.1.7-.4A2.165,2.165,0,0,1,12,6.6c-.1.4.2.5.5.7a1.823,1.823,0,0,0,1.1-.5c.3-.4-.3-.6-.5-.9-.3-.1-.2-.5-.6-.7.1-.3.5-.1.9-.2.3-.2.7-.6.6-1-.1-.1,0-.3.1-.4a1.09,1.09,0,0,1,1.1-.2,2.622,2.622,0,0,1-.5.9,1.486,1.486,0,0,0,.1.6,2.464,2.464,0,0,0-.2,1.7,1.837,1.837,0,0,1,.5,1.5c.4,1,1-.3,1.5.3a.891.891,0,0,0,.5,1.1.319.319,0,0,0,.3.3h.2V7.4a1.756,1.756,0,0,1-.5-.4c.1-.2.3-.6.1-.9s-.7-.1-.9-.5c0-.3.1-.7.5-.6.2,0,.4.2.6.4h.1V.1H0V6C.9,5.8,1.5,4.8,2.5,5.1Z" fill="#005490"/>
      <path id="Path_36" data-name="Path 36" d="M.9,13.7c.2-.4.7-.1.9-.6.3,0,.5-.4.6-.6A1.57,1.57,0,0,0,1.7,11a2.767,2.767,0,0,0,.5-1.6c-.2-.3-.7-.2-1-.1C.4,9.6.3,10.4,0,11v3.6C.3,14.3.9,14.3.9,13.7Z" fill="#005490"/>
      <path id="Path_37" data-name="Path 37" d="M36.2,12.9c-.9.7-2.3,1.2-2.3,2.5.1.2.4.6.8.5-.2.4-.8.7-.7,1.3v.3h2.8V12.7A.445.445,0,0,1,36.2,12.9Z" fill="#005490"/>
      <path id="Path_38" data-name="Path 38" d="M27.6,2.7l.2.4c.9.1,1.5.7,2.5.3a1.419,1.419,0,0,0,.8.9c.2-.1.7.1.9-.2.9,1,2.1-.1,3.1-.3.7.2,1,1.3,1.8,1.3V-.2H19.2V2.6l1-.8C23.3.8,24.8,1.4,27.6,2.7Z" fill="#005490"/>
      <path id="Path_39" data-name="Path 39" d="M51.9,16.9c-.5-.7-.2-1.6-.9-2.3-.2-.3-.3-.9-.8-.7a1.271,1.271,0,0,1-.8-.8.855.855,0,0,0-.6-.3.83.83,0,0,0-.2-.8,1.928,1.928,0,0,0-1.3,0c-.5.3-.3.9-.9,1-.3.2,0,.8-.6.8-.3.1-.6-.2-.9-.2,0-.2-.3-.4-.3-.7a.951.951,0,0,0,.4-1c0-.5-.8-.4-.8-.9-.1-.4.6-.5.6-1,0-.3-.3-.4-.5-.6h-.5c-.1-.2-.6-.6-.2-.8.2-.1.3.2.6.2a.905.905,0,0,0,1-.3c.4-.7-1-2.1.6-2.2l.2-.7a6.251,6.251,0,0,1,2,1.3c.6.1,1.5-.1,1.7.7.4.2,1.1,0,1.1.6.2.2.4.7.8.5.6,0,.4-.8,1.1-.9.4,0,.8-.2,1.1.1.1.3.4.2.6.4.3.3.5.9,1,.9.2,0,.4-.1.6,0,.1.3,0,.7.2.9V-.1H38.5V5.4a8.807,8.807,0,0,1,1.7.2c.8,1.1.3,2.5.9,3.7,0,.6-.5,1.3,0,1.9.2.4.6.8.5,1.2l.2.2c-.5,1.2-2.4,1.7-2.1,3.2-.4.2-.3,1.1-1,.7-.2-.7.7-1.3.2-2-.4-.7.4-1.3.7-1.9-.1-.5-.7-.6-1.1-.6v5.4H52.4A2.252,2.252,0,0,0,51.9,16.9Z" fill="#005490"/>
      <g id="Group_4" data-name="Group 4">
        <path id="Path_40" data-name="Path 40" d="M0,43.8a.467.467,0,0,0,.7.1c.2-1,1.3-.8,2-1.3l.4-.1c-.1-.7.5-1.4.7-2.1.5-.5.2-1.4.4-2H0Z" fill="#fff"/>
        <path id="Path_41" data-name="Path 41" d="M0,19.2V20a.769.769,0,0,1,.2.3.634.634,0,0,0,.5.6c.6.4,0,1.2.4,1.7.2-.6.9-.3.7-.8a.664.664,0,0,1,.5-.4c.5.1.8.7.9,1.1.4.3.9.2,1.5.1A1.485,1.485,0,0,1,5.1,24a.567.567,0,0,1-.8.4c-.4.6-.9,0-1.5-.1l-.8.6a2.155,2.155,0,0,1-1.7-.5c-.1,0-.1-.1-.2-.1V36.8H6v-.3A2.353,2.353,0,0,1,6.6,34c1.2-.2.1-1.5.9-2,.7-.3.5-1.1.9-1.7L8.2,30l-.2.2c-2,.1-1.8-2.2-3.1-3,.2-.7-.6-.8-.4-1.5.2-.4.7,0,1-.3.2.3.7.6.8,1A2.929,2.929,0,0,0,7.6,28c0,.5.4.7.9.6.4,0,.5.6,1,.6a7.637,7.637,0,0,1,.9-.9c.1-.6.9-1,.7-1.7-.5.4-1-.1-1.4-.2a6.69,6.69,0,0,1-1.4-1.9c.1-.1.2-.2.3-.2.2.4.7.1.9.5.6-.4.6.4.9.6.5-.1.7.3,1,.6a2.117,2.117,0,0,0,1.9-.2c.4.4,1,.3,1.5.4a.517.517,0,0,1,.3.7c0,.5.4.6.7.9-.1.4-.5.9-.1,1.4.4.2.3.7.5,1.1a.454.454,0,0,0,.5,0,2.73,2.73,0,0,1,.9-1.2v-10H0Z" fill="#fff"/>
        <path id="Path_42" data-name="Path 42" d="M19.2,27.6a1.1,1.1,0,0,1,1.1.1c-.3.7.8.1.8.8-.2.6.7.9.3,1.5a2.01,2.01,0,0,1,.4.8c.1.4.4.1.7.1.4.1-.1.9.4.7a2.549,2.549,0,0,0,1.3.6v-.1a10.948,10.948,0,0,1-1-1.1c-.1-.4.1-.6.4-.9a1.277,1.277,0,0,1,1.2.2c.2.1.6.1.6-.2.1-.4-.4-.2-.5-.5a.3.3,0,0,1,0-.4c-.3-.2,0-.6-.1-.8.1-.5.6-.5.9-.7.8.4,1.2-.4,2-.4l-.2-.4a3.232,3.232,0,0,1,1.4-1.2c0-.4.4-.7.1-1.1a4.033,4.033,0,0,0,0-1.1c-.5-.2-.2-.9-.2-1.4a1.943,1.943,0,0,1,.9-1.1c.5-.1.6.5.7.8.2.4,0,.9.2,1.3.3-.2.7-.4.6-.9-.1-.1-.3-.4-.2-.6.8-.4.5-1.3.9-1.9a4.62,4.62,0,0,1,.7-.7H19.2Z" fill="#fff"/>
        <path id="Path_43" data-name="Path 43" d="M52.1,19.2h0c.5,1.4,0,2.9.1,4.3l.8,1.1a6.989,6.989,0,0,0,.9,2.4,1.167,1.167,0,0,0,0-1c-.1-.3,0-.8-.1-1.1,0-.3-.3-.9.2-1,.2,0,.4-.1.5.1.1.5.5.8.5,1.3.4.5.1,1.1.4,1.7.5,0,.6.4.7.8V19.2Z" fill="#fff"/>
        <path id="Path_44" data-name="Path 44" d="M17.6,17.6V9.4h-.2a.319.319,0,0,1-.3-.3c-.4-.1-.6-.7-.5-1.1-.5-.6-1.1.7-1.5-.3a2.1,2.1,0,0,0-.5-1.5,3.333,3.333,0,0,1,.2-1.7c-.2-.1-.1-.4-.1-.6a3.473,3.473,0,0,0,.6-.9,1.431,1.431,0,0,0-1.1.3c-.2.1-.3.2-.2.3a1.524,1.524,0,0,1-.6,1c-.3.1-.8,0-.9.2.3.2.2.6.6.7.1.3.8.5.5.9a1.606,1.606,0,0,1-1.1.5c-.3-.2-.7-.4-.5-.7a2.537,2.537,0,0,0-1.2.2c-.2.2-.4.5-.7.4-.2.3-.6.3-.6.6a1.979,1.979,0,0,1-1.8.4c-.4.4-.2,1.2-.9,1.5-.8.1-2,1-2.3-.4A12.378,12.378,0,0,1,5.9,7.1l-.2-.6L4.3,6.4c-.5-.7-1.4-.7-1.8-1.5C1.5,4.8.9,5.8,0,6v5.1c.3-.6.4-1.5,1.2-1.8a.92.92,0,0,1,1,.1,4.711,4.711,0,0,1-.4,1.7,1.488,1.488,0,0,1,.7,1.5,1.167,1.167,0,0,1-.6.6c-.2.4-.7.2-.9.6,0,.6-.6.6-.9,1v2.9l17.5-.1Z" fill="#fff"/>
        <path id="Path_45" data-name="Path 45" d="M16.9,4.7c-.4,0-.5.3-.5.6.2.4.7.2.9.5a1.412,1.412,0,0,1-.1.9,2.181,2.181,0,0,0,.5.4V5h-.1C17.3,4.9,17.2,4.7,16.9,4.7Z" fill="#fff"/>
        <path id="Path_46" data-name="Path 46" d="M35.1,3.8c-1,.1-2.2,1.2-3.1.3-.2.3-.6.1-.9.2a1.419,1.419,0,0,1-.8-.9c-1,.4-1.7-.2-2.5-.3l-.3-.4C24.8,1.3,23.3.8,20.2,2l-1,.8V17.6H34v-.3c-.1-.5.4-.9.7-1.3-.4,0-.6-.3-.8-.5,0-1.3,1.5-1.8,2.3-2.5a1.268,1.268,0,0,0,.6-.1V5.2C36.1,5.2,35.8,4,35.1,3.8Z" fill="#fff"/>
        <path id="Path_47" data-name="Path 47" d="M39.6,12.8c-.2.6-1.1,1.2-.7,1.9.5.7-.4,1.3-.2,2,.7.4.6-.5,1-.7-.3-1.6,1.6-2,2.1-3.2l-.2-.2c0-.4-.3-.7-.5-1.2-.4-.6,0-1.3,0-1.9-.5-1.2,0-2.6-.9-3.7-.4-.3-1.2-.1-1.7-.2v6.6C38.9,12.2,39.5,12.3,39.6,12.8Z" fill="#fff"/>
        <path id="Path_48" data-name="Path 48" d="M56.1,10.3c-.2-.3-.1-.7-.2-.9-.2-.1-.4,0-.6,0-.5-.1-.7-.6-1-.9-.2-.1-.5-.1-.6-.4-.3-.4-.7-.1-1.1-.1-.6,0-.4.8-1.1.9-.4.1-.5-.4-.8-.6.1-.6-.7-.3-1.1-.6-.2-.8-1.1-.5-1.6-.7a13.735,13.735,0,0,0-2-1.3l-.3.6c-1.7.2-.3,1.6-.7,2.3-.2.4-.6.4-1,.3-.2,0-.3-.3-.6-.2-.3.2.1.6.2.8a.446.446,0,0,0,.5,0c.2.1.5.2.5.6s-.8.5-.6,1c0,.5.8.3.8.9a1.159,1.159,0,0,1-.4,1c0,.3.2.4.3.7.3,0,.6.3.9.2.5,0,.2-.6.6-.8.6,0,.4-.7.9-1a1.483,1.483,0,0,1,1.3,0,.627.627,0,0,1,.2.8.6.6,0,0,1,.6.3,1.562,1.562,0,0,0,.8.8c.5-.1.6.4.8.7.7.7.4,1.6.9,2.3a.755.755,0,0,1,.4.7h3.8l.2-7.4Z" fill="#fff"/>
      </g>
    </g>
  </g>
</svg>
