<?xml version="1.0" encoding="utf-8"?>
<!-- Generator: Adobe Illustrator 19.0.0, SVG Export Plug-In . SVG Version: 6.00 Build 0)  -->
<svg version="1.1" id="圖層_4" xmlns="http://www.w3.org/2000/svg" xmlns:xlink="http://www.w3.org/1999/xlink" x="0px" y="0px"
	 viewBox="-172 353 265.1 87" style="enable-background:new -172 353 265.1 87;" xml:space="preserve">
<style type="text/css">
	.st0{clip-path:url(#SVGID_2_);fill:url(#SVGID_3_);}
	.st1{clip-path:url(#SVGID_5_);fill:url(#SVGID_6_);}
	.st2{clip-path:url(#SVGID_8_);fill:url(#SVGID_9_);}
	.st3{clip-path:url(#SVGID_11_);fill:url(#SVGID_12_);}
	.st4{fill:#F9F9F9;}
	.st5{fill:#F9F9FA;}
</style>
<g>
	<g>
		<g>
			<g>
				<defs>
					<path id="SVGID_1_" d="M-156.4,369.6v26.8v27.4c0,0.6,0.2,1.1,0.7,1.2l28.9-28.7l-28.7-28.3
						C-156,368.3-156.4,368.8-156.4,369.6"/>
				</defs>
				<clipPath id="SVGID_2_">
					<use xlink:href="#SVGID_1_"  style="overflow:visible;"/>
				</clipPath>
				
					<linearGradient id="SVGID_3_" gradientUnits="userSpaceOnUse" x1="-1171.3796" y1="1486.0754" x2="-1170.1498" y2="1486.0754" gradientTransform="matrix(0 47.7672 47.7672 0 -71127.2656 56320.6523)">
					<stop  offset="0" style="stop-color:#287DB0"/>
					<stop  offset="0.2693" style="stop-color:#4A93B5"/>
					<stop  offset="0.7615" style="stop-color:#78BBBA"/>
					<stop  offset="1" style="stop-color:#8ACEBC"/>
				</linearGradient>
				<rect x="-156.4" y="368.1" class="st0" width="29.6" height="57.1"/>
			</g>
		</g>
	</g>
	<g>
		<g>
			<g>
				<defs>
					<path id="SVGID_4_" d="M-155.4,368.1l28.7,28.4l8-7.9l-11.9-6.9c0,0-0.1,0-0.2-0.1l0,0c-0.1-0.1-0.4-0.2-0.6-0.4l0,0l0,0
						l-0.5-0.2l0,0l-21.8-12.7c-0.4-0.2-0.7-0.4-1.1-0.4C-155.2,368-155.3,368-155.4,368.1"/>
				</defs>
				<clipPath id="SVGID_5_">
					<use xlink:href="#SVGID_4_"  style="overflow:visible;"/>
				</clipPath>
				
					<linearGradient id="SVGID_6_" gradientUnits="userSpaceOnUse" x1="-1168.9613" y1="1434.5336" x2="-1167.7316" y2="1434.5336" gradientTransform="matrix(30.5566 0 0 -30.5566 35563.0938 44216.6484)">
					<stop  offset="0" style="stop-color:#53C0AC"/>
					<stop  offset="1" style="stop-color:#DEE89A"/>
				</linearGradient>
				<rect x="-155.4" y="368" class="st1" width="36.6" height="28.4"/>
			</g>
		</g>
	</g>
	<g>
		<g>
			<g>
				<defs>
					<path id="SVGID_7_" d="M-155.6,425.1c0.4,0.1,0.7,0,1.2-0.2l0.4-0.2c2.7-1.6,20.9-12.1,23.1-13.3l0,0l0,0l0.1-0.1l0,0h0.1
						l11.9-6.9l-8-7.9L-155.6,425.1z"/>
				</defs>
				<clipPath id="SVGID_8_">
					<use xlink:href="#SVGID_7_"  style="overflow:visible;"/>
				</clipPath>
				
					<linearGradient id="SVGID_9_" gradientUnits="userSpaceOnUse" x1="-1148.8577" y1="1501.965" x2="-1147.6278" y2="1501.965" gradientTransform="matrix(0 24.057 24.057 0 -36269.9219 28034.5117)">
					<stop  offset="0" style="stop-color:#EB413D"/>
					<stop  offset="0.1703" style="stop-color:#D84453"/>
					<stop  offset="0.5766" style="stop-color:#B0497A"/>
					<stop  offset="0.8624" style="stop-color:#944A92"/>
					<stop  offset="1" style="stop-color:#894B9D"/>
				</linearGradient>
				<rect x="-155.6" y="396.4" class="st2" width="36.9" height="28.8"/>
			</g>
		</g>
	</g>
	<g>
		<g>
			<g>
				<defs>
					<path id="SVGID_10_" d="M-126.7,396.4l8,7.9l11.3-6.5l0.1-0.1c1.2-0.7,1.2-1.7,0.2-2.3h-0.1l0,0c-1.1-0.6-11.6-6.6-11.6-6.6
						L-126.7,396.4z"/>
				</defs>
				<clipPath id="SVGID_11_">
					<use xlink:href="#SVGID_10_"  style="overflow:visible;"/>
				</clipPath>
				
					<linearGradient id="SVGID_12_" gradientUnits="userSpaceOnUse" x1="-1109.467" y1="1530.202" x2="-1108.2372" y2="1530.202" gradientTransform="matrix(0 12.8296 12.8296 0 -19748.1797 14622.6299)">
					<stop  offset="0" style="stop-color:#F58879"/>
					<stop  offset="0.1104" style="stop-color:#F68F79"/>
					<stop  offset="0.7098" style="stop-color:#FBB777"/>
					<stop  offset="1" style="stop-color:#FEC774"/>
				</linearGradient>
				<rect x="-126.7" y="388.6" class="st3" width="20.8" height="15.7"/>
			</g>
		</g>
	</g>
	<path class="st4" d="M30.1,408c-1.1,0-2.1-0.2-3.1-0.6c-0.9-0.4-1.7-1-2.3-1.8h-0.2c0.1,1,0.2,2,0.2,2.8v7h-2.6v-24.8h2.1l0.4,2.3
		h0.1c0.6-1,1.5-1.6,2.3-2c0.9-0.4,1.8-0.6,3.1-0.6c2.2,0,4.1,0.7,5.3,2.3c1.2,1.6,1.8,3.7,1.8,6.5s-0.6,5-1.8,6.5
		C34.1,407.3,32.4,408,30.1,408 M29.7,392.5c-1.7,0-3,0.5-3.8,1.5c-0.7,1-1.2,2.5-1.2,4.7v0.6c0,2.5,0.4,4.1,1.2,5.2
		s2.1,1.6,3.8,1.6c1.5,0,2.6-0.6,3.4-1.8c0.9-1.2,1.2-2.8,1.2-4.9s-0.4-3.8-1.2-4.9C32.4,393,31.3,392.5,29.7,392.5"/>
	<rect x="40.6" y="383.4" class="st4" width="2.6" height="24.2"/>
	<path class="st4" d="M58.1,407.6l-0.5-2.5h-0.1c-0.9,1.1-1.7,1.8-2.6,2.2c-0.9,0.4-1.8,0.6-3.2,0.6c-1.7,0-3.1-0.5-3.9-1.4
		c-1-0.9-1.5-2.1-1.5-3.7c0-3.4,2.7-5.3,8.2-5.4l3-0.1v-1.1c0-1.4-0.2-2.3-0.9-3c-0.6-0.6-1.5-1-2.8-1c-1.5,0-3.1,0.5-4.8,1.4
		l-0.7-2c0.9-0.5,1.7-0.9,2.8-1.1c1-0.2,2-0.4,3.1-0.4c2.1,0,3.6,0.5,4.6,1.4s1.5,2.3,1.5,4.3v11.7h-2.2V407.6z M52.2,405.9
		c1.6,0,2.8-0.5,3.8-1.4c0.9-0.9,1.4-2.1,1.4-3.7v-1.6l-2.6,0.1c-2.1,0.1-3.6,0.4-4.4,1c-0.9,0.6-1.4,1.5-1.4,2.6
		c0,1,0.2,1.6,0.9,2.1C50.5,405.7,51.2,405.9,52.2,405.9"/>
	<path class="st4" d="M61.5,390.5h2.8l3.7,9.7c0.9,2.2,1.4,3.8,1.5,4.8h0.1c0.1-0.5,0.4-1.5,0.9-2.7s1.8-5.3,4.2-11.8h2.8l-7.4,19.4
		c-0.7,2-1.6,3.3-2.6,4.1c-1,0.9-2.2,1.2-3.6,1.2c-0.7,0-1.6-0.1-2.3-0.2v-2.1c0.6,0.1,1.2,0.2,2,0.2c1.7,0,3.1-1,3.8-3l1-2.5
		L61.5,390.5z"/>
	<path class="st4" d="M-17.8,392.1c0.9,0.7,2.6,2.1,2.6,4.8c0,2.6-1.5,3.9-3,5c-0.5,0.5-1,1-1,1.7s0.5,1.2,1,1.5l1.2,1
		c1.5,1.5,2.8,2.7,2.8,5.2c0,3.3-3.2,6.8-9.3,6.8c-5.2,0-7.6-2.5-7.6-5.2c0-1.2,0.6-3.1,2.7-4.3c2.2-1.4,5.2-1.5,6.8-1.6
		c-0.5-0.6-1.1-1.4-1.1-2.5c0-0.6,0.1-1,0.4-1.4c-0.4,0-0.7,0.1-1.1,0.1c-3.8,0-5.9-2.8-5.9-5.7c0-1.6,0.7-3.4,2.3-4.8
		c2.1-1.7,4.4-2,6.4-2h7.4l-2.3,1.2h-2.3V392.1z M-20.4,408c-0.2,0-0.5,0-0.9,0s-2.2,0.1-3.8,0.6c-0.7,0.2-3.1,1.1-3.1,3.7
		s2.5,4.3,6.3,4.3c3.4,0,5.3-1.6,5.3-3.8C-16.4,410.9-17.7,410-20.4,408 M-19.4,401.2c0.9-0.9,0.9-2,0.9-2.6c0-2.6-1.5-6.5-4.6-6.5
		c-1,0-2,0.5-2.5,1.2c-0.6,0.7-0.7,1.7-0.7,2.6c0,2.3,1.4,6.4,4.4,6.4C-20.9,402.2-19.9,401.8-19.4,401.2"/>
	<path class="st4" d="M-40.3,407.5c-5.7,0-8.7-4.4-8.7-8.4c0-4.7,3.8-8.6,9.2-8.6c5.3,0,8.5,4.1,8.5,8.4
		C-31.3,403-34.5,407.5-40.3,407.5 M-35.9,404.6c0.9-1.1,1.1-2.6,1.1-3.9c0-3.2-1.5-9.1-5.9-9.1c-1.2,0-2.3,0.5-3.2,1.2
		c-1.4,1.2-1.6,2.8-1.6,4.3c0,3.6,1.7,9.3,6,9.3C-38.1,406.4-36.7,405.7-35.9,404.6"/>
	<path class="st4" d="M-59.6,407.5c-5.7,0-8.7-4.4-8.7-8.4c0-4.7,3.8-8.6,9.2-8.6c5.3,0,8.5,4.1,8.5,8.4
		C-50.6,403-53.8,407.5-59.6,407.5 M-55.2,404.6c0.9-1.1,1.1-2.6,1.1-3.9c0-3.2-1.5-9.1-5.9-9.1c-1.2,0-2.3,0.5-3.2,1.2
		c-1.4,1.2-1.6,2.8-1.6,4.3c0,3.6,1.7,9.3,6,9.3C-57.4,406.4-56,405.7-55.2,404.6"/>
	<path class="st4" d="M-71,406.9l-5.2,1.2c-2.1,0.4-3.9,0.6-5.9,0.6c-10,0-13.7-7.3-13.7-13c0-7,5.3-13.4,14.5-13.4
		c2,0,3.8,0.2,5.5,0.7c2.7,0.7,3.9,1.7,4.8,2.2l-3,2.8l-1.2,0.2l0.9-1.5c-1.2-1.2-3.4-3.3-7.6-3.3c-5.7,0-10,4.3-10,10.6
		c0,6.8,4.9,13,12.7,13c2.3,0,3.4-0.5,4.6-0.9v-5.8l-5.4,0.2l2.8-1.6h7.6l-1.1,1.1c-0.2,0.2-0.2,0.2-0.4,0.6c0,0.4-0.1,1.4-0.1,1.7
		v4.3h0.2V406.9z"/>
	<path class="st4" d="M-6.5,405.9c-1.2-0.1-1.5-0.4-1.5-1.7v-0.4v-19.9c0-0.1,0-0.1,0-0.2c0.1-1.2,0.5-1.5,1.6-2.1h-5.1l-2.7,1.4
		h2.7l0,0l0,0v20.9v1.2c0,0.7-0.1,0.9-1,1.8h6.4l1.4-0.7C-5.2,406-5.9,405.9-6.5,405.9"/>
	<path class="st4" d="M8.2,406.1c-0.4,0.2-0.7,0.5-1.2,0.6c-1.2,0.5-2.3,0.7-3.4,0.7s-3-0.1-4.8-1.4c-2.6-1.7-3.7-4.8-3.7-7.5
		c0-5.5,4.4-8.2,8.1-8.2c1.2,0,2.6,0.4,3.7,1c1.7,1.2,2.2,2.7,2.5,3.6L1,398.3l-2.7,0.2c0.9,4.6,3.9,7.1,7.4,7.1
		c1.8,0,3.1-0.6,4.3-1.2L8.2,406.1z M4.7,395.6c0.6-0.2,1-0.5,1-1c0-1.5-1.6-3.1-3.6-3.1c-1.5,0-4.1,1.1-4.1,4.9
		c0,0.6,0.1,1.2,0.1,1.8L4.7,395.6z"/>
	<polygon class="st4" points="11.5,390.7 11.5,393 11.2,393 11.2,390.7 10.5,390.7 10.5,390.4 12.3,390.4 12.3,390.7 	"/>
	<polygon class="st4" points="14.8,393 14.8,390.7 14.7,390.7 14.1,393 13.8,393 13.1,390.7 13.1,390.7 13.1,393 12.8,393 
		12.8,390.4 13.2,390.4 13.9,392.5 13.9,392.5 14.6,390.4 15.1,390.4 15.1,393 	"/>
	<path class="st5" d="M-88.6,375.3h-1.7c0-0.2-0.1-1-0.5-2.1h-2.6c-0.4,1.1-0.5,1.8-0.5,2.1h-1.7c0-0.1,0.5-1.4,1.4-3.6
		s1.4-3.4,1.4-3.7h2.1c0,0.2,0.4,1.5,1.2,3.7C-89.1,373.9-88.6,375.2-88.6,375.3 M-91.2,372.2c-0.6-2-1-3-1-3.1h-0.1
		c0,0.1-0.4,1.2-1,3.1H-91.2z"/>
	<path class="st5" d="M-81.5,375.3h-1.4c0-0.1-0.5-1-1.5-2.5c-1.1-1.5-1.7-2.6-1.8-3.2h-0.1c0.1,0.9,0.1,1.6,0.1,2.2
		c0,0.9,0,2.1,0.1,3.3h-1.4c0-1.1,0.1-2.5,0.1-3.8c0-1.4,0-2.5-0.1-3.4h1.6c0,0.2,0.5,1,1.4,2.3c1,1.5,1.6,2.5,1.7,3h0.1
		c-0.1-0.9-0.1-1.6-0.1-2.2c0-1,0-2.1-0.1-3.1h1.4c0,0.9-0.1,2.1-0.1,3.4C-81.6,372.9-81.5,374.2-81.5,375.3"/>
	<path class="st5" d="M-73.4,371.5c0,1.1-0.4,2-1,2.7s-1.6,1.2-2.8,1.2c-0.5,0-1.4,0-2.2-0.1c0-1.1,0.1-2.3,0.1-3.8
		c0-1.4,0-2.5-0.1-3.4h1c0.1,0,0.4,0,0.7,0c0.4,0,0.5,0,0.6,0c1.4,0,2.3,0.4,3,1C-73.7,369.7-73.4,370.5-73.4,371.5 M-75,371.7
		c0-0.7-0.2-1.4-0.6-1.8c-0.4-0.5-1.1-0.7-1.8-0.7c-0.1,0-0.4,0-0.6,0c0,0.7,0,1.5,0,2.3s0,1.7,0,2.6c0.2,0,0.5,0.1,0.7,0.1
		c0.7,0,1.4-0.2,1.7-0.7C-75.1,372.9-75,372.5-75,371.7"/>
	<path class="st5" d="M-66,375.3h-1.6c-0.5-1.4-0.7-2.1-1-2.5c-0.2-0.4-0.6-0.5-1.1-0.5c-0.2,0-0.4,0-0.6,0c0,1,0,2,0,3h-1.6
		c0-1.1,0.1-2.3,0.1-3.8c0-1.4,0-2.5-0.1-3.4h1c0.1,0,0.4,0,0.7,0c0.4,0,0.7,0,1,0c1.7,0,2.6,0.6,2.6,1.7c0,1-0.5,1.6-1.5,2v0.1
		c0.4,0.1,0.7,0.4,1,0.9C-66.9,373.2-66.5,374.1-66,375.3 M-68.1,370.2c0-0.7-0.5-1.1-1.5-1.1c-0.4,0-0.6,0-1,0.1c0,0.6,0,1.4,0,2.2
		c0.2,0,0.4,0,0.5,0C-68.7,371.5-68.1,371-68.1,370.2"/>
	<path class="st5" d="M-58,371.6c0,1.1-0.4,2.1-1.1,2.8s-1.6,1.1-2.6,1.1s-1.8-0.4-2.5-1c-0.6-0.7-1-1.6-1-2.6
		c0-1.1,0.4-2.1,1.1-2.8c0.7-0.7,1.6-1.1,2.6-1.1s1.8,0.4,2.5,1C-58.4,369.6-58,370.5-58,371.6 M-59.5,371.7c0-0.7-0.2-1.4-0.6-1.8
		c-0.4-0.5-0.9-0.7-1.5-0.7c-0.5,0-1,0.2-1.4,0.7s-0.6,1.1-0.6,1.8s0.2,1.4,0.6,1.8c0.4,0.5,0.9,0.7,1.5,0.7c0.5,0,1-0.2,1.4-0.7
		C-59.7,373.1-59.5,372.5-59.5,371.7"/>
	<path class="st5" d="M-54.8,375.3h-1.6c0-1.1,0.1-2.5,0.1-3.8c0-1.4,0-2.5-0.1-3.4h1.6c0,1-0.1,2.1-0.1,3.4
		C-54.9,372.9-54.9,374.2-54.8,375.3"/>
	<path class="st5" d="M-46.8,371.5c0,1.1-0.4,2-1,2.7s-1.6,1.2-2.8,1.2c-0.5,0-1.4,0-2.2-0.1c0-1.1,0.1-2.3,0.1-3.8
		c0-1.4,0-2.5-0.1-3.4h1c0.1,0,0.4,0,0.7,0c0.4,0,0.5,0,0.6,0c1.4,0,2.3,0.4,3,1C-47.1,369.7-46.8,370.5-46.8,371.5 M-48.3,371.7
		c0-0.7-0.2-1.4-0.6-1.8c-0.4-0.5-1.1-0.7-1.8-0.7c-0.1,0-0.4,0-0.6,0c0,0.7,0,1.5,0,2.3s0,1.7,0,2.6c0.2,0,0.5,0.1,0.7,0.1
		c0.7,0,1.4-0.2,1.7-0.7C-48.5,372.9-48.3,372.5-48.3,371.7"/>
	<path class="st5" d="M-36.1,375.3h-1.7c0-0.2-0.1-1-0.5-2.1h-2.6c-0.4,1.1-0.5,1.8-0.5,2.1h-1.7c0-0.1,0.5-1.4,1.4-3.6
		c0.9-2.2,1.4-3.4,1.4-3.7h2.1c0,0.2,0.4,1.5,1.2,3.7C-36.5,373.9-36.1,375.2-36.1,375.3 M-38.7,372.2c-0.6-2-1-3-1-3.1h-0.1
		c0,0.1-0.4,1.2-1,3.1H-38.7z"/>
	<path class="st5" d="M-29.6,370c0,0.9-0.4,1.6-1,2s-1.5,0.6-2.5,0.6c-0.1,0-0.2,0-0.4,0c0,0.7,0,1.6,0,2.7H-35
		c0-1.1,0.1-2.3,0.1-3.8c0-1.4,0-2.5-0.1-3.4h1c0.1,0,0.4,0,0.7,0c0.4,0,0.7,0,1,0c0.7,0,1.4,0.1,1.8,0.5
		C-29.8,368.9-29.6,369.3-29.6,370 M-31.1,370.2c0-0.7-0.5-1.2-1.6-1.2c-0.2,0-0.5,0-0.9,0.1c0,0.7,0,1.5,0,2.3c0.1,0,0.2,0,0.4,0
		C-31.7,371.6-31.1,371.1-31.1,370.2"/>
	<path class="st5" d="M-22.9,370c0,0.9-0.4,1.6-1,2s-1.5,0.6-2.5,0.6c-0.1,0-0.2,0-0.4,0c0,0.7,0,1.6,0,2.7h-1.6
		c0-1.1,0.1-2.3,0.1-3.8c0-1.4,0-2.5-0.1-3.4h1c0.1,0,0.4,0,0.7,0c0.4,0,0.7,0,1,0c0.7,0,1.4,0.1,1.8,0.5
		C-23.1,368.9-22.9,369.3-22.9,370 M-24.3,370.2c0-0.7-0.5-1.2-1.6-1.2c-0.2,0-0.5,0-0.9,0.1c0,0.7,0,1.5,0,2.3c0.1,0,0.2,0,0.4,0
		C-25,371.6-24.3,371.1-24.3,370.2"/>
	<path class="st5" d="M-12,371.6c0,1.1-0.4,2.1-1.1,2.8c-0.7,0.7-1.6,1.1-2.6,1.1s-1.8-0.4-2.5-1c-0.6-0.7-1-1.6-1-2.6
		c0-1.1,0.4-2.1,1.1-2.8c0.7-0.7,1.6-1.1,2.6-1.1s1.8,0.4,2.5,1C-12.2,369.6-12,370.5-12,371.6 M-13.5,371.7c0-0.7-0.2-1.4-0.6-1.8
		c-0.4-0.5-0.9-0.7-1.5-0.7c-0.5,0-1,0.2-1.4,0.7s-0.6,1.1-0.6,1.8s0.2,1.4,0.6,1.8c0.4,0.5,0.9,0.7,1.5,0.7c0.5,0,1-0.2,1.4-0.7
		C-13.7,373.1-13.5,372.5-13.5,371.7"/>
	<path class="st5" d="M-4.4,375.3h-1.3c0-0.1-0.5-1-1.5-2.5c-1.1-1.5-1.7-2.6-1.8-3.2h-0.2c0.2,0.9,0.2,1.6,0.2,2.2
		c0,0.9,0,2.1,0.1,3.3h-1.5c0-1.1,0.1-2.5,0.1-3.8c0-1.4,0-2.5-0.1-3.4h1.6c0,0.2,0.5,1,1.4,2.3c1,1.5,1.6,2.5,1.7,3h0.1
		c-0.1-0.9-0.1-1.6-0.1-2.2c0-1,0-2.1-0.1-3.1h1.4c0,0.9-0.1,2.1-0.1,3.4C-4.5,372.9-4.5,374.2-4.4,375.3"/>
</g>
</svg>
