<?xml version="1.0" encoding="utf-8"?>
<!-- Generator: Adobe Illustrator 19.0.0, SVG Export Plug-In . SVG Version: 6.00 Build 0)  -->
<svg version="1.1" id="圖層_3" xmlns="http://www.w3.org/2000/svg" xmlns:xlink="http://www.w3.org/1999/xlink" x="0px" y="0px"
	 viewBox="-172 353 265.1 87" style="enable-background:new -172 353 265.1 87;" xml:space="preserve">
<style type="text/css">
	.st0{fill:#FFFFFF;}
</style>
<path class="st0" d="M-110.4,394.5c0-6.1,5-9.1,5.3-9.3c-2.8-4.2-7.4-4.7-8.9-4.7c-3.8-0.4-7.4,2.3-9.3,2.3s-5-2.3-8-2.1
	c-4,0-7.8,2.5-9.9,6.1c-4.3,7.4-1.1,18.4,3.1,24.5c2.1,3.1,4.6,6.3,7.6,6.1c3.1-0.2,4.2-1.9,8-1.9c3.6,0,4.7,1.9,8,1.9
	c3.2,0,5.3-3.1,7.4-5.9c2.5-3.4,3.4-6.6,3.4-6.8C-104,404.1-110.2,401.6-110.4,394.5z M-116.5,376.5c1.7-2.1,2.8-5,2.5-7.8
	c-2.5,0.2-5.3,1.7-7.2,3.6c-1.5,1.7-2.8,4.7-2.5,7.4C-120.9,380-118.2,378.5-116.5,376.5z M-65.8,416.6h-4.3l-2.3-7.4h-8.2l-2.3,7.4
	H-87l8.2-25.3h5L-65.8,416.6L-65.8,416.6z M-73,406.2l-2.1-6.6c-0.2-0.7-0.6-2.3-1.3-4.7c-0.2,1.1-0.6,2.6-1.1,4.7l-2.1,6.6H-73z
	 M-44.8,407.3c0,3.1-0.7,5.5-2.5,7.4c-1.5,1.5-3.4,2.5-5.5,2.5c-2.5,0-4.2-0.9-5.1-2.6v9.7h-4v-19.6c0-1.9,0-4-0.2-6.1h3.6l0.2,2.8
	c1.3-2.1,3.4-3.2,6.1-3.2c2.1,0,4,0.7,5.3,2.5C-45.5,402.2-44.8,404.5-44.8,407.3L-44.8,407.3z M-49,407.5c0-1.7-0.4-3.2-1.1-4.3
	c-0.9-1.1-2.1-1.7-3.6-1.7c-0.9,0-1.9,0.4-2.6,0.9c-0.7,0.7-1.3,1.5-1.5,2.6c-0.2,0.6-0.2,0.9-0.2,1.1v3.1c0,1.3,0.4,2.5,1.1,3.4
	c0.7,0.9,1.9,1.3,3.2,1.3c1.5,0,2.6-0.6,3.6-1.7C-49.3,411-49,409.5-49,407.5L-49,407.5z M-23.9,407.3c0,3.1-0.7,5.5-2.5,7.4
	c-1.5,1.5-3.4,2.5-5.5,2.5c-2.5,0-4.2-0.9-5.1-2.6v9.7h-4v-19.6c0-1.9,0-4-0.2-6.1h3.6l0.2,2.8c1.3-2.1,3.4-3.2,6.1-3.2
	c2.1,0,4,0.7,5.3,2.5C-24.7,402.2-23.9,404.5-23.9,407.3L-23.9,407.3z M-28.1,407.5c0-1.7-0.4-3.2-1.1-4.3c-0.9-1.1-2.1-1.7-3.6-1.7
	c-0.9,0-1.9,0.4-2.6,0.9c-0.7,0.7-1.3,1.5-1.5,2.6c-0.2,0.6-0.2,0.9-0.2,1.1v3.1c0,1.3,0.4,2.5,1.1,3.4c0.7,0.9,1.9,1.3,3.2,1.3
	c1.5,0,2.6-0.6,3.6-1.7C-28.5,411-28.1,409.5-28.1,407.5L-28.1,407.5z M-0.6,409.6c0,2.1-0.7,4-2.3,5.3c-1.7,1.5-4,2.3-6.8,2.3
	c-2.6,0-5-0.6-6.4-1.5l0.9-3.4c1.7,1.1,3.8,1.7,5.9,1.7c1.5,0,2.6-0.4,3.6-0.9c0.7-0.7,1.3-1.5,1.3-2.8c0-0.9-0.4-1.9-1.1-2.6
	s-1.9-1.3-3.4-1.9c-4.3-1.7-6.6-4-6.6-7.2c0-2.1,0.7-3.8,2.3-5.1c1.5-1.3,3.6-1.9,6.3-1.9c2.3,0,4.2,0.4,5.7,1.1l-1.1,3.1
	c-1.5-0.7-3.1-1.1-4.7-1.1c-1.5,0-2.5,0.4-3.4,1.1c-0.7,0.6-0.9,1.3-0.9,2.3s0.4,1.9,1.1,2.5c0.7,0.6,1.9,1.3,3.6,1.9
	c2.1,0.9,3.8,1.9,4.7,3.1C-1,406.5-0.6,408-0.6,409.6L-0.6,409.6z M12.9,401.5H8.6v8.9c0,2.3,0.7,3.4,2.3,3.4c0.7,0,1.3,0,1.7-0.2
	l0.2,3.1c-0.7,0.4-1.9,0.4-3.2,0.4c-1.5,0-2.8-0.6-3.8-1.5c-1-0.9-1.3-2.6-1.3-5v-9.1H1.9v-3.1h2.6V395l4-1.1v4.5H13L12.9,401.5
	L12.9,401.5z M33,407.3c0,2.8-0.7,5.1-2.5,6.8c-1.7,1.9-4,2.8-6.6,2.8s-4.7-0.9-6.4-2.6c-1.5-1.7-2.5-4-2.5-6.6c0-2.8,0.7-5.1,2.5-7
	c1.7-1.7,3.8-2.6,6.6-2.6c2.6,0,4.7,0.9,6.4,2.6C32.2,402.4,33,404.8,33,407.3z M28.8,407.5c0-1.7-0.4-3.1-1.1-4.3
	c-0.7-1.5-2.1-2.1-3.6-2.1c-1.7,0-2.8,0.7-3.8,2.1c-0.7,1.1-1.1,2.6-1.1,4.3c0,1.7,0.4,3.1,1.1,4.3c0.9,1.5,2.1,2.1,3.6,2.1
	s2.8-0.7,3.6-2.3C28.4,410.6,28.8,409.2,28.8,407.5z M46.1,402c-0.4,0-0.7-0.2-1.3-0.2c-1.5,0-2.5,0.6-3.2,1.7
	c-0.7,0.9-0.9,2.1-0.9,3.6v9.5h-4v-12.5c0-2.1,0-4-0.2-5.7H40l0.2,3.4h0.2c0.4-1.1,1.1-2.1,2.1-2.8c0.9-0.6,1.9-0.9,2.8-0.9h0.9
	C46.1,398.2,46.1,402,46.1,402L46.1,402z M64.3,406.8c0,0.7,0,1.3-0.2,1.9H52c0,1.7,0.6,3.2,1.7,4.2c0.9,0.7,2.3,1.3,4,1.3
	s3.4-0.4,5-0.9l0.6,2.8c-1.7,0.7-3.8,1.1-6.1,1.1c-2.8,0-5.1-0.7-6.6-2.5c-1.6-1.7-2.5-3.8-2.5-6.6c0-2.6,0.7-5.1,2.3-6.8
	c1.5-1.9,3.6-2.8,6.4-2.8c2.6,0,4.6,0.9,5.9,2.8C63.7,402.5,64.3,404.5,64.3,406.8L64.3,406.8z M60.3,405.6c0-1.1-0.2-2.3-0.7-3.1
	c-0.7-1.1-1.7-1.7-3.2-1.7c-1.3,0-2.5,0.6-3.2,1.7c-0.7,0.9-1.1,1.9-1.1,3.2L60.3,405.6z M-74.4,375.8c0,2.3-0.7,4-2.1,5.1
	c-1.3,0.9-3.1,1.5-5.3,1.5c-1.1,0-2.1,0-2.8-0.2V370c1.1-0.2,2.3-0.2,3.4-0.2c2.1,0,3.8,0.4,5,1.3C-75.1,372.5-74.4,374-74.4,375.8
	L-74.4,375.8z M-76.7,375.8c0-1.5-0.4-2.5-1.1-3.4c-0.7-0.7-1.9-1.1-3.4-1.1c-0.6,0-1.1,0-1.5,0.2v9.3h1.3c1.5,0,2.6-0.4,3.6-1.3
	C-77.1,378.8-76.7,377.5-76.7,375.8z M-63.4,377.8c0,1.3-0.4,2.5-1.1,3.4c-0.7,0.9-1.9,1.3-3.2,1.3c-1.3,0-2.3-0.4-3.2-1.3
	c-0.7-0.9-1.1-1.9-1.1-3.2c0-1.3,0.4-2.5,1.1-3.4c0.7-0.9,1.9-1.3,3.2-1.3c1.3,0,2.3,0.4,3.2,1.3C-63.7,375.5-63.4,376.5-63.4,377.8
	z M-65.5,378c0-0.7-0.2-1.5-0.6-2.1c-0.4-0.7-0.9-1.1-1.7-1.1c-0.8,0-1.3,0.4-1.9,1.1c-0.4,0.6-0.6,1.3-0.6,2.1s0.2,1.5,0.6,2.1
	c0.4,0.7,0.9,1.1,1.9,1.1c0.7,0,1.3-0.4,1.7-1.1C-65.7,379.5-65.5,378.8-65.5,378z M-48.4,373.5l-2.8,8.9h-1.9l-1.1-3.8
	c-0.4-0.9-0.6-1.9-0.7-2.8c-0.2,0.9-0.4,1.9-0.7,2.8l-1.1,3.8h-1.9l-2.6-8.9h2.1l0.9,4.2c0.2,0.9,0.4,1.9,0.6,2.8
	c0.2-0.7,0.4-1.7,0.7-2.8l1.3-4.2h1.7l1.1,4.2c0.4,0.9,0.6,2.1,0.7,3.1c0.2-0.9,0.4-1.9,0.6-3.1l1.1-4.2H-48.4z M-38.1,382.3H-40
	v-5.1c0-1.5-0.6-2.3-1.7-2.3c-0.6,0-1.1,0.2-1.5,0.6c-0.4,0.4-0.6,0.9-0.6,1.5v5.3h-1.9v-8.9h1.7v1.3c0.2-0.4,0.6-0.7,0.9-1.1
	c0.6-0.4,1.1-0.6,1.7-0.6c0.7,0,1.5,0.2,2.1,0.7c0.7,0.6,0.9,1.7,0.9,3.1v5.5H-38.1L-38.1,382.3L-38.1,382.3z M-32.7,382.3h-1.9
	v-13.1h1.9V382.3L-32.7,382.3z M-20.9,377.8c0,1.3-0.4,2.5-1.1,3.4c-0.7,0.9-1.9,1.3-3.2,1.3c-1.3,0-2.3-0.4-3.2-1.3
	c-0.7-0.9-1.1-1.9-1.1-3.2c0-1.3,0.4-2.5,1.1-3.4c0.7-0.9,1.9-1.3,3.2-1.3c1.3,0,2.3,0.4,3.2,1.3C-21.3,375.5-20.9,376.5-20.9,377.8
	z M-23,378c0-0.7-0.2-1.5-0.6-2.1c-0.4-0.7-0.9-1.1-1.7-1.1c-0.8,0-1.3,0.4-1.9,1.1c-0.4,0.6-0.6,1.3-0.6,2.1s0.2,1.5,0.6,2.1
	c0.4,0.7,0.9,1.1,1.9,1.1c0.7,0,1.3-0.4,1.7-1.1C-23.1,379.5-23,378.8-23,378z M-11.4,382.3h-1.7l-0.2-0.9c-0.6,0.7-1.5,1.1-2.6,1.1
	c-0.7,0-1.5-0.2-2.1-0.7c-0.4-0.6-0.7-1.1-0.7-1.9c0-1.1,0.4-1.9,1.3-2.5c0.9-0.6,2.3-0.9,3.8-0.7v-0.2c0-1.1-0.6-1.7-1.9-1.7
	c-0.9,0-1.7,0.2-2.3,0.6l-0.4-1.3c0.7-0.6,1.9-0.7,3.1-0.7c2.3,0,3.4,1.3,3.4,3.8v3.2C-11.4,381.2-11.4,382-11.4,382.3z
	 M-13.5,379.2V378c-2.3,0-3.2,0.6-3.2,1.9c0,0.4,0.2,0.7,0.4,1.1c0.2,0.2,0.6,0.4,0.9,0.4s0.7-0.2,1.1-0.4c0.4-0.2,0.6-0.6,0.7-1.1
	C-13.5,379.5-13.5,379.5-13.5,379.2z M0,382.3h-1.7v-1.5c-0.6,1.1-1.5,1.7-2.8,1.7c-1.1,0-1.9-0.4-2.6-1.3c-0.7-0.7-1.1-1.9-1.1-3.2
	c0-1.5,0.4-2.6,1.1-3.6c0.7-0.7,1.7-1.3,2.8-1.3s2.1,0.4,2.5,1.1V369H0v10.6C-0.2,380.8,0,381.5,0,382.3z M-2.1,378.5v-2.1
	c-0.2-0.6-0.4-0.9-0.7-1.1c-0.4-0.4-0.7-0.6-1.3-0.6c-0.7,0-1.3,0.4-1.7,0.9c-0.4,0.6-0.6,1.3-0.6,2.3s0.2,1.5,0.6,2.1
	c0.4,0.6,0.9,0.9,1.7,0.9c0.6,0,1.1-0.2,1.5-0.7C-2.3,379.8-2.1,379.2-2.1,378.5z M16.9,377.8c0,1.3-0.4,2.5-1.1,3.4
	c-0.7,0.9-1.9,1.3-3.2,1.3s-2.3-0.4-3.2-1.3c-0.7-0.9-1.1-1.9-1.1-3.2c0-1.3,0.4-2.5,1.1-3.4c0.7-0.9,1.9-1.3,3.2-1.3
	s2.3,0.4,3.2,1.3C16.5,375.5,16.9,376.5,16.9,377.8z M15,378c0-0.7-0.2-1.5-0.6-2.1c-0.4-0.7-0.9-1.1-1.7-1.1
	c-0.8,0-1.3,0.4-1.9,1.1c-0.4,0.6-0.6,1.3-0.6,2.1s0.2,1.5,0.6,2.1c0.4,0.7,0.9,1.1,1.9,1.1c0.7,0,1.3-0.4,1.7-1.1
	C14.8,379.5,15,378.8,15,378z M27.7,382.3h-1.9v-5.1c0-1.5-0.6-2.3-1.9-2.3c-0.6,0-1.1,0.2-1.5,0.6c-0.4,0.4-0.6,0.9-0.6,1.5v5.3
	h-1.9v-8.9h1.7v1.3c0.2-0.4,0.6-0.7,0.9-1.1c0.6-0.4,1.1-0.6,1.9-0.6c0.7,0,1.5,0.2,2.1,0.7c0.7,0.6,0.9,1.7,0.9,3.1v5.5H27.7
	L27.7,382.3L27.7,382.3z M40.9,375h-2.3v4.3c0,1.1,0.4,1.7,1.1,1.7h0.9v1.5c-0.4,0.2-0.9,0.2-1.5,0.2c-0.7,0-1.3-0.2-1.9-0.7
	c-0.4-0.6-0.7-1.3-0.7-2.5v-4.6h-1.3v-1.5h1.3v-1.7l1.9-0.6v2.3h2.3C40.7,373.3,40.9,375,40.9,375z M51.6,382.3h-1.9v-5.1
	c0-1.5-0.6-2.5-1.7-2.5c-0.9,0-1.5,0.4-1.9,1.3v6.1h-1.8V369h1.9v5.3c0.6-0.9,1.5-1.5,2.6-1.5c0.7,0,1.5,0.2,2.1,0.7
	c0.7,0.7,0.9,1.7,0.9,3.1C51.6,377,51.6,382.3,51.6,382.3z M62.4,377.5v0.9h-5.9c0,0.9,0.4,1.5,0.9,2.1c0.6,0.4,1.1,0.6,1.9,0.6
	c0.9,0,1.7-0.2,2.5-0.4l0.4,1.3c-0.7,0.4-1.9,0.6-3.1,0.6c-1.3,0-2.5-0.4-3.2-1.1s-1.1-1.9-1.1-3.2c0-1.3,0.4-2.5,1.1-3.4
	c0.7-0.9,1.9-1.5,3.1-1.5c1.3,0,2.3,0.6,2.8,1.5C62.2,375.5,62.4,376.5,62.4,377.5L62.4,377.5z M60.5,377c0-0.6-0.2-1.1-0.4-1.5
	c-0.4-0.6-0.9-0.7-1.5-0.7s-1.1,0.2-1.5,0.7c-0.4,0.4-0.6,0.9-0.6,1.5H60.5L60.5,377z"/>
</svg>
