<?xml version="1.0" encoding="utf-8"?>
<!-- Generator: Adobe Illustrator 19.0.0, SVG Export Plug-In . SVG Version: 6.00 Build 0)  -->
<svg version="1.1" xmlns="http://www.w3.org/2000/svg" xmlns:xlink="http://www.w3.org/1999/xlink" x="0px" y="0px"
	 viewBox="-172 353 80 87" style="enable-background:new -172 353 80 87;" xml:space="preserve">
<style type="text/css">
	.st0{display:none;}
	.st1{display:inline;}
	.st2{fill:#FFFFFF;}
</style>
<g id="圖層_3" class="st0">
	<g class="st1">
		<path class="st2" d="M-118.9,397.9c0-6.1,5-9.1,5.3-9.3c-2.8-4.2-7.4-4.7-8.9-4.7c-3.8-0.4-7.4,2.3-9.3,2.3c-1.9,0-5-2.3-8-2.1
			c-4,0-7.8,2.5-9.9,6.1c-4.3,7.4-1.1,18.4,3.1,24.5c2.1,3.1,4.6,6.3,7.6,6.1c3.1-0.2,4.2-1.9,8-1.9c3.6,0,4.7,1.9,8,1.9
			c3.2,0,5.3-3.1,7.4-5.9c2.5-3.4,3.4-6.6,3.4-6.8C-112.5,407.6-118.7,405.1-118.9,397.9z"/>
		<path class="st2" d="M-129.7,379.9c1.7-2.1,2.8-5,2.5-7.8c-2.5,0.2-5.3,1.7-7.2,3.6c-1.5,1.7-2.8,4.7-2.5,7.4
			C-134.1,383.5-131.4,382-129.7,379.9z"/>
	</g>
</g>
<g id="圖層_2">
	<g>
		<path class="st2" d="M-150.6,387.4c-1.7,0-3.2,1.4-3.2,3.2l0,0v5.4v2.5v5.4l0,0c0,1.7,1.4,3.2,3.2,3.2s3.2-1.4,3.2-3.2l0,0v-5.4
			V396v-5.4l0,0C-147.4,388.8-148.8,387.4-150.6,387.4z"/>
		<path class="st2" d="M-110.3,390.6c0-1.7-1.4-3.2-3.2-3.2s-3.2,1.4-3.2,3.2l0,0v5.4v2.5v5.4l0,0c0,1.7,1.4,3.2,3.2,3.2
			s3.2-1.4,3.2-3.2l0,0v-5.4V396V390.6L-110.3,390.6z"/>
		<path class="st2" d="M-146.1,388h-0.2v20.9c0,1.7,1.4,3.2,3.2,3.2h2.7v1.9v5.4l0,0c0,1.7,1.4,3.2,3.2,3.2s3.2-1.4,3.2-3.2l0,0
			v-5.4V412h4.3v1.9v5.4c0,1.7,1.4,3.2,3.2,3.2c1.7,0,3.2-1.4,3.2-3.2v-5.4V412h2.7c1.7,0,3.2-1.4,3.2-3.2V388h-0.1H-146.1z"/>
		<path class="st2" d="M-117.8,386.9v-1.5c0-0.4-0.1-0.9-0.2-1.3c-0.8-3.7-3.4-6.8-6.9-8.7l2.2-4c0.1-0.3,0-0.6-0.2-0.7
			c-0.3-0.1-0.6,0-0.7,0.2l-2.2,4.1c-1.9-0.8-4-1.3-6.2-1.3c-2.2,0-4.4,0.5-6.2,1.3l-2.2-4.1c-0.1-0.3-0.5-0.3-0.7-0.2
			c-0.3,0.1-0.3,0.5-0.2,0.7l2.2,4.1c-3.4,1.7-5.9,4.7-6.8,8.2c-0.2,0.9-0.3,1.9-0.3,2.8c0,0.1,0,0.3,0,0.4L-117.8,386.9
			L-117.8,386.9z M-125.5,379.1c0.7,0,1.3,0.6,1.3,1.3s-0.6,1.3-1.3,1.3c-0.7,0-1.3-0.6-1.3-1.3
			C-126.8,379.7-126.2,379.1-125.5,379.1z M-138.5,379.1c0.7,0,1.3,0.6,1.3,1.3s-0.6,1.3-1.3,1.3s-1.3-0.6-1.3-1.3
			S-139.2,379.1-138.5,379.1z"/>
	</g>
</g>
</svg>
