<?xml version="1.0" encoding="utf-8"?>
<!-- Generator: Adobe Illustrator 19.0.0, SVG Export Plug-In . SVG Version: 6.00 Build 0)  -->
<svg version="1.1" id="圖層_1" xmlns="http://www.w3.org/2000/svg" xmlns:xlink="http://www.w3.org/1999/xlink" x="0px" y="0px"
	 viewBox="-209 221 85.8 63.2" style="enable-background:new -209 221 85.8 63.2;" xml:space="preserve">
<style type="text/css">
	.st0{fill:#FFFFFF;}
</style>
<path class="st0" d="M-125.2,237c0-7.9-7.9-14.4-17.6-14.4c-9,0-16.4,5.5-17.5,12.6c-2.2-0.5-4.5-0.8-6.9-0.8
	c-1.6,0-3.2,0.1-4.7,0.4l0,0c-1.4-6.8-8.6-12-17.4-12c-9.7,0-17.6,6.4-17.6,14.4c0,7,6.1,12.8,14.1,14.1c-0.8,2.3-1.2,4.7-1.2,7.2
	c0,13.3,12,24,26.8,24c14.8,0,26.8-10.7,26.8-24c0-2.4-0.4-4.8-1.2-7C-132.4,250.8-125.2,244.6-125.2,237z"/>
</svg>
