<?xml version="1.0" encoding="utf-8"?>
<!-- Generator: Adobe Illustrator 19.0.0, SVG Export Plug-In . SVG Version: 6.00 Build 0)  -->
<svg version="1.1" id="圖層_1" xmlns="http://www.w3.org/2000/svg" xmlns:xlink="http://www.w3.org/1999/xlink" x="0px" y="0px"
	 viewBox="-203 204 105 105" style="enable-background:new -203 204 105 105;" xml:space="preserve">
<style type="text/css">
	.st0{fill:#A83279;}
</style>
<path id="XMLID_2_" class="st0" d="M-100.1,303.3l-0.2-0.2c-14.5-14.5-27.9-30.3-32.8-37.6c-5.5-8.3-4.1-14.6-0.3-21.6
	c2-3.7,7.2-10,11.9-15.4c4.7-5.4,8.9-9.9,8.9-9.9l0.2-0.2l-1.8-1.8l-37.4,37.4l-50-50l-1.4,1.4l0.2,0.2
	c14.5,14.6,27.9,30.4,32.8,37.7c5.5,8.3,4.1,14.6,0.3,21.6c-2,3.7-7.2,10-11.9,15.4c-4.7,5.4-8.9,9.9-8.9,9.9l-0.2,0.2l1.8,1.8
	l37.4-37.4l50,50L-100.1,303.3z"/>
</svg>
