<?xml version="1.0" standalone="no"?>
<!DOCTYPE svg PUBLIC "-//W3C//DTD SVG 1.1//EN" "http://www.w3.org/Graphics/SVG/1.1/DTD/svg11.dtd" >
<svg xmlns="http://www.w3.org/2000/svg">
<metadata>Generated by IcoMoon</metadata>
<defs>
<font id="icomoon" horiz-adv-x="1024">
<font-face units-per-em="1024" ascent="960" descent="-64" />
<missing-glyph horiz-adv-x="1024" />
<glyph unicode="&#x20;" horiz-adv-x="512" d="" />
<glyph unicode="&#xe900;" glyph-name="user" horiz-adv-x="922" d="M460.749 960.102c-142.226-2.363-256.614-118.212-256.614-260.779 0-144.043 116.77-260.813 260.813-260.813 144.031 0 260.794 116.751 260.813 260.777v0.002c-1.329 144.33-118.64 260.819-263.158 260.819-0.652 0-1.303-0.002-1.953-0.007l0.1 0.001zM545.024 350.31h-168.448c-0.382 0.001-0.834 0.002-1.286 0.002-206.515 0-374.071-166.803-375.289-373.031l-0.001-0.116v-41.318h921.6v41.318c-1.219 206.345-168.775 373.148-375.29 373.148-0.452 0-0.904-0.001-1.356-0.002h0.070z" />
<glyph unicode="&#xe901;" glyph-name="user-circle" d="M512 960c-282.77 0-512-229.23-512-512s229.23-512 512-512c282.77 0 512 229.23 512 512v0c0 282.77-229.23 512-512 512v0zM512 761.805c100.327 0 181.658-81.331 181.658-181.658s-81.331-181.658-181.658-181.658c-100.327 0-181.658 81.331-181.658 181.658v0c0 0.015 0 0.033 0 0.051 0 100.327 81.331 181.658 181.658 181.658 0 0 0 0 0 0v0zM512 51.866c-121.078 0.059-229.428 54.5-301.959 140.219l-0.479 0.581c39.241 73.748 115.501 123.166 203.328 123.443h0.038c5.236-0.030 10.269-0.851 15.001-2.351l-0.358 0.098c25.122-8.821 54.095-14.095 84.245-14.488l0.184-0.002c30.296 0.286 59.285 5.475 86.343 14.808l-1.914-0.574c4.374 1.401 9.407 2.223 14.628 2.253h0.015c87.866-0.277 164.125-49.695 202.762-122.201l0.604-1.242c-73.045-86.197-181.381-140.544-302.41-140.544-0.010 0-0.019 0-0.029 0h0.001z" />
<glyph unicode="&#xe902;" glyph-name="key" d="M460.8 863.539c-59.62-59.684-96.49-142.102-96.49-233.132 0-36.393 5.893-71.41 16.778-104.148l-0.671 2.33-371.61-371.661c-5.44-5.424-8.806-12.925-8.806-21.213 0-0.012 0-0.025 0-0.037v0.002-169.728c0.029-16.548 13.451-29.952 30.003-29.952 0 0 0 0 0 0h169.677c8.282 0.005 15.777 3.37 21.196 8.806l0.001 0.001 42.496 42.394c5.437 5.431 8.801 12.937 8.801 21.228 0 1.216-0.072 2.415-0.213 3.592l0.014-0.142-5.12 45.568 63.181 5.939c14.341 1.38 25.653 12.693 27.024 26.912l0.009 0.122 5.939 63.181 45.568-5.12c1.088-0.142 2.345-0.223 3.622-0.223 7.618 0 14.563 2.883 19.802 7.619l-0.026-0.023c6.249 5.499 10.187 13.497 10.24 22.416v55.766h54.426c8.282 0.005 15.777 3.37 21.196 8.806l0.001 0.001 76.8 75.93c30.836-10.699 66.376-16.878 103.36-16.878 89.594 0 170.719 36.263 229.497 94.913l-0.006-0.006c59.729 59.723 96.672 142.232 96.672 233.37 0 182.263-147.753 330.016-330.016 330.016-91.125 0-173.624-36.933-233.344-96.647v0zM842.65 651.418c-16.289-16.291-38.793-26.368-63.651-26.368-49.711 0-90.010 40.299-90.010 90.010s40.299 90.010 90.010 90.010c24.858 0 47.362-10.077 63.651-26.368v0c16.289-16.296 26.363-38.805 26.363-63.667s-10.074-47.371-26.363-63.668v0z" />
<glyph unicode="&#xe903;" glyph-name="lock" horiz-adv-x="819" d="M716.8 576h-34.15v128c-5.043 142.509-121.784 256.12-265.060 256.12-2.81 0-5.609-0.044-8.397-0.13l0.408 0.010c-2.381 0.077-5.18 0.12-7.99 0.12-143.276 0-260.017-113.612-265.047-255.661l-0.013-0.46v-128h-34.15c-0.887 0.028-1.931 0.045-2.978 0.045-53.734 0-97.517-42.601-99.417-95.871l-0.005-0.174v-448c1.905-53.443 45.689-96.045 99.422-96.045 1.047 0 2.090 0.016 3.13 0.048l-0.152-0.004h614.4c0.887-0.028 1.931-0.045 2.978-0.045 53.734 0 97.517 42.601 99.417 95.871l0.005 0.174v448c-1.905 53.443-45.689 96.045-99.422 96.045-1.047 0-2.090-0.016-3.13-0.048l0.152 0.004zM227.533 704c3.361 94.997 81.181 170.731 176.69 170.731 1.891 0 3.775-0.030 5.652-0.089l-0.274 0.007c1.603 0.052 3.487 0.082 5.378 0.082 95.509 0 173.328-75.735 176.681-170.425l0.009-0.306v-128h-364.083zM455.066 246.528v-97.28c-1.649-23.845-21.397-42.564-45.517-42.564s-43.868 18.719-45.509 42.422l-0.008 0.143v97.28c-26.839 14.134-44.943 41.629-45.465 73.401l-0.001 0.071c2.877 48.033 42.533 85.897 91.034 85.897s88.157-37.864 91.021-85.644l0.012-0.252c-0.533-31.853-18.657-59.351-45.056-73.251l-0.461-0.221z" />
<glyph unicode="&#xe904;" glyph-name="mail" d="M933.99 832h-843.981c-0.168 0.001-0.368 0.002-0.567 0.002-49.112 0-88.98-39.582-89.442-88.585v-590.943c0.463-49.047 40.33-88.629 89.443-88.629 0.199 0 0.399 0.001 0.598 0.002h843.95c0.168-0.001 0.368-0.002 0.567-0.002 49.112 0 88.98 39.582 89.442 88.585v590.943c-0.463 49.047-40.33 88.629-89.443 88.629-0.199 0-0.399-0.001-0.598-0.002h0.031zM963.84 164.864c-1.92-22.49-19.956-40.208-42.416-41.619l-0.131-0.007-287.334 282.88-98.765-97.28c-5.463-5.319-12.934-8.599-21.171-8.599s-15.708 3.28-21.178 8.606l0.007-0.007-101.325 98.918-288.87-284.416c-22.582 1.439-40.605 19.145-42.535 41.455l-0.012 0.17 288.768 284.467-288.819 281.958c1.923 22.506 19.986 40.233 42.47 41.619l0.129 0.006h7.936l403.251-401.408 399.821 401.408h7.834c22.584-1.533 40.558-19.348 42.332-41.723l0.010-0.159-287.283-283.29z" />
<glyph unicode="&#xe905;" glyph-name="triangle-down" d="M512 14.769l-512 866.462h1024z" />
<glyph unicode="&#xe906;" glyph-name="triangle-right" d="M910.629 459.41l-800.914-500.59v1001.179z" />
<glyph unicode="&#xe907;" glyph-name="exit" d="M997.053 501.895l-226.358 226.358c-21.558 21.558-53.895 21.558-75.453 0s-21.558-53.895 0-75.453l145.516-145.516h-463.495c-26.947 0-53.895-21.558-53.895-53.895s21.558-53.895 53.895-53.895h441.937l-129.347-129.347c-21.558-21.558-21.558-53.895 0-75.453s53.895-21.558 75.453 0l226.358 226.358c10.779 10.779 16.168 26.947 16.168 37.726 5.389 21.558 0 32.337-10.779 43.116zM323.368 70.737h-215.579v754.526h215.579c32.337 0 53.895 21.558 53.895 53.895s-21.558 53.895-53.895 53.895h-269.474c-32.337 0-53.895-21.558-53.895-53.895v-862.316c0-32.337 21.558-53.895 53.895-53.895h269.474c32.337 0 53.895 21.558 53.895 53.895s-21.558 53.895-53.895 53.895z" />
<glyph unicode="&#xe908;" glyph-name="refresh" horiz-adv-x="861" d="M430.654 811.664c-4.785 0-9.57 0-19.14 0l57.421 66.991c19.14 19.14 14.355 47.85-4.785 66.991s-47.85 14.355-66.991-4.785l-220.112-253.607 248.822-138.766c9.57-4.785 14.355-4.785 23.925-4.785 14.355 0 33.495 9.57 43.065 23.925 14.355 23.925 4.785 52.636-19.14 66.991l-129.196 71.776c9.57 4.785 19.14 4.785 28.71 9.57 19.14 0 38.28 0 57.421 0 186.617 0 334.953-153.121 334.953-344.523 0-90.916-33.495-177.047-95.701-239.252s-148.336-100.486-239.252-100.486c-186.617 0-334.953 153.121-334.953 339.738 0 28.71-19.14 47.85-47.85 47.85s-47.85-19.14-47.85-47.85c0-239.252 191.402-435.439 430.654-440.224 114.841 0 224.897 47.85 306.243 129.196s124.411 191.402 124.411 306.243c0 248.822-191.402 445.009-430.654 445.009z" />
<glyph unicode="&#xe909;" glyph-name="bars" d="M53.895 852.211h916.211c32.337 0 53.895 21.558 53.895 53.895s-21.558 53.895-53.895 53.895h-916.211c-32.337 0-53.895-21.558-53.895-53.895s21.558-53.895 53.895-53.895zM970.105 501.895h-916.211c-32.337 0-53.895-21.558-53.895-53.895s21.558-53.895 53.895-53.895h916.211c32.337 0 53.895 21.558 53.895 53.895s-21.558 53.895-53.895 53.895zM970.105 43.789h-916.211c-32.337 0-53.895-21.558-53.895-53.895s21.558-53.895 53.895-53.895h916.211c32.337 0 53.895 21.558 53.895 53.895s-21.558 53.895-53.895 53.895z" />
<glyph unicode="&#xe90a;" glyph-name="bars-right" d="M1024 906.105c0 32.337-21.558 53.895-53.895 53.895h-916.211c-32.337 0-53.895-21.558-53.895-53.895s21.558-53.895 53.895-53.895h916.211c32.337 0 53.895 21.558 53.895 53.895zM970.105 501.895h-431.158c-32.337 0-53.895-21.558-53.895-53.895s21.558-53.895 53.895-53.895h431.158c32.337 0 53.895 21.558 53.895 53.895s-21.558 53.895-53.895 53.895zM970.105 43.789h-700.632c-32.337 0-53.895-21.558-53.895-53.895s21.558-53.895 53.895-53.895h700.632c32.337 0 53.895 21.558 53.895 53.895s-21.558 53.895-53.895 53.895z" />
<glyph unicode="&#xe90b;" glyph-name="plus-circle" d="M721.92 483.84h-168.96v174.080c0 20.48-15.36 40.96-40.96 40.96s-35.84-20.48-35.84-40.96v-168.96h-174.080c-20.48 0-40.96-15.36-40.96-40.96s15.36-40.96 40.96-40.96h168.96v-168.96c0-20.48 15.36-40.96 40.96-40.96s40.96 15.36 40.96 40.96v168.96h168.96c20.48 0 40.96 15.36 40.96 40.96s-20.48 35.84-40.96 35.84zM512 960c-281.6 0-512-230.4-512-512s230.4-512 512-512c281.6 0 512 230.4 512 512s-230.4 512-512 512zM512 12.8c-240.64 0-435.2 194.56-435.2 435.2s194.56 435.2 435.2 435.2c240.64 0 435.2-194.56 435.2-435.2s-194.56-435.2-435.2-435.2z" />
<glyph unicode="&#xe90c;" glyph-name="plus" d="M961.67 514.783h-382.887v382.887c0 35.617-26.713 62.33-62.33 62.33s-71.235-26.713-71.235-62.33v-382.887h-373.983c-44.522 0-71.235-26.713-71.235-62.33s26.713-71.235 71.235-71.235h373.983v-382.887c0-35.617 26.713-71.235 71.235-71.235s71.235 26.713 71.235 71.235v382.887h382.887c35.617 0 71.235 26.713 71.235 71.235s-44.522 62.33-80.139 62.33z" />
<glyph unicode="&#xe90d;" glyph-name="times-circle" d="M679.253 608.427c-10.24 10.24-27.307 10.24-37.547 0l-126.293-126.293-126.293 126.293c-10.24 10.24-27.307 10.24-37.547 0s-10.24-27.307 0-37.547l126.293-126.293-126.293-126.293c-10.24-10.24-10.24-27.307 0-37.547 3.413-3.413 10.24-6.827 17.067-6.827s13.653 3.413 17.067 6.827l126.293 126.293 126.293-126.293c3.413-3.413 10.24-6.827 17.067-6.827s13.653 3.413 17.067 6.827c10.24 10.24 10.24 27.307 0 37.547l-126.293 126.293 126.293 126.293c17.067 10.24 17.067 27.307 6.827 37.547zM512 942.933c-273.067 0-494.933-221.867-494.933-494.933s221.867-494.933 494.933-494.933 494.933 221.867 494.933 494.933c0 273.067-221.867 494.933-494.933 494.933zM512 4.267c-245.76 0-443.733 197.973-443.733 443.733s197.973 443.733 443.733 443.733c245.76 0 443.733-197.973 443.733-443.733s-197.973-443.733-443.733-443.733z" />
<glyph unicode="&#xe90e;" glyph-name="times" d="M618.455 442.931l354.851 354.851c30.416 30.416 30.416 81.109 0 111.525s-81.109 30.416-111.525 0l-344.713-354.851-354.851 354.851c-30.416 30.416-81.109 30.416-111.525 0s-30.416-81.109 0-111.525l354.851-354.851-354.851-344.713c-30.416-30.416-30.416-81.109 0-111.525 10.139-10.139 30.416-20.277 50.693-20.277s40.554 10.139 50.693 20.277l354.851 354.851 354.851-354.851c10.139-10.139 30.416-20.277 50.693-20.277s40.554 10.139 50.693 20.277c30.416 30.416 30.416 81.109 0 111.525l-344.713 344.713z" />
<glyph unicode="&#xe90f;" glyph-name="calendar" d="M289.997 540.16c0-22.113-17.926-40.038-40.038-40.038s-40.038 17.926-40.038 40.038v0c0 22.084 17.903 39.987 39.987 39.987s39.987-17.903 39.987-39.987v0zM638.157 540.16v0c0 22.098-17.914 40.013-40.013 40.013s-40.013-17.914-40.013-40.013v0c0-22.098 17.914-40.013 40.013-40.013s40.013 17.914 40.013 40.013v0zM812.237 540.16v0c0 22.084-17.903 39.987-39.987 39.987s-39.987-17.903-39.987-39.987v0c0-22.098 17.914-40.013 40.013-40.013s40.013 17.914 40.013 40.013v0zM289.997 366.080c0 22.084-17.903 39.987-39.987 39.987s-39.987-17.903-39.987-39.987v0c0-22.084 17.903-39.987 39.987-39.987s39.987 17.903 39.987 39.987v0zM250.010 232.090c-0.030 0-0.066 0-0.103 0-22.084 0-39.987-17.903-39.987-39.987 0-0.036 0-0.072 0-0.108v0.006c0-22.084 17.903-39.987 39.987-39.987s39.987 17.903 39.987 39.987v0c0 0 0 0 0 0 0 22.048-17.845 39.929-39.879 39.987h-0.006zM464.026 540.16c0 22.098-17.914 40.013-40.013 40.013s-40.013-17.914-40.013-40.013v0c0-22.098 17.914-40.013 40.013-40.013s40.013 17.914 40.013 40.013v0zM464.026 366.080c0 22.098-17.914 40.013-40.013 40.013s-40.013-17.914-40.013-40.013v0c0-22.098 17.914-40.013 40.013-40.013s40.013 17.914 40.013 40.013v0zM424.038 232.090c-0.015 0-0.033 0-0.051 0-22.084 0-39.987-17.903-39.987-39.987 0-0.036 0-0.072 0-0.108v0.006c0-22.098 17.914-40.013 40.013-40.013s40.013 17.914 40.013 40.013v0c0 22.084-17.903 39.987-39.987 39.987-0.018 0-0.036 0-0.054 0h0.003zM1024 178.022c0-133.665-108.357-242.022-242.022-242.022s-242.022 108.357-242.022 242.022c0 133.665 108.357 242.022 242.022 242.022v0c133.607-0.146 241.877-108.416 242.022-242.008v-0.014zM944.026 178.022c0 89.468-72.528 161.997-161.997 161.997s-161.997-72.528-161.997-161.997c0-89.468 72.528-161.997 161.997-161.997v0c89.421 0.116 161.88 72.575 161.997 161.986v0.011zM840.038 218.010h-18.022v41.984c0 22.084-17.903 39.987-39.987 39.987s-39.987-17.903-39.987-39.987v-81.92c0-22.084 17.903-39.987 39.987-39.987v0h58.010c22.098 0 40.013 17.914 40.013 40.013s-17.914 40.013-40.013 40.013v0zM864.051 880.026h-52.070v39.987c0 22.084-17.903 39.987-39.987 39.987s-39.987-17.903-39.987-39.987v0-39.987h-182.016v39.987c0 22.084-17.903 39.987-39.987 39.987s-39.987-17.903-39.987-39.987v-39.987h-180.019v39.987c0 22.113-17.926 40.038-40.038 40.038s-40.038-17.926-40.038-40.038v-39.987h-49.92c-88.337-0.116-159.913-71.71-160-160.043v-623.982c0.116-88.319 71.681-159.884 159.989-160h305.931c22.098 0 40.013 17.914 40.013 40.013s-17.914 40.013-40.013 40.013h-305.92c-44.167 0.029-79.967 35.811-80.026 79.969v623.98c0.029 44.185 35.84 79.996 80.023 80.026h49.923v-39.987c0-22.084 17.903-39.987 39.987-39.987s39.987 17.903 39.987 39.987v39.987h180.122v-39.987c0-22.084 17.903-39.987 39.987-39.987s39.987 17.903 39.987 39.987v39.987h182.17v-39.987c0-22.098 17.914-40.013 40.013-40.013s40.013 17.914 40.013 40.013v0 39.987h52.019c44.167-0.029 79.967-35.811 80.026-79.969v-228.051c0-22.098 17.914-40.013 40.013-40.013s40.013 17.914 40.013 40.013v0 227.994c-0.117 88.391-71.798 160-160.205 160-0.018 0-0.036 0-0.054 0h0.003z" />
<glyph unicode="&#xe910;" glyph-name="home" d="M984.99 516.267l-463.238 360.838c-14.629 9.752-29.257 9.752-43.886 0l-463.238-360.838c-14.629-14.629-19.505-34.133-4.876-48.762 9.752-19.505 29.257-19.505 43.886-9.752l48.762 39.010c0-4.876 0-4.876 0-9.752 0 0 0-4.876 0-4.876v-458.362c0-19.505 14.629-34.133 34.133-39.010h258.438c19.505 0 34.133 14.629 34.133 34.133v0 263.314c0 19.505 4.876 34.133 19.505 48.762s29.257 19.505 48.762 19.505c19.505 0 34.133-4.876 48.762-19.505s19.505-29.257 19.505-48.762c0 0 0-4.876 0-4.876v-263.314c0-19.505 14.629-34.133 34.133-34.133h258.438c9.752 0 19.505 4.876 24.381 9.752s9.752 14.629 9.752 24.381v468.114c0 4.876 0 9.752 0 9.752l48.762-39.010c4.876 0 14.629-4.876 19.505-4.876 9.752 0 24.381 4.876 29.257 14.629 9.752 19.505 9.752 39.010-4.876 53.638zM863.086 521.143v0 0c-19.505 0-34.133-19.505-34.133-39.010v-419.352h-185.295v224.305c4.876 78.019-58.514 141.41-131.657 146.286-78.019 4.876-141.41-58.514-146.286-131.657 0-4.876 0-9.752 0-9.752v-224.305h-190.171v419.352c0 19.505-14.629 34.133-34.133 39.010 0 0 0 0-4.876 0l360.838 282.819 365.714-287.695c0 0 0 0 0 0z" />
<glyph unicode="&#xe911;" glyph-name="gear" d="M971.609 593.265l-23.814 4.763-28.577 4.763c-4.763 9.526-4.763 14.288-9.526 23.814l28.577 47.628c14.288 23.814 14.288 57.153-9.526 80.967l-114.307 114.307c-23.814 19.051-52.391 23.814-80.967 9.526l-47.628-28.577c-9.526 4.763-14.288 4.763-23.814 9.526l-9.526 52.391c-4.763 28.577-28.577 47.628-61.916 47.628h-157.172c-33.34 0-57.153-19.051-66.679-52.391l-9.526-52.391c-9.526-4.763-14.288-4.763-23.814-9.526l-47.628 28.577c-23.814 19.051-57.153 14.288-80.967-9.526l-114.307-109.544c-19.051-23.814-23.814-57.153-4.763-80.967l28.577-47.628c-4.763-9.526-4.763-14.288-9.526-23.814l-52.391-9.526c-33.34-9.526-52.391-33.34-52.391-66.679v-161.935c0-28.577 19.051-57.153 52.391-61.916l52.391-9.526c4.763-9.526 4.763-14.288 9.526-23.814l-28.577-47.628c-14.288-23.814-14.288-57.153 9.526-80.967l114.307-114.307c19.051-19.051 52.391-23.814 76.205-4.763l47.628 28.577c9.526-4.763 14.288-4.763 23.814-9.526l9.526-52.391c4.763-28.577 33.34-52.391 61.916-52.391h161.935c28.577 0 57.153 19.051 61.916 52.391l9.526 52.391c9.526 4.763 14.288 4.763 23.814 9.526l47.628-28.577c23.814-14.288 57.153-14.288 80.967 9.526l114.307 114.307c19.051 19.051 23.814 57.153 9.526 80.967l-28.577 47.628c4.763 9.526 4.763 14.288 9.526 23.814l52.391 9.526c28.577 4.763 52.391 33.34 52.391 61.916v161.935c0 28.577-19.051 52.391-52.391 61.916zM952.558 374.177l-85.73-19.051-9.526-19.051c-4.763-19.051-14.288-33.34-23.814-52.391l-9.526-19.051 47.628-76.205-104.781-104.781-76.205 47.628-19.051-9.526c-14.288-9.526-33.34-14.288-52.391-19.051l-19.051-4.763-14.288-90.493h-147.647l-19.051 85.73-19.051 9.526c-19.051 4.763-33.34 14.288-52.391 23.814l-19.051 9.526-76.205-47.628-104.781 104.781 47.628 76.205-9.526 19.051c-9.526 14.288-14.288 33.34-23.814 52.391l-4.763 19.051-85.73 19.051v142.884l85.73 19.051 4.763 19.051c9.526 19.051 14.288 38.102 23.814 52.391l9.526 19.051-47.628 76.205 104.781 104.781 76.205-47.628 19.051 9.526c14.288 9.526 33.34 14.288 52.391 19.051l19.051 4.763 19.051 85.73h147.647l19.051-85.73 19.051-4.763c19.051-4.763 33.34-14.288 52.391-23.814l19.051-9.526 76.205 47.628 104.781-104.781-47.628-76.205 9.526-19.051c9.526-9.526 14.288-28.577 19.051-47.628l4.763-19.051 90.493-19.051v-147.647zM514.381 655.181c-114.307 0-204.8-90.493-204.8-204.8s90.493-204.8 204.8-204.8 204.8 90.493 204.8 204.8v0c0 109.544-95.256 204.8-204.8 204.8zM514.381 312.26c-76.205 0-133.358 61.916-133.358 133.358s61.916 133.358 133.358 133.358c76.205 0 133.358-61.916 133.358-133.358s-61.916-133.358-133.358-133.358z" />
<glyph unicode="&#xe912;" glyph-name="gear-solid" d="M999.885 564.582l-78.694 17.101c-7.889 23.941-16.465 44.137-26.47 63.475l1.126-2.393 43.571 67.789c3.031 4.679 4.834 10.4 4.834 16.541 0 8.449-3.411 16.102-8.931 21.656l-122.622 122.622c-5.552 5.519-13.205 8.93-21.654 8.93-6.141 0-11.862-1.802-16.662-4.906l0.12 0.073-67.789-43.571c-16.945 8.879-37.141 17.456-58.055 24.464l-3.026 0.88-17.101 78.694c-3.13 13.861-15.317 24.066-29.895 24.115h-173.42c-14.584-0.049-26.771-10.254-29.862-23.91l-0.039-0.206-17.101-78.694c-23.94-7.888-44.136-16.464-63.473-26.469l2.392 1.125-67.789 43.571c-4.679 3.031-10.4 4.834-16.541 4.834-8.449 0-16.102-3.411-21.656-8.931l-122.622-122.622c-5.519-5.552-8.93-13.205-8.93-21.654 0-6.141 1.802-11.862 4.906-16.662l-0.073 0.12 43.571-67.789c-8.879-16.944-17.455-37.14-24.464-58.055l-0.88-3.027-78.694-17.101c-13.861-3.13-24.066-15.317-24.115-29.895v-173.42c0.049-14.584 10.254-26.771 23.91-29.862l0.206-0.039 78.694-17.101c7.889-23.941 16.465-44.137 26.47-63.474l-1.126 2.393-43.571-67.789c-3.031-4.679-4.834-10.4-4.834-16.541 0-8.449 3.411-16.102 8.931-21.656l122.622-122.622c5.552-5.519 13.205-8.93 21.654-8.93 6.141 0 11.862 1.802 16.662 4.906l-0.12-0.073 67.789 43.571c16.948-8.883 37.144-17.46 58.060-24.466l3.022-0.878 17.101-78.694c3.13-13.861 15.317-24.066 29.895-24.115h173.42c14.584 0.049 26.771 10.254 29.862 23.91l0.039 0.206 17.101 78.694c23.938 7.885 44.134 16.461 63.47 26.468l-2.388-1.124 67.789-43.571c4.679-3.031 10.4-4.834 16.541-4.834 8.449 0 16.102 3.411 21.656 8.931l122.622 122.622c5.519 5.552 8.93 13.205 8.93 21.654 0 6.141-1.802 11.862-4.906 16.662l0.073-0.12-43.418 68.045c8.879 16.945 17.455 37.14 24.464 58.055l0.88 3.026 78.694 17.101c13.861 3.13 24.066 15.317 24.115 29.895v173.42c-0.049 14.584-10.254 26.771-23.91 29.862l-0.206 0.039zM695.603 448c0-101.401-82.202-183.603-183.603-183.603s-183.603 82.202-183.603 183.603c0 101.401 82.202 183.603 183.603 183.603v0c101.354-0.116 183.487-82.249 183.603-183.592v-0.011z" />
<glyph unicode="&#xe913;" glyph-name="search" d="M1008.246 35.774l-157.538 157.538c-5.251 5.251-10.503 10.503-15.754 10.503 63.015 78.769 99.774 178.544 99.774 288.821 0 257.313-210.051 467.364-467.364 467.364s-467.364-210.051-467.364-467.364c0-257.313 210.051-467.364 467.364-467.364 110.277 0 210.051 36.759 288.821 99.774 5.251-5.251 5.251-10.503 10.503-15.754l157.538-157.538c21.005-21.005 63.015-21.005 84.021 0s21.005 63.015 0 84.021zM467.364 119.795c-204.8 0-372.841 168.041-372.841 372.841s168.041 372.841 372.841 372.841c204.8 0 372.841-168.041 372.841-372.841s-168.041-372.841-372.841-372.841z" />
<glyph unicode="&#xe914;" glyph-name="update" d="M875.52 642.56h-179.2c-25.6 0-40.96-20.48-40.96-40.96 0-25.6 15.36-46.080 40.96-46.080h179.2c5.12 0 15.36-5.12 20.48-10.24s10.24-15.36 10.24-20.48v-486.4c0-10.24 0-15.36-10.24-20.48-5.12-5.12-10.24-10.24-20.48-10.24h-711.68c-15.36 0-30.72 15.36-25.6 30.72v486.4c0 5.12 5.12 15.36 10.24 20.48 0 5.12 10.24 5.12 15.36 5.12h179.2c25.6 0 40.96 20.48 40.96 40.96 0 10.24-5.12 25.6-10.24 30.72s-20.48 20.48-30.72 20.48h-179.2c-61.44 0-112.64-56.32-112.64-117.76v-486.4c0-66.56 51.2-117.76 112.64-117.76h706.56c66.56 0 117.76 56.32 112.64 117.76v486.4c5.12 61.44-46.080 117.76-107.52 117.76zM373.76 709.12l102.4 102.4v-563.2c0-25.6 20.48-40.96 40.96-40.96 0 0 0 0 0 0 10.24 0 20.48 5.12 30.72 10.24 10.24 10.24 10.24 20.48 10.24 30.72v563.2l92.16-92.16 15.36-10.24c15.36-15.36 46.080-15.36 61.44 0s15.36 46.080 0 61.44l-179.2 174.080c-15.36 15.36-40.96 15.36-56.32 0l-179.2-174.080c-15.36-15.36-15.36-46.080 0-61.44 20.48-15.36 46.080-15.36 61.44 0z" />
<glyph unicode="&#xe915;" glyph-name="download" d="M875.52 960h-711.68c-61.44 0-112.64-56.32-112.64-117.76v-486.4c0-66.56 51.2-117.76 112.64-117.76h179.2c25.6 0 40.96 20.48 40.96 40.96 0 10.24-5.12 25.6-10.24 30.72-10.24 10.24-20.48 15.36-30.72 15.36h-179.2c-15.36 0-30.72 15.36-25.6 30.72v486.4c0 15.36 10.24 30.72 25.6 30.72h706.56c5.12 0 15.36-5.12 20.48-10.24s10.24-15.36 10.24-20.48v-486.4c0-10.24 0-15.36-10.24-20.48-5.12-5.12-10.24-10.24-20.48-10.24h-179.2c-25.6 0-40.96-20.48-40.96-40.96 0-25.6 15.36-46.080 40.96-46.080h179.2c66.56 0 117.76 56.32 112.64 117.76v486.4c5.12 61.44-46.080 117.76-107.52 117.76zM665.6 166.4l-102.4-102.4v563.2c0 25.6-20.48 40.96-40.96 40.96 0 0 0 0 0 0-10.24 0-20.48-5.12-30.72-10.24-10.24-10.24-15.36-20.48-15.36-30.72v-563.2l-102.4 102.4c-15.36 15.36-46.080 15.36-61.44 0s-15.36-46.080 0-61.44l174.080-174.080c10.24-10.24 20.48-10.24 30.72-10.24 0 0 0 0 0 0 10.24 0 20.48 5.12 30.72 10.24l174.080 174.080c15.36 15.36 15.36 46.080 0 61.44-15.36 20.48-40.96 20.48-56.32 0z" />
<glyph unicode="&#xe916;" glyph-name="view" horiz-adv-x="975" d="M399.458-24.015c-0.722-22.244-18.928-40.002-41.281-40.002-0.419 0-0.836 0.006-1.252 0.019l0.061-0.001h-187.002c-1.391-0.042-3.028-0.066-4.67-0.066-89.468 0-162.345 71.035-165.307 159.782l-0.007 0.272v704.024c2.969 89.018 75.846 160.054 165.314 160.054 1.642 0 3.279-0.024 4.909-0.071l-0.239 0.006h522.435c1.391 0.042 3.028 0.066 4.67 0.066 89.468 0 162.345-71.035 165.307-159.782l0.007-0.272v-382.001c-0.722-22.244-18.928-40.002-41.281-40.002-0.419 0-0.836 0.006-1.252 0.019l0.061-0.001c-0.355-0.011-0.772-0.017-1.191-0.017-22.353 0-40.559 17.758-41.279 39.936l-0.002 0.066v382.001c-1.605 44.518-38.081 79.999-82.845 79.999-0.772 0-1.542-0.011-2.309-0.032l0.113 0.002h-522.435c-0.639 0.018-1.391 0.028-2.146 0.028-44.78 0-81.267-35.507-82.842-79.902l-0.004-0.144v-704.024c1.58-44.539 38.066-80.046 82.846-80.046 0.755 0 1.507 0.010 2.256 0.030l-0.111-0.002h186.953c0.355 0.011 0.772 0.017 1.191 0.017 22.353 0 40.559-17.758 41.279-39.936l0.002-0.066zM649.947 719.994h-437.687c-0.355 0.011-0.772 0.017-1.191 0.017-22.353 0-40.559-17.758-41.279-39.936l-0.002-0.066c0.722-22.244 18.928-40.002 41.281-40.002 0.419 0 0.836 0.006 1.252 0.019l-0.061-0.001h437.687c0.355-0.011 0.772-0.017 1.191-0.017 22.353 0 40.559 17.758 41.279 39.936l0.002 0.066c-0.722 22.244-18.928 40.002-41.281 40.002-0.419 0-0.836-0.006-1.252-0.019l0.061 0.001zM692.419 520.070c-0.722 22.244-18.928 40.002-41.281 40.002-0.419 0-0.836-0.006-1.252-0.019l0.061 0.001h-437.687c-0.355 0.011-0.772 0.017-1.191 0.017-22.353 0-40.559-17.758-41.279-39.936l-0.002-0.066c0.722-22.244 18.928-40.002 41.281-40.002 0.419 0 0.836 0.006 1.252 0.019l-0.061-0.001h437.687c0.355-0.011 0.772-0.017 1.191-0.017 22.353 0 40.559 17.758 41.279 39.936l0.002 0.066zM212.212 400.067c-0.355 0.011-0.772 0.017-1.191 0.017-22.353 0-40.559-17.758-41.279-39.936l-0.002-0.066c0.722-22.244 18.928-40.002 41.281-40.002 0.419 0 0.836 0.006 1.252 0.019l-0.061-0.001h223.33c0.355-0.011 0.772-0.017 1.191-0.017 22.353 0 40.559 17.758 41.279 39.936l0.002 0.066c-0.722 22.244-18.928 40.002-41.281 40.002-0.419 0-0.836-0.006-1.252-0.019l0.061 0.001zM967.485 107.057c-1.512-1.999-6.632-8.826-9.752-12.581-28.013-33.972-58.818-63.895-92.608-90.158l-1.308-0.978c-49.326-40.263-112.446-65.338-181.35-67.33l-0.434-0.010c-69.333 1.987-132.453 27.045-182.331 67.723l0.547-0.432c-35.099 27.241-65.904 57.163-93.127 90.151l-0.789 0.985c-3.17 3.755-8.29 10.581-9.752 12.581-4.82 6.312-7.723 14.313-7.723 22.991s2.903 16.679 7.791 23.084l-0.068-0.092c1.512 1.999 6.632 8.826 9.752 12.581 28.012 33.953 58.816 63.86 92.604 90.107l1.311 0.98c49.331 40.246 112.451 65.304 181.353 67.282l0.431 0.010c69.333-1.987 132.453-27.045 182.331-67.723l-0.547 0.432c35.1-27.241 65.904-57.164 93.127-90.152l0.789-0.984c3.17-3.755 8.29-10.581 9.752-12.581 4.82-6.312 7.723-14.313 7.723-22.991s-2.903-16.679-7.791-23.084l0.068 0.092zM878.836 130.072c-67.584 75.678-133.705 114.005-196.852 114.005s-129.268-38.327-196.852-114.005c67.584-75.678 133.705-114.005 196.852-114.005s129.268 38.327 196.852 114.005zM684.13 206.092c-0.694 0.022-1.51 0.035-2.329 0.035-42.486 0-77.084-33.77-78.418-75.932l-0.003-0.122c1.337-42.285 35.935-76.054 78.421-76.054 0.819 0 1.635 0.013 2.448 0.037l-0.119-0.003c0.694-0.022 1.51-0.035 2.329-0.035 42.486 0 77.084 33.77 78.418 75.932l0.003 0.122c-1.337 42.285-35.935 76.054-78.421 76.054-0.819 0-1.635-0.013-2.448-0.037l0.119 0.003z" />
<glyph unicode="&#xe917;" glyph-name="edit" d="M876.308 315.077h-14.769v-4.923c-14.769-4.923-24.615-19.692-24.615-34.462v-206.769c0-29.538-24.615-54.154-54.154-54.154h-649.846c-29.538 0-54.154 24.615-54.154 54.154v605.538c0 29.538 24.615 54.154 54.154 54.154h206.769c0 0 0 0 0 0 9.846 0 19.692 4.923 24.615 9.846s9.846 14.769 9.846 24.615c0 19.692-14.769 39.385-39.385 39.385h-201.846c-73.846 4.923-132.923-54.154-132.923-128v-605.538c0-73.846 59.077-132.923 132.923-132.923h654.769c73.846 0 132.923 59.077 132.923 132.923v206.769c-4.923 19.692-19.692 39.385-44.308 39.385zM974.769 886.154l-29.538 29.538c-49.231 49.231-132.923 49.231-182.154 0l-448-448c-4.923-4.923-9.846-9.846-9.846-19.692l-59.077-216.615c-4.923-19.692 4.923-44.308 29.538-49.231 4.923 0 4.923 0 9.846 0s4.923 0 9.846 0l211.692 59.077c4.923 0 14.769 4.923 19.692 9.846l448 448c54.154 54.154 54.154 137.846 0 187.077zM423.385 300.308l-78.769-19.692 24.615 83.692 54.154-64zM846.769 689.231l-349.538-349.538-98.462 98.462 349.538 349.538 98.462-98.462zM910.769 753.231l-9.846-9.846-98.462 98.462 14.769 14.769c19.692 19.692 49.231 19.692 68.923 0l29.538-29.538c19.692-19.692 19.692-49.231 0-68.923l-4.923-4.923z" />
<glyph unicode="&#xe918;" glyph-name="trash" horiz-adv-x="975" d="M933.986 726.089h-45.544l-67.974-753.518c-2.078-20.615-19.34-36.572-40.328-36.572-0.085 0-0.17 0-0.255 0.001h-585.959c-0.082-0.001-0.178-0.001-0.275-0.001-21.057 0-38.393 15.927-40.621 36.391l-0.016 0.182-67.584 753.518h-44.471c-0.417-0.016-0.907-0.024-1.399-0.024-22.164 0-40.131 17.967-40.131 40.131s17.967 40.131 40.131 40.131c0.492 0 0.982-0.009 1.469-0.026l-0.071 0.002h244.443v86.894c0.466 36.996 30.566 66.807 67.628 66.807 0.225 0 0.449-0.001 0.673-0.003h267.864c0.132 0.001 0.287 0.001 0.443 0.001 37.042 0 67.119-29.822 67.531-66.766v-86.933h244.443c0.417 0.016 0.907 0.024 1.399 0.024 22.164 0 40.131-17.967 40.131-40.131s-17.967-40.131-40.131-40.131c-0.492 0-0.982 0.009-1.469 0.026l0.071-0.002zM607.72 879.787h-240.152v-73.533h240.152zM167.595 726.089l63.683-709.876h510.927l63.683 709.876zM628.346 133.876c-21.915 0.427-39.517 18.293-39.517 40.27 0 0.448 0.007 0.895 0.022 1.34l-0.002-0.065 14.629 394.386c1.182 21.59 18.977 38.65 40.756 38.65 0.552 0 1.101-0.011 1.648-0.033l-0.078 0.002c21.915-0.427 39.517-18.293 39.517-40.27 0-0.448-0.007-0.895-0.022-1.34l0.002 0.065-14.629-394.386c-1.049-21.595-18.813-38.706-40.574-38.706-0.616 0-1.229 0.014-1.838 0.041l0.087-0.003zM487.424 133.876c-0.088-0.001-0.192-0.001-0.296-0.001-22.245 0-40.313 17.882-40.615 40.055v394.366c0 22.595 18.317 40.911 40.911 40.911s40.911-18.317 40.911-40.911v0-394.338c-0.136-22.195-18.16-40.135-40.374-40.135-0.189 0-0.377 0.001-0.566 0.004h0.029zM346.892 133.876c-0.607-0.033-1.318-0.051-2.033-0.051-21.689 0-39.379 17.123-40.289 38.588l-0.003 0.082-14.921 394.435c0 0.031 0 0.067 0 0.103 0 22.622 18.338 40.96 40.96 40.96 21.628 0 39.341-16.763 40.855-38.006l0.007-0.131 14.97-394.435c0.006-0.264 0.010-0.576 0.010-0.888 0-22.138-17.689-40.144-39.703-40.656l-0.048-0.001z" />
<glyph unicode="&#xe919;" glyph-name="check" horiz-adv-x="959" d="M740.93 371.273c-120.197 0-217.637-97.439-217.637-217.637s97.439-217.637 217.637-217.637c120.197 0 217.637 97.439 217.637 217.637 0 0.015 0 0.030 0 0.045v-0.002c-0.024 120.179-97.454 217.594-217.637 217.594v0zM694.118 19.71l-116.125 116.383 45.648 45.26 70.433-70.433 153.669 153.497 45.562-45.691zM60.347 55.961v615.969h227.723v227.723h431.049v-497.474c7.242 0.603 14.354 1.078 21.552 1.078 13.761-0.084 27.189-1.226 40.287-3.346l-1.493 0.199v559.89h-529.716l-249.75-263.63v-700.756h547.432c-14.288 17.387-26.492 37.278-35.761 58.735l-0.62 1.612zM227.723 849.091v-116.771h-110.65zM132.504 502.528h510.707v-67.933h-510.707v67.933zM613.943 368.428h-481.439v-67.933h406.738c20.192 27.406 45.039 50.095 73.567 67.299l1.134 0.634zM132.504 160.275h358.848c0.592 24.423 4.568 47.698 11.475 69.675l-0.484-1.784h-369.84z" />
<glyph unicode="&#xe91a;" glyph-name="stop" d="M512 960c-283.927 0-512-228.073-512-512s228.073-512 512-512 512 228.073 512 512c0 283.927-228.073 512-512 512zM512 38.4c-228.073 0-409.6 181.527-409.6 409.6s181.527 409.6 409.6 409.6c228.073 0 409.6-181.527 409.6-409.6s-181.527-409.6-409.6-409.6zM651.636 634.182h-279.273c-27.927 0-46.545-18.618-46.545-46.545v-279.273c0-27.927 18.618-46.545 46.545-46.545h279.273c27.927 0 46.545 18.618 46.545 46.545v279.273c0 27.927-18.618 46.545-46.545 46.545z" />
<glyph unicode="&#xe91b;" glyph-name="play" d="M512 960c-283.927 0-512-228.073-512-512s228.073-512 512-512 512 228.073 512 512c0 283.927-228.073 512-512 512zM512 38.4c-228.073 0-409.6 181.527-409.6 409.6s181.527 409.6 409.6 409.6c228.073 0 409.6-181.527 409.6-409.6s-181.527-409.6-409.6-409.6zM372.364 215.273l372.364 232.727-372.364 232.727z" />
<glyph unicode="&#xe91c;" glyph-name="verify" horiz-adv-x="1238" d="M283.34 547.417h233.631c19.883 0 29.825 14.913 29.825 29.825s-14.913 29.825-29.825 29.825h-233.631c-19.883 0-29.825-14.913-29.825-29.825 0-19.883 14.913-29.825 29.825-29.825zM283.34 373.437h233.631c19.883 0 29.825 14.913 29.825 29.825 0 19.883-14.913 29.825-29.825 29.825h-233.631c0 0 0 0 0 0-19.883 0-29.825-14.913-29.825-29.825 0-19.883 14.913-29.825 29.825-29.825zM606.447 259.107h-318.136c0 0 0 0 0 0-9.942 0-14.913-4.971-19.883-9.942s-9.942-14.913-9.942-24.854c0-14.913 14.913-29.825 29.825-29.825v0h318.136c0 0 0 0 0 0 9.942 0 14.913 4.971 19.883 9.942s9.942 14.913 9.942 24.854c0 9.942-4.971 14.913-9.942 24.854s-9.942 4.971-19.883 4.971zM288.311 721.398h412.583c0 0 0 0 0 0 14.913 0 29.825 14.913 29.825 29.825 0 19.883-14.913 29.825-29.825 29.825h-412.583c0 0 0 0 0 0-14.913 0-29.825-14.913-29.825-29.825 0-19.883 14.913-29.825 29.825-29.825zM1222.835 70.214v0l-144.155 183.922c-9.942 9.942-19.883 14.913-29.825 14.913 0 0 0 0 0 0l-39.767 49.709c54.68 84.505 49.709 198.835-14.913 278.369-24.854 29.825-54.68 54.68-89.476 69.592v19.883h114.33c19.883 0 39.767 19.883 39.767 39.767v119.301c0 59.65-44.738 114.33-109.359 114.33h-477.204c0 0 0 0 0 0h-228.66c0 0 0 0 0 0-64.621 0-119.301-49.709-119.301-114.33v-725.748h-84.505c-19.883 0-39.767-14.913-39.767-39.767v-34.796c0-64.621 54.68-114.33 114.33-114.33 0 0 0 0 0 0h671.068c0 0 0 0 0 0 64.621 0 114.33 49.709 114.33 114.33v164.039c0 0 0 0 0 0v19.883c4.971 0 4.971 4.971 9.942 4.971l39.767-49.709c0-14.913 0-24.854 9.942-34.796l144.155-183.922c9.942-9.942 19.883-14.913 34.796-14.913 9.942 0 19.883 4.971 29.825 9.942l44.738 39.767c24.854 24.854 24.854 49.709 9.942 69.592zM671.068 0.621h-556.738c0 0 0 0 0 0-24.854 0-49.709 19.883-49.709 49.709v9.942h596.505v-9.942c0-14.913 4.971-34.796 9.942-49.709zM685.981 124.893h-497.087v720.777c0 24.854 24.854 49.709 49.709 49.709 0 0 0 0 0 0h233.631c0 0 0 0 0 0s0 0 0 0h377.786c-4.971-14.913-9.942-29.825-9.942-44.738v-169.010c-59.65 4.971-114.33-14.913-159.068-54.68s-74.563-94.447-79.534-159.068c-4.971-59.65 9.942-119.301 49.709-169.010 34.796-44.738 89.476-79.534 149.126-84.505 9.942 0 24.854 0 34.796 0 0-4.971 0-4.971 0-9.942v-159.068c0-24.854-24.854-49.709-49.709-49.709 0 0 0 0 0 0h-9.942c0 0 0 0 0 0-24.854 0-49.709 19.883-49.709 49.709v34.796c4.971 24.854-14.913 44.738-39.767 44.738zM705.864 343.612c-29.825 34.796-39.767 79.534-34.796 124.272s24.854 84.505 54.68 114.33c29.825 24.854 64.621 39.767 99.417 39.767 49.709 0 89.476-19.883 119.301-59.65 29.825-34.796 39.767-79.534 34.796-124.272s-24.854-84.505-54.68-114.33c-29.825-29.825-74.563-39.767-114.33-39.767-39.767 4.971-79.534 24.854-104.388 59.65zM939.495 895.379c0 0 4.971 0 0 0h4.971c24.854 0 44.738-24.854 44.738-49.709v-94.447h-89.476v99.417c4.971 19.883 19.883 39.767 39.767 44.738zM1043.883 199.456l119.301-154.097-19.883-19.883-119.301 154.097 19.883 19.883z" />
<glyph unicode="&#xe91d;" glyph-name="duplicate" horiz-adv-x="898" d="M670.897 960h-378.325c-70.621-5.044-126.108-55.488-136.197-126.108h-30.266c-70.621-5.044-126.108-60.532-126.108-131.153v-630.542c5.044-70.621 60.532-131.153 131.153-131.153h474.167c70.621 5.044 126.108 55.488 131.153 126.108h25.222c70.621 5.044 131.153 60.532 131.153 131.153v504.433l-221.951 257.261zM292.571 62.108h368.236c-5.044-25.222-25.222-45.399-55.488-45.399h-474.167c-30.266 0-55.488 25.222-55.488 55.488v625.498c0 30.266 25.222 55.488 50.443 55.488h25.222v-559.921c10.089-70.621 65.576-126.108 141.241-131.153zM237.084 823.803c0 30.266 25.222 55.488 55.488 55.488h307.704c0-70.621 0-121.064 0-121.064 0-70.621 60.532-131.153 136.197-131.153h85.754v-433.813c0-30.266-25.222-55.488-55.488-55.488h-474.167c-30.266 0-55.488 25.222-55.488 55.488v630.542zM731.429 707.783c-25.222 0-55.488 55.488-55.488 85.754v75.665l136.197-161.419h-80.709zM383.369 284.059h282.483c20.177 0 40.355 15.133 40.355 40.355 0 20.177-15.133 40.355-40.355 40.355h-282.483c-20.177 0-40.355-15.133-40.355-40.355 5.044-25.222 20.177-40.355 40.355-40.355zM383.369 440.433h282.483c20.177 0 40.355 15.133 40.355 40.355s-15.133 40.355-40.355 40.355h-282.483c-20.177 0-40.355-15.133-40.355-40.355s20.177-40.355 40.355-40.355z" />
<glyph unicode="&#xe91e;" glyph-name="export" horiz-adv-x="1153" d="M937.522-64h-722.040c-118.967 0.145-215.367 96.562-215.483 215.522v498.531c0.116 118.971 96.515 215.389 215.469 215.533h239.71c26.783-0.884 48.16-22.808 48.16-49.725s-21.376-48.841-48.079-49.723l-0.081-0.002h-239.493c-64.048-0.087-115.946-51.985-116.033-116.025v-498.528c0.087-64.048 51.985-115.946 116.025-116.033h722.048c64.048 0.087 115.946 51.985 116.033 116.025v207.25c-0.016 0.474-0.025 1.031-0.025 1.591 0 27.476 22.274 49.75 49.75 49.75s49.75-22.274 49.75-49.75c0-0.559-0.009-1.117-0.028-1.671l0.002 0.081v-207.242c-0.087-119.065-96.613-215.555-215.683-215.584h-0.003zM372.058 259.224c-27.449 0.036-49.688 22.296-49.688 49.75 0 8.932 2.354 17.315 6.476 24.561l-0.129-0.246c9.207 16.431 230.438 402.733 654.231 439.664 1.683 0.202 3.632 0.317 5.608 0.317 27.476 0 49.75-22.274 49.75-49.75 0-26.425-20.602-48.038-46.619-49.653l-0.142-0.007c-371.957-32.404-574.061-385.641-576.045-389.201-8.673-15.288-24.838-25.435-43.373-25.435-0.024 0-0.049 0-0.073 0h0.004zM906.746 400.132c-27.452 0.033-49.693 22.294-49.693 49.75 0 8.525 2.144 16.549 5.923 23.563l-0.13-0.265 124.986 235.678-218.128 161.358c-12.845 9.119-21.125 23.938-21.125 40.69 0 27.476 22.274 49.75 49.75 49.75 11.559 0 22.198-3.942 30.645-10.556l-0.109 0.082 252.515-186.792c12.284-9.154 20.155-23.64 20.155-39.964 0-8.533-2.151-16.565-5.94-23.581l0.13 0.264-145.029-273.525c-8.529-15.854-25.002-26.449-43.951-26.452v0z" />
<glyph unicode="&#xe92b;" glyph-name="angle-left-double" horiz-adv-x="1173" d="M1056.362-33.827c-23.45 0-39.084 7.817-54.718 23.45l-453.374 461.191 453.374 453.374c31.267 31.267 78.168 31.267 109.435 0s31.267-78.168 0-109.435l-343.939-343.939 343.939-343.939c31.267-31.267 31.267-78.168 0-109.435-15.634-23.45-31.267-31.267-54.718-31.267zM509.186-33.827c-23.45 0-39.084 7.817-54.718 23.45l-453.374 453.374 453.374 453.374c31.267 31.267 78.168 31.267 109.435 0s31.267-78.168 0-109.435l-343.939-336.122 343.939-343.939c31.267-31.267 31.267-78.168 0-109.435-15.634-23.45-31.267-31.267-54.718-31.267z" />
<glyph unicode="&#xe92c;" glyph-name="angle-left" horiz-adv-x="625" d="M508.092-32.733c-23.45 0-39.084 7.817-54.718 23.45l-453.374 461.191 453.374 453.374c31.267 31.267 78.168 31.267 109.435 0s31.267-78.168 0-109.435l-343.939-343.939 351.756-351.756c31.267-31.267 31.267-78.168 0-109.435-15.634-15.634-39.084-23.45-62.534-23.45z" />
<glyph unicode="&#xe92d;" glyph-name="angle-right" horiz-adv-x="625" d="M109.435-32.733c-23.45 0-39.084 7.817-54.718 23.45-31.267 31.267-31.267 78.168 0 109.435l343.939 343.939-343.939 351.756c-31.267 31.267-31.267 78.168 0 109.435s78.168 31.267 109.435 0l461.191-453.374-453.374-453.374c-23.45-23.45-39.084-31.267-62.534-31.267z" />
<glyph unicode="&#xe92e;" glyph-name="angle-right-double" horiz-adv-x="1173" d="M110.529-33.827c-23.45 0-39.084 7.817-54.718 23.45-31.267 31.267-31.267 78.168 0 109.435l343.939 343.939-343.939 343.939c-31.267 31.267-31.267 78.168 0 109.435s78.168 31.267 109.435 0l453.374-453.374-453.374-453.374c-15.634-15.634-31.267-23.45-54.718-23.45zM657.705-33.827c-23.45 0-39.084 7.817-54.718 23.45-31.267 31.267-31.267 78.168 0 109.435l343.939 343.939-343.939 343.939c-31.267 31.267-31.267 78.168 0 109.435s78.168 31.267 109.435 0l453.374-453.374-453.374-453.374c-15.634-15.634-31.267-23.45-54.718-23.45z" />
</font>
</defs>
</svg>
