<?xml version="1.0" encoding="utf-8"?>
<!-- Generator: Adobe Illustrator 23.0.3, SVG Export Plug-In . SVG Version: 6.00 Build 0)  -->
<svg version="1.1" id="圖層_1" xmlns="http://www.w3.org/2000/svg" xmlns:xlink="http://www.w3.org/1999/xlink" x="0px" y="0px"
	 viewBox="0 0 40 339.26" style="enable-background:new 0 0 40 339.26;" xml:space="preserve">
<style type="text/css">
	.st0{fill:#3D66A1;}
	.st1{fill:#FFE681;}
	.st2{fill:#C5C5C5;}
	.st3{fill:#FFFFFF;}
	.st4{fill:#3D66A1;stroke:#3D66A1;stroke-miterlimit:10;}
</style>
<g id="icon" transform="translate(-1830.913 408)">
	<path id="Path_270" class="st0" d="M1866.57-390.67h-2.81c-0.02-0.09-0.03-0.17-0.05-0.26c-1.41-6.76-7.36-11.62-14.27-11.63
		c-8.04,0.01-14.56,6.52-14.57,14.57c0.01,8.04,6.53,14.56,14.57,14.57c5.15-0.01,9.91-2.73,12.54-7.15
		c0.24-0.41,0.11-0.94-0.3-1.19c-0.41-0.24-0.94-0.11-1.19,0.3c-2.32,3.9-6.52,6.29-11.05,6.3c-7.08-0.01-12.82-5.75-12.83-12.83
		c0.01-7.08,5.75-12.82,12.83-12.83c6.05,0.01,11.28,4.24,12.55,10.16h-2.82c-0.22,0-0.39,0.18-0.39,0.39
		c0,0.08,0.03,0.16,0.08,0.23l3.79,5.13c0.13,0.17,0.37,0.21,0.55,0.08c0.03-0.02,0.06-0.05,0.09-0.09l3.61-5.13
		c0.12-0.18,0.07-0.42-0.11-0.54C1866.72-390.65,1866.64-390.67,1866.57-390.67z"/>
	<path id="Path_271" class="st0" d="M1846.72-387.53c0,1.5,1.22,2.72,2.72,2.72c0.77,0,1.5-0.33,2.01-0.89
		c0.07,0.12,0.17,0.21,0.28,0.28l4.11,2.52c0.14,0.08,0.29,0.13,0.45,0.13c0.3,0,0.58-0.16,0.74-0.42c0.25-0.41,0.12-0.94-0.29-1.19
		l-4.11-2.52c-0.16-0.1-0.34-0.14-0.53-0.12c0.03-0.17,0.05-0.34,0.05-0.51c0-1.23-0.83-2.31-2.03-2.63
		c0.11-0.15,0.18-0.33,0.18-0.52V-398c0-0.48-0.39-0.87-0.87-0.87c-0.48,0-0.87,0.39-0.87,0.87v7.33c0,0.19,0.06,0.37,0.18,0.52
		C1847.55-389.84,1846.72-388.76,1846.72-387.53z M1849.44-389.55c1.12,0,2.02,0.91,2.03,2.02c0,1.12-0.91,2.02-2.03,2.02
		c-1.12,0-2.02-0.91-2.03-2.02C1847.41-388.65,1848.32-389.55,1849.44-389.55L1849.44-389.55z"/>
</g>
<g id="icon_1_" transform="translate(-893.365 420.572)">
	<rect id="Rectangle_66" x="899.44" y="-364.06" class="st0" width="5.76" height="14.5"/>
	<path id="Path_1690" class="st0" d="M927.23-359.18c0,0,0.89-5.47-3.98-5.3c-2.22,0.12-4.45,0.12-6.68,0c0,0,3.92-6.87,0.32-8.01
		c0,0-0.47-0.51-1.86,0.72s-7.5,6.53-7.33,7.84v11.95c0,0-0.19,3.43,3.16,3.43h9.33c1.02,0,1.99-0.44,2.65-1.21
		c0.74-0.91,1.41-1.88,1.98-2.9C927.7-357.61,927.23-359.19,927.23-359.18"/>
</g>
<g id="Group_615" transform="translate(-37.21 -393.646)">
	<path id="Path_1609" class="st1" d="M69.62,506.99L69.62,506.99z"/>
	<path id="Path_1617" class="st2" d="M72.48,482.64H43.76c-1.62,0-2.93,1.31-2.93,2.93v15.2c0,1.62,1.31,2.93,2.93,2.93h28.72
		c1.62,0,2.93-1.31,2.93-2.93v-15.2C75.41,483.95,74.1,482.64,72.48,482.64z M51.05,496.93l-2.44-1.29l-2.44,1.29l0.47-2.72
		l-1.98-1.93l2.73-0.4l1.22-2.48l1.22,2.48l2.73,0.4l-1.98,1.93L51.05,496.93z M60.57,496.93l-2.44-1.29l-2.44,1.29l0.47-2.72
		l-1.98-1.93l2.73-0.4l1.22-2.48l1.22,2.48l2.73,0.4l-1.98,1.93L60.57,496.93z M70.08,496.93l-2.44-1.29l-2.44,1.29l0.47-2.72
		l-1.98-1.93l2.73-0.4l1.22-2.48l1.22,2.48l2.73,0.4l-1.98,1.93L70.08,496.93z"/>
	<g id="Group_563" transform="translate(37.21 393.646)">
		<path id="Path_171" class="st0" d="M12.86,95.99c0,0,0.01,0,0.01,0c0,0,0-0.01,0.01-0.01L12.86,95.99z"/>
		<path id="Path_172" class="st0" d="M35.27,88.99H6.55c-1.62,0-2.93,1.31-2.93,2.93v15.2c0,1.62,1.31,2.93,2.93,2.93h28.72
			c1.62,0,2.93-1.31,2.93-2.93v-15.2C38.2,90.31,36.89,89,35.27,88.99z M33.2,102.22c-0.38,0.51-1.06,0.71-1.66,0.47
			c-0.09-0.04-0.19-0.04-0.27,0c-0.41,0.2-0.9,0.18-1.29-0.05c-0.1-0.06-0.16-0.05-0.22,0.04c-0.41,0.64-1.26,0.82-1.9,0.41
			c-0.02-0.02-0.05-0.03-0.07-0.05c-0.13-0.09-0.17-0.01-0.22,0.07c-0.19,0.32-0.42,0.62-0.68,0.89c-0.47,0.5-1.27,0.53-1.77,0.05
			c-0.01-0.01-0.02-0.02-0.04-0.04c-0.11-0.1-0.15-0.09-0.23,0.03c-0.39,0.64-1.23,0.84-1.87,0.45c-0.16-0.1-0.3-0.23-0.4-0.38
			c-0.08-0.1-0.13-0.09-0.21-0.03c-0.16,0.12-0.36,0.2-0.56,0.21c-0.24,0.03-0.48,0.11-0.69,0.23c-0.78,0.38-1.66,0.5-2.51,0.35
			c-0.41-0.07-0.77-0.34-0.94-0.72c-0.03-0.09-0.11-0.14-0.2-0.13c-0.35,0.02-0.69-0.11-0.94-0.35c-0.06-0.06-0.15-0.08-0.23-0.05
			c-0.43,0.09-0.88-0.04-1.2-0.34c-0.11-0.1-0.13-0.01-0.17,0.06c-0.18,0.32-0.35,0.64-0.55,0.95c-0.29,0.58-1,0.8-1.58,0.51
			c-0.08-0.04-0.16-0.09-0.23-0.16c-0.08-0.08-0.2-0.1-0.3-0.04c-0.35,0.17-0.76,0.16-1.1-0.03c-0.12-0.07-0.26-0.07-0.38-0.01
			c-0.56,0.28-1.25,0.12-1.63-0.39c-0.08-0.13-0.18-0.06-0.27-0.03c-0.75,0.22-1.54-0.21-1.77-0.96c-0.03-0.12-0.05-0.23-0.06-0.35
			c-0.01-0.55,0.05-1.09,0.16-1.62c0.27-1.09,0.61-2.17,1-3.22c0.33-0.91,0.52-1.86,0.57-2.82c0.02-0.58,0.44-1.06,1.01-1.15
			c0.61-0.17,1.25,0.13,1.51,0.71c0.01,0.03,0.03,0.05,0.05,0.09c0.14-0.21,0.33-0.39,0.56-0.52c0.45-0.24,1.01-0.19,1.42,0.12
			c0.39,0.27,0.58,0.76,0.48,1.22c-0.04,0.23-0.09,0.46-0.14,0.7c0.29-0.31,0.57-0.63,0.86-0.93c0.45-0.46,1.16-0.55,1.71-0.22
			c0.37,0.24,0.59,0.66,0.56,1.1c0.01,0.11-0.06,0.26,0.06,0.3s0.21-0.08,0.3-0.16c0.47-0.49,1.23-0.53,1.75-0.1
			c0.16,0.12,0.23,0,0.32-0.07c0.39-0.35,0.9-0.53,1.42-0.49c0.51,0.03,1.01,0.11,1.5,0.25c0.43,0.1,0.84,0.28,1.21,0.51
			c0.22,0.12,0.39,0.31,0.5,0.53c0.02,0.05,0.04,0.13,0.12,0.07c0.19-0.13,0.42-0.2,0.56-0.4c0.41-0.57,1.2-0.7,1.77-0.3
			c0.05,0.03,0.09,0.07,0.14,0.11c0.1,0.13,0.28,0.15,0.41,0.05c0,0,0,0,0.01,0c0.58-0.37,1.36-0.19,1.72,0.4c0,0,0,0.01,0.01,0.01
			c0.07,0.1,0.12,0.11,0.23,0.06c0.63-0.33,1.41-0.08,1.74,0.55c0.06,0.12,0.11,0.26,0.13,0.4c0.02,0.19,0.13,0.36,0.29,0.46
			c0.21,0.14,0.36,0.34,0.43,0.58c0.03,0.12,0.12,0.21,0.24,0.24c0.2,0.06,0.37,0.18,0.49,0.34c0.27,0.37,0.6,0.69,0.88,1.04
			C33.51,101.08,33.56,101.75,33.2,102.22L33.2,102.22z"/>
	</g>
</g>
<path id="Path_1618" class="st0" d="M35.1,147.49l0.04-8.68c0.01-1.62-1.3-2.94-2.93-2.95l-0.57,0l0.02-4.3c0-1.25-1-2.26-2.25-2.27
	l-23.78-0.11c-1.25,0-2.26,1-2.27,2.25l-0.07,14.93c0,1.25,1,2.26,2.25,2.27l23.78,0.11c1.25,0,2.26-1,2.27-2.25l0.04-9.27l0.57,0
	c0.87,0.01,1.58,0.72,1.58,1.59l-0.04,8.68c-1.2,0.3-2.04,1.38-2.05,2.62c0,1.24,0.83,2.32,2.02,2.63c0.22,0.06,0.45,0.09,0.68,0.09
	c0.23,0,0.46-0.03,0.68-0.09c1.2-0.3,2.04-1.38,2.05-2.62C37.13,148.89,36.3,147.81,35.1,147.49z M12.5,135.85
	c0,0.05-0.03,0.1-0.07,0.12c-0.88,0.48-1.52,1.32-1.75,2.29c-0.41,1.04-0.62,2.14-0.64,3.25c-0.01,0.28,0.02,0.57,0.09,0.84
	c0.06-0.02,0.12-0.04,0.19-0.05c0.13-0.03,0.26-0.05,0.39-0.05c0.1,0,0.21,0.01,0.31,0.03c0.14,0.03,0.2,0.08,0.17,0.14
	c-0.03,0.08-0.12,0.42-0.25,1.01c-0.46-0.07-0.92-0.1-1.39-0.11c-0.88,0.02-1.75,0.16-2.59,0.42c-0.02,0-0.03,0.01-0.05,0.01
	c-0.03,0.01-0.05,0-0.06-0.01c-0.01-0.02-0.02-0.05-0.01-0.07c0.06-1.45,0.41-2.88,1.02-4.2c0.58-1.33,1.51-2.48,2.69-3.34
	l-2.64,0.09c-0.51-0.03-1.02,0.11-1.43,0.41c-0.08,0.09-0.12,0.21-0.12,0.33c0.02,0.17,0.05,0.33,0.11,0.49
	c0.06,0.19,0.1,0.4,0.11,0.6c0,0.13-0.02,0.25-0.05,0.37c-0.03,0.09-0.2,0.17-0.52,0.25c-0.27,0.07-0.54,0.11-0.82,0.11
	c-0.02,0-0.03,0-0.05-0.01l-0.04-0.01c0.01-0.12,0.01-0.3,0.01-0.55c0-0.52-0.02-1.04-0.06-1.55c-0.03-0.42-0.09-0.86-0.17-1.33
	c0-0.04,0.02-0.07,0.05-0.08c0.05-0.02,0.1-0.03,0.15-0.03c1.65,0.03,3.28,0.05,4.89,0.05c1.04,0,1.82,0,2.33,0l0.07,0l0.07,0
	c0.06,0,0.1,0.02,0.1,0.06L12.5,135.85z M21.32,135.89c0,0.05-0.03,0.1-0.08,0.12c-0.88,0.48-1.52,1.32-1.75,2.29
	c-0.41,1.04-0.62,2.14-0.64,3.25c-0.01,0.28,0.02,0.57,0.09,0.84c0.06-0.02,0.12-0.04,0.19-0.05c0.13-0.03,0.26-0.05,0.39-0.05
	c0.1,0,0.21,0.01,0.31,0.03c0.14,0.03,0.2,0.08,0.17,0.14c-0.03,0.08-0.11,0.42-0.25,1.01c-0.46-0.07-0.92-0.1-1.39-0.11
	c-0.88,0.02-1.75,0.16-2.59,0.42c-0.02,0-0.03,0.01-0.05,0.01c-0.03,0.01-0.05,0-0.06-0.01c-0.01-0.02-0.02-0.05-0.01-0.07
	c0.06-1.45,0.41-2.88,1.02-4.2c0.58-1.33,1.51-2.48,2.69-3.34l-2.64,0.09c-0.51-0.03-1.02,0.11-1.43,0.41
	c-0.08,0.09-0.12,0.21-0.12,0.33c0.02,0.17,0.05,0.33,0.11,0.49c0.06,0.19,0.1,0.4,0.11,0.6c0,0.13-0.02,0.25-0.05,0.37
	c-0.03,0.09-0.2,0.17-0.52,0.25c-0.27,0.07-0.54,0.11-0.82,0.11c-0.02,0-0.03,0-0.05-0.01l-0.04-0.01c0.01-0.12,0.01-0.3,0.01-0.55
	c0-0.52-0.02-1.04-0.06-1.55c-0.03-0.42-0.09-0.86-0.17-1.33c0-0.04,0.02-0.07,0.05-0.08c0.05-0.02,0.1-0.03,0.15-0.03
	c1.65,0.03,3.28,0.05,4.89,0.05c1.04,0,1.82,0,2.33,0l0.07,0l0.07,0c0.06,0,0.1,0.02,0.1,0.06L21.32,135.89z M30.14,135.93
	c0,0.05-0.03,0.1-0.07,0.12c-0.88,0.48-1.52,1.32-1.75,2.29c-0.41,1.04-0.62,2.14-0.64,3.25c-0.01,0.28,0.02,0.57,0.09,0.84
	c0.06-0.02,0.12-0.04,0.19-0.05c0.13-0.03,0.26-0.05,0.39-0.05c0.1,0,0.21,0.01,0.31,0.03c0.14,0.03,0.2,0.08,0.17,0.14
	c-0.03,0.08-0.11,0.42-0.25,1.01c-0.46-0.07-0.92-0.1-1.39-0.11c-0.88,0.02-1.75,0.16-2.59,0.42c-0.02,0-0.03,0.01-0.05,0.01
	c-0.03,0.01-0.05,0-0.06-0.01c-0.01-0.02-0.02-0.05-0.01-0.07c0.06-1.45,0.41-2.88,1.02-4.2c0.58-1.33,1.51-2.48,2.69-3.34
	l-2.64,0.09c-0.51-0.03-1.02,0.11-1.43,0.41c-0.08,0.09-0.12,0.21-0.12,0.33c0.02,0.17,0.05,0.33,0.11,0.49
	c0.06,0.19,0.1,0.4,0.11,0.6c0,0.13-0.02,0.25-0.05,0.37c-0.03,0.09-0.2,0.17-0.52,0.25c-0.27,0.07-0.54,0.11-0.82,0.11
	c-0.02,0-0.03,0-0.05-0.01l-0.04-0.01c0.01-0.12,0.01-0.3,0.01-0.55c0-0.52-0.02-1.04-0.06-1.55c-0.03-0.42-0.09-0.86-0.17-1.33
	c0-0.04,0.02-0.07,0.05-0.08c0.05-0.02,0.1-0.03,0.15-0.03c1.65,0.03,3.28,0.05,4.89,0.05c1.04,0,1.82,0,2.33,0l0.07,0l0.07,0
	c0.06,0,0.1,0.02,0.1,0.06L30.14,135.93z M35.09,151.79c-0.22,0.09-0.45,0.13-0.68,0.13c-0.23,0-0.46-0.05-0.68-0.14
	c-0.68-0.28-1.13-0.94-1.12-1.68c0-0.74,0.45-1.4,1.14-1.67c0.22-0.09,0.45-0.13,0.68-0.13c0.23,0,0.46,0.05,0.68,0.14
	c0.68,0.28,1.13,0.94,1.12,1.68C36.22,150.86,35.77,151.52,35.09,151.79L35.09,151.79z"/>
<g id="Group_560" transform="translate(-34.253 -461.804)">
	<path id="Path_279" class="st0" d="M54.74,642.83l-2.56,0.25l-1.51,3.6l3.1,3.33l3.44-1.77l0.42-2.52L54.74,642.83z"/>
	<path id="Path_280" class="st0" d="M60.74,639.27l2.12-1.82l-0.98-4.15l0.04-0.03l-4.7-0.69l-1.46,3.49l1.15,2.58L60.74,639.27z"/>
	<path id="Path_281" class="st0" d="M57.39,632.22l5.06,0.74l1.39-0.84c-1.66-0.94-3.54-1.44-5.46-1.44c-0.8,0-1.59,0.09-2.37,0.26
		l1.4,1.21L57.39,632.22z"/>
	<path id="Path_282" class="st0" d="M67.55,637.83l0.67,5.18l1.04,1.15c0.17-0.77,0.25-1.56,0.25-2.35c0-1.88-0.47-3.72-1.38-5.36
		L67.55,637.83z"/>
	<path id="Path_283" class="st0" d="M64.24,648.98l-0.44-4.17l-2.16-0.93l-3.62,1.85l-0.42,2.55l2.81,2.81L64.24,648.98z"/>
	<path id="Path_284" class="st0" d="M58.38,628.36c-6.13,0-11.49,4.15-13.02,10.08c-0.13-0.52-0.48-0.97-0.95-1.23
		c-0.13-0.07-0.28-0.11-0.44-0.11l0,0h-0.91c-1.31,0-2.63,0.01-3.94,0.01h-0.37c-0.04-0.02-0.07-0.03-0.11-0.04
		c-0.09-0.03-0.19-0.05-0.29-0.05H38.1c-0.25,0-0.48,0.1-0.66,0.27l-0.09,0.09c-0.17,0.17-0.27,0.41-0.27,0.65v1.32
		c0,0.29,0.14,0.57,0.38,0.74l0.13,0.1c0.37,0.34,0.85,0.54,1.36,0.56h0.03c0.02,0.04,0.03,0.09,0.04,0.14
		c0.02,0.11,0.05,0.21,0.08,0.29c0.01,0.04,0.03,0.09,0.04,0.13c0.25,1.23,0.5,2.47,0.75,3.7c0.51,2.49,1.02,4.98,1.53,7.46
		c0.09,0.42,0.2,0.83,0.3,1.23c0.05,0.18,0.1,0.35,0.14,0.53c0.1,0.41,0.48,0.7,0.9,0.7h1.14c0.26,0,0.51-0.11,0.68-0.3
		c0.02-0.03,0.05-0.05,0.08-0.08c0.15-0.14,0.29-0.3,0.39-0.48c0.42-0.75,0.83-1.49,1.25-2.24c0.4-0.71,0.8-1.43,1.21-2.16
		c2.53,3.49,6.57,5.55,10.88,5.55c7.42,0,13.44-6.02,13.44-13.44C71.83,634.38,65.81,628.36,58.38,628.36
		C58.38,628.36,58.38,628.36,58.38,628.36z M44.92,640.31c0.04-0.04,0.08-0.08,0.12-0.12c-0.06,0.54-0.1,1.08-0.1,1.62
		c0,1.31,0.19,2.61,0.57,3.87l-0.48,0.87l-0.2-1c-0.32-1.59-0.65-3.22-0.95-4.84C44.25,640.7,44.62,640.56,44.92,640.31
		L44.92,640.31z M47.36,647.68l-0.56,0.96c-0.89,1.55-1.76,3.12-2.62,4.69c-0.18,0.33-0.36,0.49-0.74,0.44
		c-0.22-0.02-0.43-0.02-0.65-0.01c-0.2-1-0.38-1.98-0.58-2.96c-0.13-0.63-0.25-1.26-0.44-2.19c-0.46-2.26-0.98-4.82-1.51-7.38
		c-0.05-0.23-0.13-0.45-0.19-0.67c-0.1-0.52-0.55-0.9-1.08-0.92c-0.76-0.1-0.85-0.26-0.69-1.02c0.02-0.13,0.05-0.25,0.08-0.41h3.82
		c0.51,0,1.03-0.01,1.54,0c0.42,0.01,0.59,0.26,0.56,0.68c-0.03,0.48-0.22,0.69-0.73,0.73c-1.01,0.08-1.02,0.11-0.82,1.13
		c0.56,2.82,1.12,5.64,1.69,8.45c0.01,0.05,0.05,0.16,0.05,0.16s0.04,0.12,0.07,0.2c0.06-0.09,0.11-0.15,0.15-0.2
		c0.43-0.78,0.86-1.56,1.29-2.33l0.99-1.79c0.85-1.54,1.7-3.08,2.55-4.62c0.04-0.07,0.07-0.14,0.1-0.2
		c0.28-0.54,0.23-0.66-0.31-0.75c-0.1-0.02-0.21-0.03-0.34-0.05l-0.08-0.01c-0.17,0-0.34-0.05-0.49-0.14
		c-0.41-0.31-0.14-0.73-0.08-1.09c0.01-0.09,0.33-0.16,0.5-0.17c0.31,0,0.61,0,0.92,0c0.15,0,0.31,0,0.46,0c1.08,0,2.15,0,3.23,0
		c0.5,0,0.65,0.24,0.61,0.75c-0.03,0.48-0.27,0.64-0.7,0.66c-0.78,0.01-1.49,0.44-1.86,1.13c-0.17,0.28-0.33,0.56-0.5,0.83
		c-1.09,1.83-2.19,3.66-3.27,5.5C47.59,647.28,47.48,647.48,47.36,647.68z M69.67,645.59c-0.06,0.18-0.13,0.36-0.2,0.54
		c-0.01,0.03-0.02,0.07-0.04,0.1c-0.07,0.19-0.16,0.37-0.24,0.56c-0.01,0.01-0.02,0.03-0.02,0.05c-0.38,0.82-0.85,1.59-1.41,2.3
		c-0.01,0.01-0.01,0.02-0.02,0.02c-0.14,0.17-0.28,0.34-0.42,0.51c-0.99,1.12-2.17,2.05-3.5,2.73c-1.36,0.7-2.85,1.13-4.38,1.27
		c-0.17,0.02-0.35,0.03-0.52,0.04c-0.17,0.01-0.36,0.01-0.54,0.01c-0.2,0-0.41-0.01-0.61-0.01c-0.11-0.01-0.23-0.02-0.34-0.03
		c-0.09-0.01-0.17-0.01-0.26-0.02c-0.15-0.01-0.29-0.03-0.44-0.05c-0.05-0.01-0.1-0.01-0.14-0.02c-0.17-0.03-0.35-0.06-0.52-0.09
		l-0.06-0.01c-0.19-0.04-0.37-0.08-0.55-0.13c-0.01,0-0.01,0-0.01,0c-2.94-0.74-5.48-2.58-7.11-5.14l0.04-0.07
		c0.14-0.24,0.27-0.47,0.41-0.71c1.14,1.94,2.84,3.49,4.88,4.44l-0.27-1.71l-3.07-3.28l-1.17-0.1l0,0c0.52-0.89,1.05-1.78,1.57-2.65
		c0.36-0.61,0.72-1.22,1.08-1.83l0.41,0.35l2.44-0.23l1.86-3.65l-1.1-2.49l-3.87-0.32l-0.68,1.12h-0.46l0.72-1.19l-0.5-2.1
		c-0.98,0.94-1.77,2.06-2.34,3.28c-0.11,0-0.21,0.03-0.31,0.07c-0.58,0.26-0.94,0.87-0.88,1.51c0,0.04,0,0.09,0,0.11
		c-0.09,0.44,0.01,0.91,0.28,1.27l0,0c-0.04,0.22-0.06,0.44-0.09,0.67l0.49-0.3c0.15,0.09,0.31,0.16,0.48,0.21l-1.66,3.01
		c-0.02-0.15-0.04-0.3-0.06-0.45c0-0.05-0.01-0.1-0.02-0.14c-0.02-0.16-0.03-0.32-0.04-0.48c0-0.05-0.01-0.1-0.01-0.15
		c-0.01-0.21-0.01-0.42-0.01-0.63c0-0.19,0.01-0.38,0.01-0.57c0.15-3.19,1.57-6.18,3.95-8.3c0.16-0.14,0.33-0.28,0.5-0.42
		c0.03-0.02,0.05-0.04,0.08-0.06c0.15-0.12,0.3-0.23,0.45-0.34c0.03-0.02,0.06-0.04,0.09-0.06c0.17-0.12,0.33-0.23,0.51-0.34
		c0.01-0.01,0.02-0.01,0.04-0.02c0.58-0.36,1.19-0.67,1.82-0.92l0.06-0.03c0.19-0.08,0.39-0.15,0.58-0.21
		c0.02-0.01,0.04-0.02,0.07-0.03c1.21-0.4,2.47-0.6,3.75-0.6c2.2,0,4.35,0.6,6.22,1.75c0.19,0.11,0.36,0.23,0.54,0.36l0.1,0.07
		c0.15,0.1,0.29,0.21,0.43,0.32c0.04,0.03,0.07,0.06,0.11,0.09c0.15,0.11,0.29,0.23,0.43,0.36l0.07,0.06
		c0.5,0.45,0.97,0.94,1.39,1.46c0.02,0.02,0.03,0.04,0.05,0.07c0.12,0.16,0.24,0.32,0.36,0.48l0.05,0.07
		c0.13,0.18,0.25,0.36,0.36,0.55l0,0c1.17,1.88,1.79,4.05,1.79,6.27c0,1.26-0.2,2.51-0.59,3.7
		C69.69,645.53,69.68,645.57,69.67,645.59z"/>
	<path id="Path_285" class="st0" d="M63.14,637.73l-2.02,1.73l0.64,4.04l2.15,0.93l3.87-1.72l-0.6-4.65L63.14,637.73z"/>
	<path id="Path_286" class="st0" d="M60.58,651.44l-0.71,1.38c2.5-0.34,4.82-1.52,6.56-3.35l-1.64-0.35L60.58,651.44z"/>
</g>
<g id="Group_605" transform="translate(-39.561 -457.5)">
	<path id="Exclusion_5" class="st0" d="M63.73,697.33H48.98c-0.96,0-1.74-0.78-1.74-1.74c0-0.96,0.78-1.74,1.74-1.74h1.93v3.2h2.06
		v-3.2h-1.94c-0.96,0-1.74-0.78-1.74-1.74c0-0.96,0.78-1.74,1.74-1.74h-3.22c-0.96,0-1.74-0.78-1.74-1.74
		c0-0.96,0.78-1.74,1.74-1.74h1.87v3.2h2.06v-3.2h3.84c1.14,0.37,2.33,0.56,3.53,0.56c1.2,0,2.39-0.19,3.53-0.56h5.44
		c0.96,0,1.74,0.78,1.74,1.74c0,0.96-0.78,1.74-1.74,1.74h3.22c0.96,0,1.74,0.78,1.74,1.74c0,0.96-0.78,1.74-1.74,1.74h-2.05
		c0.96,0,1.74,0.78,1.74,1.74c0,0.96-0.78,1.74-1.74,1.74h-3.47v-3.2h-2.06L63.73,697.33L63.73,697.33z M66.83,690.64L66.83,690.64
		v3.2h2.06v-3.2H66.83z M54.01,690.36v3.2h2.06v-3.2H54.01z M64.76,687.16L64.76,687.16v3.2h2.06v-3.2H64.76z M59.13,687.1
		c-0.57,0-1.13-0.04-1.69-0.13v-0.09h-1.84c-2.26-0.74-4.23-2.16-5.63-4.08c-1.45-1.95-2.22-4.32-2.22-6.74
		c0.01-6.28,5.1-11.37,11.38-11.38c6.28,0.01,11.37,5.1,11.38,11.38c0.01,2.43-0.77,4.79-2.22,6.74c-1.41,1.91-3.38,3.34-5.63,4.08
		h-1.84v-1.7c-0.56,0.1-1.12,0.16-1.69,0.16c-0.57,0-1.13-0.05-1.69-0.16v1.7h3.38v0.09C60.26,687.05,59.69,687.1,59.13,687.1
		L59.13,687.1z M59.13,667.12c-4.93,0.01-8.93,4-8.93,8.93c0.01,4.93,4,8.93,8.93,8.93c4.93-0.01,8.93-4,8.93-8.93
		C68.05,671.12,64.05,667.13,59.13,667.12L59.13,667.12z M67.54,679.95c-0.48,1.03-1.15,1.97-1.96,2.77l1.57,0.91
		c0.78-0.83,1.43-1.77,1.92-2.79L67.54,679.95z M50.71,679.95l-1.53,0.89c0.49,1.02,1.14,1.96,1.92,2.79l1.57-0.91
		C51.85,681.92,51.18,680.98,50.71,679.95L50.71,679.95z M50.02,669.83L50.02,669.83c-0.64,0.94-1.14,1.97-1.46,3.05l1.57,0.91
		c0.28-1.11,0.76-2.15,1.42-3.08L50.02,669.83L50.02,669.83z M68.23,669.83l-1.53,0.88c0.66,0.93,1.14,1.97,1.42,3.08l1.57-0.91
		C69.37,671.79,68.88,670.76,68.23,669.83L68.23,669.83L68.23,669.83z M59.13,665.02c-0.57,0-1.13,0.04-1.69,0.13v1.79
		c0.56-0.1,1.12-0.16,1.69-0.16c0.57,0,1.13,0.05,1.69,0.16v-1.79C60.25,665.06,59.69,665.02,59.13,665.02L59.13,665.02z"/>
	<path id="Path_1616" class="st0" d="M60.97,680.81c0.51-0.28,0.93-0.7,1.2-1.22c0.28-0.55,0.43-1.16,0.42-1.77
		c0.06-0.92-0.24-1.83-0.83-2.54c-0.59-0.62-1.43-0.95-2.29-0.91c-0.54,0-1.07,0.13-1.54,0.39l0.25-2.2h4.07v-1.69h-5.73l-0.59,5.2
		l1.62,0.4l0.2-0.18c0.33-0.26,0.75-0.4,1.17-0.38c0.45-0.03,0.9,0.14,1.22,0.46c0.31,0.37,0.46,0.85,0.43,1.34
		c0.03,0.49-0.1,0.99-0.37,1.4c-0.25,0.33-0.65,0.52-1.06,0.5c-0.37,0.02-0.73-0.11-1-0.35c-0.27-0.26-0.43-0.62-0.45-0.99h-2.01
		c0.01,0.55,0.18,1.09,0.49,1.55c0.31,0.46,0.75,0.83,1.26,1.06c0.54,0.25,1.13,0.38,1.72,0.38
		C59.77,681.26,60.4,681.11,60.97,680.81z"/>
</g>
<g id="Group_602" transform="translate(-38.349 -455)">
	<rect id="Rectangle_67" x="52.66" y="717.3" class="st0" width="2.84" height="2.85"/>
	<rect id="Rectangle_68" x="52.66" y="714.45" class="st0" width="2.84" height="2.85"/>
	<rect id="Rectangle_69" x="52.67" y="740.54" class="st0" width="2.84" height="2.85"/>
	<rect id="Rectangle_70" x="56.9" y="738.71" class="st0" width="2.84" height="2.85"/>
	<rect id="Rectangle_71" x="61.14" y="740.54" class="st0" width="2.84" height="2.85"/>
	<rect id="Rectangle_72" x="54.09" y="714.45" class="st0" width="2.84" height="2.85"/>
	<rect id="Rectangle_73" x="59.72" y="714.45" class="st0" width="2.84" height="2.85"/>
	<rect id="Rectangle_74" x="61.14" y="714.45" class="st0" width="2.84" height="2.85"/>
	<rect id="Rectangle_75" x="54.09" y="711.59" class="st0" width="1.42" height="2.85"/>
	<rect id="Rectangle_76" x="55.5" y="711.59" class="st0" width="2.84" height="2.85"/>
	<rect id="Rectangle_77" x="58.33" y="711.59" class="st0" width="2.84" height="2.85"/>
	<rect id="Rectangle_78" x="61.14" y="711.59" class="st0" width="1.42" height="2.85"/>
	<rect id="Rectangle_79" x="55.5" y="710.02" class="st0" width="2.84" height="1.57"/>
	<rect id="Rectangle_80" x="58.33" y="710.02" class="st0" width="2.84" height="1.57"/>
	<rect id="Rectangle_81" x="56.9" y="708.45" class="st0" width="2.84" height="1.57"/>
	<rect id="Rectangle_82" x="61.14" y="717.3" class="st0" width="2.84" height="2.85"/>
	<rect id="Rectangle_83" x="52.66" y="720.16" class="st0" width="2.84" height="2.85"/>
	<rect id="Rectangle_84" x="56.9" y="721.58" class="st0" width="2.84" height="1.43"/>
	<rect id="Rectangle_85" x="61.14" y="720.16" class="st0" width="2.84" height="2.85"/>
	<rect id="Rectangle_86" x="52.66" y="723.01" class="st0" width="2.84" height="2.85"/>
	<rect id="Rectangle_87" x="55.5" y="723.01" class="st0" width="2.84" height="2.85"/>
	<rect id="Rectangle_88" x="61.14" y="723.01" class="st0" width="2.84" height="2.85"/>
	<rect id="Rectangle_89" x="58.33" y="723.01" class="st0" width="2.84" height="2.85"/>
	<rect id="Rectangle_90" x="52.66" y="725.87" class="st0" width="2.84" height="2.85"/>
	<rect id="Rectangle_91" x="55.5" y="725.87" class="st0" width="2.84" height="2.85"/>
	<rect id="Rectangle_92" x="61.14" y="725.87" class="st0" width="2.84" height="2.85"/>
	<rect id="Rectangle_93" x="63.98" y="723.01" class="st0" width="2.84" height="2.85"/>
	<rect id="Rectangle_94" x="63.98" y="725.87" class="st0" width="2.84" height="2.85"/>
	<rect id="Rectangle_95" x="66.84" y="725.87" class="st0" width="2.84" height="2.85"/>
	<rect id="Rectangle_96" x="68.26" y="728.72" class="st0" width="1.42" height="2.85"/>
	<rect id="Rectangle_97" x="69.7" y="728.72" class="st0" width="2.84" height="2.85"/>
	<rect id="Rectangle_98" x="46.97" y="725.88" class="st0" width="2.85" height="2.84"/>
	<rect id="Rectangle_99" x="46.97" y="728.73" class="st0" width="1.47" height="2.84"/>
	<rect id="Rectangle_100" x="44.12" y="728.73" class="st0" width="2.85" height="2.84"/>
	<rect id="Rectangle_101" x="49.82" y="725.88" class="st0" width="2.85" height="2.84"/>
	<rect id="Rectangle_102" x="49.82" y="723.01" class="st0" width="2.85" height="2.84"/>
	<rect id="Rectangle_103" x="58.33" y="725.87" class="st0" width="2.84" height="2.85"/>
	<rect id="Rectangle_104" x="52.66" y="728.72" class="st0" width="2.84" height="2.85"/>
	<rect id="Rectangle_105" x="55.5" y="728.72" class="st0" width="2.84" height="2.85"/>
	<rect id="Rectangle_106" x="61.14" y="728.72" class="st0" width="2.84" height="2.85"/>
	<rect id="Rectangle_107" x="58.33" y="728.72" class="st0" width="2.84" height="2.85"/>
	<rect id="Rectangle_108" x="52.66" y="731.57" class="st0" width="2.84" height="2.85"/>
	<rect id="Rectangle_109" x="55.5" y="731.57" class="st0" width="2.84" height="2.85"/>
	<rect id="Rectangle_110" x="61.14" y="731.57" class="st0" width="2.84" height="2.85"/>
	<rect id="Rectangle_111" x="58.33" y="731.57" class="st0" width="2.84" height="2.85"/>
	<rect id="Rectangle_112" x="52.66" y="734.43" class="st0" width="2.84" height="2.85"/>
	<rect id="Rectangle_113" x="55.5" y="734.43" class="st0" width="2.84" height="1.43"/>
	<rect id="Rectangle_114" x="61.14" y="734.43" class="st0" width="2.84" height="2.85"/>
	<rect id="Rectangle_115" x="58.33" y="734.43" class="st0" width="2.84" height="1.43"/>
</g>
<g id="Group_604" transform="translate(-36.694 -461.5)">
	<g id="Group_603" transform="translate(39.052 467.804)">
		<path id="Path_1691" class="st3" d="M14.43,311.64l-3.64-6.3c-0.31,0.18-0.62,0.36-0.92,0.56l3.63,6.28
			C13.79,311.98,14.1,311.79,14.43,311.64z"/>
		<path id="Path_1692" class="st3" d="M21.11,312.18l3.81-6.6c-0.31-0.19-0.62-0.36-0.95-0.52l-3.8,6.58
			C20.5,311.79,20.82,311.97,21.11,312.18z"/>
		<g id="Group_600" transform="translate(0)">
			<path id="Path_1695" class="st0" d="M32.86,317.35c-0.12-5.22-2.92-10.02-7.4-12.71c-0.31-0.18-0.62-0.36-0.94-0.52
				c-2.13-1.08-4.49-1.65-6.87-1.64c-2.59,0-5.14,0.66-7.4,1.92c-0.31,0.18-0.62,0.36-0.92,0.56c-4.2,2.74-6.78,7.38-6.9,12.39
				c0,0.11,0,0.23,0,0.35s0,0.23,0,0.35h8.64c-0.01-0.12-0.01-0.23-0.01-0.35s0-0.23,0.01-0.35c0.11-1.91,1.09-3.67,2.66-4.77
				c0.29-0.21,0.61-0.39,0.93-0.54c0.83-0.39,1.73-0.59,2.64-0.59c0.91,0,1.82,0.2,2.64,0.59c0.33,0.15,0.64,0.33,0.93,0.54
				c1.57,1.1,2.55,2.86,2.66,4.77c0.01,0.11,0.01,0.23,0.01,0.35s0,0.23-0.01,0.35h9.32c0-0.12,0-0.23,0-0.35
				S32.86,317.46,32.86,317.35z M9.48,315.07l-0.91-0.62l0.38-0.57l-1.8-1.22c-0.06,0.16-0.15,0.31-0.25,0.45
				c-0.03,0.05-0.07,0.09-0.1,0.14l-0.88-0.6c0.02-0.02,0.04-0.05,0.05-0.07c0.16-0.24,0.28-0.51,0.33-0.79
				c0.05-0.23,0.04-0.47-0.04-0.7l0.41-0.6l3.14,2.13l0.37-0.55l0.91,0.62L9.48,315.07z M20.18,311.64
				c-0.9-0.43-1.88-0.65-2.88-0.65c-1,0-1.98,0.22-2.88,0.65l-3.64-6.3c2.1-1.17,4.46-1.78,6.86-1.78c2.2,0,4.37,0.51,6.33,1.5
				L20.18,311.64z M29.36,312.88c-0.04,0.37-0.26,0.71-0.58,0.9c-0.19,0.12-0.41,0.17-0.63,0.14c-0.22-0.02-0.44-0.12-0.6-0.27
				c0.09,0.25,0.1,0.53,0.01,0.78c-0.1,0.25-0.27,0.46-0.51,0.59c-0.37,0.24-0.84,0.26-1.23,0.07c-0.48-0.24-0.87-0.62-1.12-1.09
				c-0.3-0.43-0.44-0.96-0.41-1.48c0.08-0.48,0.37-0.9,0.8-1.13l0.72,1.02c-0.34,0.14-0.5,0.54-0.36,0.88
				c0.02,0.04,0.04,0.09,0.07,0.13c0.07,0.15,0.21,0.26,0.37,0.3c0.14,0.02,0.29,0,0.41-0.08c0.33-0.2,0.37-0.53,0.12-0.99l0.67-0.4
				c0.08,0.14,0.21,0.25,0.36,0.32c0.15,0.07,0.32,0.06,0.46-0.03c0.12-0.06,0.2-0.17,0.23-0.3c0.02-0.13,0-0.27-0.08-0.39
				c-0.13-0.25-0.43-0.34-0.67-0.22c-0.02,0.01-0.05,0.03-0.07,0.04l-0.61-1.15c0.37-0.22,0.82-0.25,1.21-0.07
				c0.44,0.23,0.8,0.58,1.03,1.02C29.25,311.88,29.39,312.37,29.36,312.88z"/>
		</g>
		<path id="Path_1696" class="st0" d="M15.93,306.24l1.24,0.04c0-0.45,0.18-0.67,0.53-0.67c0.14-0.01,0.27,0.04,0.37,0.14
			c0.08,0.09,0.13,0.22,0.12,0.35c-0.01,0.16-0.07,0.31-0.18,0.43c-0.25,0.25-0.53,0.48-0.82,0.68c-0.23,0.16-0.44,0.34-0.64,0.54
			c-0.16,0.16-0.3,0.34-0.41,0.54c-0.2,0.37-0.3,0.78-0.29,1.2c0,0,0,0.05,0.01,0.15h3.83l0.04-1.5h-1l-0.02,0.4h-1.51
			c0.08-0.15,0.2-0.28,0.33-0.38c0.27-0.18,0.55-0.34,0.84-0.48c0.4-0.18,0.76-0.43,1.05-0.75c0.17-0.22,0.27-0.48,0.27-0.76
			c0.01-0.41-0.19-0.8-0.53-1.04c-0.41-0.28-0.9-0.42-1.39-0.39c-0.46-0.02-0.91,0.1-1.3,0.34
			C16.11,305.35,15.91,305.78,15.93,306.24z"/>
	</g>
	<path id="Path_1691-2" class="st4" d="M73.77,785.15c-0.08-4.41-1.87-8.62-5-11.73c-1-1-2.11-1.87-3.32-2.6
		c-0.31-0.19-0.62-0.36-0.94-0.52c-2.42-1.24-5.09-1.89-7.81-1.88c-2.92-0.01-5.78,0.74-8.33,2.16c-0.31,0.18-0.62,0.36-0.92,0.56
		c-1.02,0.66-1.96,1.42-2.82,2.28c-3.13,3.11-4.92,7.32-5,11.73c0,0.12,0,0.23,0,0.35c0,0.12,0,0.23,0,0.35h0.46
		c0-0.11,0-0.23,0-0.35c0-0.12,0-0.23,0-0.35c0.12-5.51,2.96-10.61,7.59-13.6c0.3-0.2,0.61-0.38,0.92-0.56
		c2.47-1.39,5.26-2.11,8.09-2.11c2.63,0,5.23,0.62,7.57,1.83c0.32,0.16,0.64,0.34,0.94,0.53c4.91,2.94,7.97,8.19,8.09,13.91
		c0,0.11,0,0.23,0,0.35c0,0.12,0,0.23,0,0.35h0.46c0-0.11,0-0.23,0-0.35C73.76,785.38,73.77,785.27,73.77,785.15z"/>
	<path id="Path_1692-2" class="st0" d="M56.7,770.76l2.91-6.78h-5.81L56.7,770.76z"/>
</g>
</svg>
