<svg xmlns="http://www.w3.org/2000/svg" width="22.109" height="19.413" viewBox="0 0 22.109 19.413">
  <path id="search_icon" d="M10.223,18.416A7.1,7.1,0,0,1,4.8,6.733L.173,2.1a.591.591,0,0,1,0-.835A.58.58,0,0,1,.59,1.094a.587.587,0,0,1,.418.173L5.638,5.9a7.1,7.1,0,0,1,1.616-1.03c.018.082.038.164.058.243l.023.093c.068.282.146.559.232.823a5.852,5.852,0,0,0-1.529,1.1,5.92,5.92,0,1,0,9.68,1.982c.346.091.6.154.862.206a4.767,4.767,0,0,0,.476.075,7.095,7.095,0,0,1-6.833,9.021Zm0-2.625a4.24,4.24,0,0,1-3.949-3.076A.59.59,0,0,1,7.4,12.384a3.1,3.1,0,0,0,2.822,2.226c.1,0,.213-.005.321-.015l.056,0a.6.6,0,0,1,.588.535.59.59,0,0,1-.532.643C10.511,15.784,10.364,15.791,10.22,15.791ZM6.336,11.134a.59.59,0,1,1,.59-.59A.591.591,0,0,1,6.336,11.134Zm5-2.495a2.546,2.546,0,0,1-2.264-1.6A6.99,6.99,0,0,1,8.554,5.81c-.073-.221-.146-.472-.223-.769l0-.005a.058.058,0,0,1-.005-.022c-.01-.035-.017-.066-.023-.1s-.013-.046-.018-.07l-.006-.025c-.084-.354-.157-.748-.217-1.171,0-.014,0-.027,0-.041a.439.439,0,0,1-.005-.057,1.017,1.017,0,0,1-.014-.1L8.031,3.4c-.016-.142-.03-.274-.042-.407-.006-.06-.009-.12-.011-.178l0-.041c0-.021,0-.042,0-.062s0-.032,0-.046a6.966,6.966,0,0,1,.037-1.1c0-.037.009-.074.015-.11s.009-.059.012-.087A2.488,2.488,0,0,1,8.2.8,1.233,1.233,0,0,1,8.984.047,1.246,1.246,0,0,1,9.3.006a2.059,2.059,0,0,1,.731.156,7.573,7.573,0,0,1,2.094,1.489,3.589,3.589,0,0,0,2.41.738,3.567,3.567,0,0,0,2.407-.738A7.6,7.6,0,0,1,19.038.162,1.772,1.772,0,0,1,19.745,0a1.388,1.388,0,0,1,.342.044,1.243,1.243,0,0,1,.785.738A4.372,4.372,0,0,1,21.1,2.65a11.562,11.562,0,0,1-.257,1.932c-.028.134-.06.275-.1.443-.052.215-.116.444-.2.7a7.717,7.717,0,0,1-.541,1.3,2.552,2.552,0,0,1-2.268,1.607,6.788,6.788,0,0,1-1.609-.28l-.09-.022c-.17-.041-.345-.084-.525-.121l-.069-.016L15.4,8.179l-.02,0c-.03-.006-.061-.012-.093-.02-.22-.044-.445-.078-.668-.1h-.162c-.179.018-.345.044-.484.068l-.047.008-.058.01c-.029.006-.064.013-.1.023-.06.01-.119.024-.175.037-.14.03-.279.063-.414.1l-.23.054c-.293.078-.571.152-.842.2l-.031.007A3.851,3.851,0,0,1,11.332,8.639ZM11.4,5.7l-.037,0-.031,0A.569.569,0,0,0,11.4,6.832a.5.5,0,0,0,.162-.023.562.562,0,0,0,.393-.417v-.01a.425.425,0,0,0,.016-.118.507.507,0,0,0-.016-.129.2.2,0,0,0-.021-.061.453.453,0,0,0-.075-.146.134.134,0,0,0-.02-.023.174.174,0,0,1-.023-.031.609.609,0,0,0-.25-.156.132.132,0,0,0-.037-.006.07.07,0,0,0-.031-.007A.494.494,0,0,0,11.4,5.7Zm5.035-.886v.835h.792v.8h.836v-.8h.795V4.809h-.795v-.8h-.836v.8ZM12.32,4.778a.565.565,0,0,0-.565.571v.017a.426.426,0,0,0,.014.112.566.566,0,0,0,.183.3l.017.012.01.008a.616.616,0,0,0,.119.075H12.1a.668.668,0,0,0,.217.041.624.624,0,0,0,.224-.044.569.569,0,0,0,.328-.389.6.6,0,0,0,.017-.132.57.57,0,0,0-.139-.372.13.13,0,0,0-.015-.018l-.006-.006a.06.06,0,0,1-.013-.012l-.007-.008-.139-.094-.023-.011-.021-.01A.534.534,0,0,0,12.32,4.778Zm-1.831,0a.567.567,0,0,0-.444.216.375.375,0,0,0-.058.088.514.514,0,0,0-.037.092.48.48,0,0,0-.028.175.566.566,0,0,0,.566.565.582.582,0,0,0,.491-.277.465.465,0,0,0,.04-.092.222.222,0,0,0,.023-.095.334.334,0,0,0,.014-.1A.574.574,0,0,0,10.49,4.778Zm.907-.914a.525.525,0,0,0-.112.013.453.453,0,0,0-.1.03.585.585,0,0,0-.115.065L11.041,4a.535.535,0,0,0-.054.047.579.579,0,0,0-.149.389.568.568,0,0,0,1.134.048.3.3,0,0,0,0-.048c0-.012,0-.024,0-.035s0-.02,0-.029a.591.591,0,0,0-.569-.5Z" transform="translate(21.609 18.916) rotate(180)" fill="#fff" stroke="rgba(0,0,0,0)" stroke-width="1"/>
</svg>
