<svg xmlns="http://www.w3.org/2000/svg" width="25.19" height="20.523" viewBox="0 0 25.19 20.523">
  <path id="providers_icon" d="M1.457,19.523a1.474,1.474,0,0,1-.365-.046,1.324,1.324,0,0,1-.838-.787A4.713,4.713,0,0,1,.008,16.7a13.249,13.249,0,0,1,.384-2.534,8.973,8.973,0,0,1,.787-2.131,3.782,3.782,0,0,1,1.165-1.358A2.223,2.223,0,0,1,3.6,10.32a7.137,7.137,0,0,1,1.684.291l.037.009.166.04h0c.156.038.317.077.481.113.037.01.075.018.112.025l.01,0,.046.009h.007l.071.014a6.511,6.511,0,0,0,.712.109H7.1c.158-.015.321-.038.514-.071l.109-.019.05-.011.057-.012c.243-.049.482-.107.712-.162h0l.161-.039c.32-.085.609-.16.9-.216a4.226,4.226,0,0,1,.827-.092,2.722,2.722,0,0,1,2.416,1.707,7.869,7.869,0,0,1,.546,1.31c.081.239.16.508.242.821l0,.017,0,.01.013.053.013.052.014.057.011.046c.1.415.174.835.229,1.249.005.029.009.058.012.086l0,.019.005.044v0l.007.058c.021.19.037.346.048.489.008.073.012.146.016.216v.019c0,.023,0,.046,0,.069l0,.047a7.319,7.319,0,0,1-.038,1.171c-.012.081-.021.148-.031.212a2.655,2.655,0,0,1-.176.607,1.311,1.311,0,0,1-.838.8,1.4,1.4,0,0,1-.34.042,2.184,2.184,0,0,1-.779-.164,8.138,8.138,0,0,1-2.235-1.591,3.814,3.814,0,0,0-2.567-.785,3.813,3.813,0,0,0-2.567.785A8.141,8.141,0,0,1,2.21,19.355,1.9,1.9,0,0,1,1.457,19.523Zm8.9-5.33a.6.6,0,0,0-.6.554.447.447,0,0,0,0,.053c0,.011,0,.022,0,.033s0,.022,0,.034A.561.561,0,0,0,9.782,15a.608.608,0,0,0,.571.4h.008a.567.567,0,0,0,.122-.015.444.444,0,0,0,.1-.032.637.637,0,0,0,.122-.069.644.644,0,0,0,.09-.078.608.608,0,0,0-.445-1.018ZM2.4,13.507h0V14.4h.848v.846h.89V14.4h.848v-.892H4.137v-.848h-.89v.848Zm8.93-.29a.617.617,0,0,0-.523.3.416.416,0,0,0-.044.1.333.333,0,0,0-.027.1.466.466,0,0,0-.013.109v0A.607.607,0,0,0,11.8,14.2a.608.608,0,0,0,.1-.191.615.615,0,0,0,.029-.187A.605.605,0,0,0,11.329,13.217Zm-1.955,0a.6.6,0,0,0-.411,1.047.524.524,0,0,0,.145.1.59.59,0,0,0,.267.063.606.606,0,1,0,0-1.211Zm.978-.978a.607.607,0,0,0-.606.607.589.589,0,0,0,.036.2.567.567,0,0,0,.13.212v0h0a.6.6,0,0,0,.439.189c.025,0,.05,0,.075,0a.606.606,0,0,0-.075-1.207Zm6.161,6.275a7.573,7.573,0,0,1-1.757-.208c.014-.063.024-.129.036-.208.046.012.094.023.14.033l.032.007.437-1.144c-.2-.037-.376-.078-.539-.124,0-.07,0-.141-.006-.216a6.023,6.023,0,0,0,6.411-9.486c0-.04-.007-.081-.012-.12,0-.023-.005-.046-.007-.068-.009-.073-.017-.135-.028-.2a7.876,7.876,0,0,0-.63-2.135c-.016-.035-.032-.07-.049-.1l-.035-.074-.07-.14-.018-.036a7.65,7.65,0,0,1-3.9,14.225Zm4.362-3.2h0a6.228,6.228,0,0,1-1.808,1.228l-.05.022-.04.018.787.964a7.352,7.352,0,0,0,1.876-1.293l-.766-.938Zm2.872-6.195-1.2.193a6.122,6.122,0,0,1,.157,2.278l1.23-.2a7.306,7.306,0,0,0-.189-2.269Zm-8.968,6.617h0l-.006-.051v0l-.006-.051v0l0-.017c0-.029-.007-.058-.013-.086-.047-.36-.114-.742-.2-1.138-.006-.032-.013-.062-.02-.092l0-.011c-.006-.036-.015-.07-.023-.1a.923.923,0,0,0-.025-.1,6.24,6.24,0,0,0,5.143-6.151,6.165,6.165,0,0,0-.525-2.5c-.041-.1-.087-.195-.136-.292A6.235,6.235,0,0,0,18,3.737c-.058-.064-.12-.129-.189-.2-.041-.041-.084-.084-.128-.126s-.083-.079-.124-.117l-.012-.011A6.249,6.249,0,0,0,7.12,7.931a6.175,6.175,0,0,0,.365,2.1h0c-.032.006-.065.012-.1.016h0s0,0,0,0l-.053.007-.053.007c-.07.01-.143.021-.216.027H6.967A8.218,8.218,0,0,1,5.9,9.9l-.056-.013-.057-.014h0c-.036-.01-.073-.018-.108-.026h0A7.929,7.929,0,0,1,17.548,1.19a7.989,7.989,0,0,1,2.871,3.1c-.052-.033-.111-.067-.174-.1s-.117-.065-.17-.09c-.095-.165-.2-.335-.33-.523l-.355.206-.231.132-.51.294a6.388,6.388,0,0,1,.611,1.064c.042.093.084.194.126.3a6.268,6.268,0,0,1,.254.787l.51-.3a5.763,5.763,0,0,1,.869.8c.048.052.087.1.124.145a0,0,0,0,1,0,0l0,0c.041.05.081.1.119.151.025.251.038.508.038.764a7.941,7.941,0,0,1-6.524,7.807Zm4.457-5.1h0a6.434,6.434,0,0,1-1.371,1.931l1.127.651a7.721,7.721,0,0,0,1.339-1.95l-1.1-.632ZM7,3.575H7A7.7,7.7,0,0,0,5.976,5.706L7.1,6.357A6.387,6.387,0,0,1,8.1,4.207L7,3.575ZM13.372,1.47a6.439,6.439,0,0,1,1.18.109V.3a7.931,7.931,0,0,0-2.357,0V1.577A6.621,6.621,0,0,1,13.372,1.47Zm.846,11.684h0a8.754,8.754,0,0,0-.634-1.538l-.006-.013a3.512,3.512,0,0,0-3.147-2.131,4.484,4.484,0,0,0-.676.055,3.991,3.991,0,0,1,.971-1.676,3.283,3.283,0,0,1,.643-.528,2.843,2.843,0,0,0,1.942.846,3.173,3.173,0,0,0,2.019-.846A4.329,4.329,0,0,1,16.574,8.4a5.661,5.661,0,0,1,.738,1.237,6.239,6.239,0,0,1,.445,1.441,5.36,5.36,0,0,1-1.685,1.37,8.167,8.167,0,0,1-1.854.7Zm-.845-5.68a2.043,2.043,0,1,1,2.043-2.043A2.045,2.045,0,0,1,13.373,7.474Z" transform="translate(0.5 0.5)" fill="#fff" stroke="rgba(0,0,0,0)" stroke-width="1"/>
</svg>
