<?xml version="1.0" encoding="utf-8"?>
<!-- Generator: Adobe Illustrator 23.0.3, SVG Export Plug-In . SVG Version: 6.00 Build 0)  -->
<svg version="1.1" id="圖層_1" xmlns="http://www.w3.org/2000/svg" xmlns:xlink="http://www.w3.org/1999/xlink" x="0px" y="0px"
	 viewBox="0 0 19.03 19.23" style="enable-background:new 0 0 19.03 19.23;" xml:space="preserve">
<style type="text/css">
	.st0{fill:#FFFFFF;}
</style>
<path id="Exclusion_4" class="st0" d="M13.01,16.69c-0.14,0-0.28-0.05-0.38-0.16l-2.97-2.97c-0.21-0.21-0.21-0.55,0-0.76l2.97-2.97
	c0.21-0.21,0.55-0.21,0.76,0l2.97,2.97c0.21,0.21,0.21,0.55,0,0.76l-2.97,2.97C13.29,16.64,13.15,16.69,13.01,16.69z M13.01,14.7
	c-0.31,0-0.55,0.25-0.56,0.55c0,0.31,0.25,0.55,0.55,0.56c0.31,0,0.55-0.25,0.56-0.55c0-0.15-0.06-0.29-0.16-0.39
	C13.29,14.76,13.15,14.71,13.01,14.7L13.01,14.7z M15.08,12.63c-0.31,0-0.55,0.25-0.56,0.55c0,0.31,0.25,0.55,0.55,0.56
	c0.31,0,0.55-0.25,0.56-0.55c0-0.15-0.06-0.29-0.16-0.39C15.37,12.69,15.23,12.63,15.08,12.63z M10.93,12.63
	c-0.31,0-0.55,0.25-0.56,0.55s0.25,0.55,0.55,0.56c0.31,0,0.55-0.25,0.56-0.55c0-0.15-0.06-0.29-0.16-0.39
	C11.22,12.69,11.08,12.63,10.93,12.63z M13.06,12.63c-0.31,0-0.55,0.25-0.56,0.55s0.25,0.55,0.55,0.56c0.31,0,0.55-0.25,0.56-0.55
	c0-0.15-0.06-0.29-0.16-0.39C13.35,12.69,13.21,12.63,13.06,12.63L13.06,12.63z M13.01,10.56c-0.31,0-0.56,0.24-0.56,0.55
	c0,0.31,0.24,0.56,0.55,0.56c0.31,0,0.56-0.24,0.56-0.55c0-0.15-0.06-0.29-0.16-0.39C13.29,10.62,13.15,10.56,13.01,10.56
	L13.01,10.56z M5.79,15.65H5.1c-1.43,0-2.59-1.16-2.59-2.59v-0.69c0-1.43,1.16-2.59,2.59-2.59h0.69c1.43,0,2.59,1.16,2.59,2.59v0.69
	C8.38,14.49,7.22,15.65,5.79,15.65z M13.04,8.4h-0.69c-1.43,0-2.59-1.16-2.59-2.59V5.13c0-1.43,1.16-2.59,2.59-2.59h0.69
	c1.43,0,2.59,1.16,2.59,2.59v0.69C15.63,7.24,14.47,8.4,13.04,8.4z M5.79,8.4H5.1c-1.43,0-2.59-1.16-2.59-2.59V5.13
	c0-1.43,1.16-2.59,2.59-2.59h0.69c1.43,0,2.59,1.16,2.59,2.59v0.69C8.38,7.24,7.22,8.4,5.79,8.4z"/>
</svg>
