<?xml version="1.0" encoding="utf-8"?>
<!-- Generator: Adobe Illustrator 23.0.3, SVG Export Plug-In . SVG Version: 6.00 Build 0)  -->
<svg version="1.1" id="圖層_1" xmlns="http://www.w3.org/2000/svg" xmlns:xlink="http://www.w3.org/1999/xlink" x="0px" y="0px"
	 viewBox="0 0 25.19 20.52" style="enable-background:new 0 0 25.19 20.52;" xml:space="preserve">
<style type="text/css">
	.st0{fill:#5DF0F4;}
</style>
<path id="providers_icon" class="st0" d="M1.96,20.02c-0.12,0-0.25-0.02-0.37-0.05c-0.38-0.12-0.69-0.41-0.84-0.79
	c-0.22-0.64-0.31-1.32-0.25-1.99c0.05-0.86,0.17-1.7,0.38-2.53c0.17-0.74,0.44-1.46,0.79-2.13c0.27-0.54,0.67-1.01,1.16-1.36
	c0.37-0.24,0.81-0.37,1.26-0.36c0.57,0.03,1.14,0.13,1.68,0.29l0.04,0.01l0.17,0.04l0,0c0.16,0.04,0.32,0.08,0.48,0.11
	c0.04,0.01,0.07,0.02,0.11,0.02h0.01l0.05,0.01h0.01l0.07,0.01c0.24,0.05,0.47,0.09,0.71,0.11H7.6c0.16-0.02,0.32-0.04,0.51-0.07
	l0.11-0.02l0.05-0.01l0.06-0.01c0.24-0.05,0.48-0.11,0.71-0.16l0,0l0.16-0.04c0.32-0.09,0.61-0.16,0.9-0.22
	c0.27-0.06,0.55-0.09,0.83-0.09c1.07,0.04,2.02,0.71,2.42,1.71c0.22,0.42,0.4,0.86,0.55,1.31c0.08,0.24,0.16,0.51,0.24,0.82v0.02
	v0.01l0.01,0.05l0.01,0.05l0.01,0.06l0.01,0.05c0.1,0.41,0.17,0.84,0.23,1.25c0.01,0.03,0.01,0.06,0.01,0.09v0.02l0.01,0.04l0,0
	l0.01,0.06c0.02,0.19,0.04,0.35,0.05,0.49c0.01,0.07,0.01,0.15,0.02,0.22v0.02c0,0.02,0,0.05,0,0.07v0.05
	c0.02,0.39,0.01,0.78-0.04,1.17c-0.01,0.08-0.02,0.15-0.03,0.21c-0.03,0.21-0.09,0.41-0.18,0.61c-0.14,0.38-0.45,0.68-0.84,0.8
	c-0.11,0.03-0.23,0.04-0.34,0.04c-0.27-0.01-0.53-0.06-0.78-0.16c-0.83-0.4-1.59-0.94-2.23-1.59c-0.73-0.56-1.64-0.84-2.57-0.78
	c-0.92-0.06-1.83,0.22-2.57,0.78c-0.64,0.66-1.4,1.2-2.22,1.6C2.47,19.96,2.22,20.02,1.96,20.02z M10.86,14.69
	c-0.31,0-0.58,0.24-0.6,0.55c0,0.02,0,0.04,0,0.05c0,0.01,0,0.02,0,0.03s0,0.02,0,0.03c0,0.05,0.01,0.09,0.03,0.13
	c0.09,0.24,0.32,0.4,0.57,0.4h0.01c0.04,0,0.08-0.01,0.12-0.02c0.03-0.01,0.07-0.02,0.1-0.03c0.04-0.02,0.08-0.04,0.12-0.07
	c0.03-0.02,0.06-0.05,0.09-0.08c0.23-0.25,0.21-0.63-0.04-0.86C11.15,14.75,11,14.69,10.86,14.69L10.86,14.69z M2.9,14.01L2.9,14.01
	v0.89h0.85v0.85h0.89V14.9h0.85v-0.89H4.64v-0.85H3.75v0.85L2.9,14.01z M11.83,13.72c-0.21,0-0.41,0.12-0.52,0.3
	c-0.02,0.03-0.03,0.06-0.04,0.1c-0.01,0.03-0.02,0.07-0.03,0.1c-0.01,0.04-0.01,0.07-0.01,0.11l0,0c0.01,0.34,0.28,0.6,0.62,0.6
	c0.18,0,0.35-0.08,0.46-0.22c0.04-0.06,0.08-0.12,0.1-0.19c0.02-0.06,0.03-0.12,0.03-0.19C12.43,13.99,12.16,13.72,11.83,13.72
	L11.83,13.72z M9.88,13.72c-0.33-0.01-0.6,0.26-0.61,0.59c0,0.17,0.07,0.34,0.2,0.46c0.04,0.04,0.09,0.08,0.15,0.1
	c0.08,0.04,0.17,0.06,0.27,0.06c0.33,0.01,0.62-0.25,0.63-0.58s-0.25-0.62-0.58-0.63C9.91,13.72,9.89,13.72,9.88,13.72L9.88,13.72z
	 M10.85,12.74c-0.33,0-0.61,0.27-0.61,0.61c0,0.07,0.01,0.14,0.04,0.2c0.03,0.08,0.07,0.15,0.13,0.21l0,0l0,0
	c0.11,0.12,0.27,0.19,0.44,0.19c0.02,0,0.05,0,0.07,0c0.33-0.04,0.57-0.35,0.52-0.68C11.41,12.97,11.16,12.74,10.85,12.74
	L10.85,12.74z M17.01,19.01c-0.59,0-1.18-0.07-1.76-0.21c0.01-0.06,0.02-0.13,0.04-0.21c0.05,0.01,0.09,0.02,0.14,0.03l0.03,0.01
	l0.44-1.14c-0.2-0.04-0.38-0.08-0.54-0.12c0-0.07,0-0.14-0.01-0.22c3.2,0.91,6.53-0.94,7.45-4.14c0.53-1.85,0.14-3.83-1.03-5.35
	c0-0.04-0.01-0.08-0.01-0.12c0-0.02,0-0.05-0.01-0.07c-0.01-0.07-0.02-0.14-0.03-0.2c-0.11-0.74-0.32-1.46-0.63-2.14
	c-0.02-0.03-0.03-0.07-0.05-0.1l-0.03-0.07l-0.07-0.14L20.92,4.8c3.63,2.16,4.82,6.85,2.66,10.49
	C22.21,17.6,19.71,19.02,17.01,19.01L17.01,19.01z M21.38,15.81L21.38,15.81c-0.53,0.51-1.14,0.93-1.81,1.23l-0.05,0.02l-0.04,0.02
	l0.79,0.96c0.69-0.33,1.32-0.77,1.88-1.29L21.38,15.81L21.38,15.81z M24.25,9.62l-1.2,0.19c0.19,0.74,0.25,1.52,0.16,2.28l1.23-0.2
	C24.49,11.13,24.43,10.36,24.25,9.62L24.25,9.62z M15.28,16.24L15.28,16.24l-0.01-0.05l0,0l-0.01-0.05l0,0v-0.02
	c0-0.03-0.01-0.06-0.01-0.09c-0.05-0.36-0.11-0.74-0.2-1.14c-0.01-0.03-0.01-0.06-0.02-0.09v-0.01c-0.01-0.04-0.02-0.07-0.02-0.1
	c-0.01-0.03-0.01-0.07-0.02-0.1c2.98-0.53,5.15-3.12,5.14-6.15c0-0.86-0.18-1.71-0.52-2.5c-0.04-0.1-0.09-0.2-0.14-0.29
	c-0.26-0.51-0.58-0.99-0.97-1.41c-0.06-0.06-0.12-0.13-0.19-0.2C18.27,4,18.23,3.95,18.18,3.91s-0.08-0.08-0.12-0.12l-0.01-0.01
	c-2.57-2.31-6.52-2.1-8.82,0.47c-1.03,1.15-1.6,2.64-1.6,4.18c0,0.72,0.12,1.43,0.36,2.1l0,0c-0.03,0.01-0.07,0.01-0.1,0.02l0,0l0,0
	l-0.05,0.01l-0.05,0.01c-0.07,0.01-0.14,0.02-0.22,0.03h-0.1c-0.36-0.04-0.72-0.1-1.07-0.19l-0.06-0.01l-0.06-0.01l0,0
	c-0.04-0.01-0.07-0.02-0.11-0.03l0,0C5.12,6.1,7.71,1.8,11.96,0.74c2.08-0.52,4.27-0.17,6.09,0.95c1.22,0.76,2.21,1.83,2.87,3.1
	c-0.05-0.03-0.11-0.07-0.17-0.1s-0.12-0.07-0.17-0.09c-0.09-0.16-0.2-0.34-0.33-0.52l-0.35,0.21l-0.23,0.13l-0.51,0.29
	c0.24,0.33,0.44,0.69,0.61,1.06c0.04,0.09,0.08,0.19,0.13,0.3c0.1,0.26,0.19,0.52,0.25,0.79l0.51-0.3c0.32,0.24,0.61,0.5,0.87,0.8
	c0.05,0.05,0.09,0.1,0.12,0.14l0,0l0,0c0.04,0.05,0.08,0.1,0.12,0.15c0.02,0.25,0.04,0.51,0.04,0.76
	C21.8,12.26,19.05,15.54,15.28,16.24L15.28,16.24z M19.74,11.14L19.74,11.14c-0.33,0.72-0.8,1.38-1.37,1.93l1.13,0.65
	c0.54-0.58,1-1.24,1.34-1.95L19.74,11.14L19.74,11.14z M7.5,4.07L7.5,4.07C7.05,4.73,6.71,5.45,6.48,6.21L7.6,6.86
	c0.2-0.77,0.54-1.5,1-2.15L7.5,4.07z M13.87,1.97c0.4,0,0.79,0.04,1.18,0.11V0.8c-0.78-0.12-1.58-0.12-2.36,0v1.28
	C13.08,2.01,13.48,1.97,13.87,1.97z M14.72,13.65L14.72,13.65c-0.16-0.53-0.37-1.05-0.63-1.54l-0.01-0.01
	c-0.54-1.27-1.77-2.1-3.15-2.13c-0.23,0-0.45,0.02-0.68,0.06c0.18-0.63,0.51-1.21,0.97-1.68c0.19-0.2,0.41-0.38,0.64-0.53
	c0.51,0.52,1.21,0.82,1.94,0.85c0.75-0.03,1.47-0.33,2.02-0.85c0.48,0.28,0.9,0.64,1.24,1.08c0.3,0.38,0.55,0.79,0.74,1.24
	c0.21,0.46,0.36,0.94,0.44,1.44c-0.46,0.57-1.04,1.03-1.68,1.37C15.98,13.26,15.36,13.49,14.72,13.65L14.72,13.65z M13.87,7.97
	c-1.13,0-2.04-0.91-2.04-2.04c0-1.13,0.91-2.04,2.04-2.04c1.13,0,2.04,0.91,2.04,2.04l0,0C15.91,7.06,15,7.97,13.87,7.97z"/>
</svg>
