<?xml version="1.0" encoding="utf-8"?>
<!-- Generator: Adobe Illustrator 23.0.3, SVG Export Plug-In . SVG Version: 6.00 Build 0)  -->
<svg version="1.1" id="圖層_1" xmlns="http://www.w3.org/2000/svg" xmlns:xlink="http://www.w3.org/1999/xlink" x="0px" y="0px"
	 viewBox="0 0 25 25.24" style="enable-background:new 0 0 25 25.24;" xml:space="preserve">
<style type="text/css">
	.st0{fill:#5DF0F4;}
</style>
<path id="all_games_ivon" class="st0" d="M14.01,22.09c-0.06,0-0.12-0.01-0.18-0.02l-5.22-1.44c-0.37-0.1-0.58-0.48-0.48-0.85l0,0
	l0.45-1.64l0.15-0.56L8.7,17.57H8.69c0.02-0.02,0.04-0.05,0.06-0.08l0.59-2.15l0.22-0.79c0.06-0.23,0.24-0.41,0.48-0.48
	c0.06-0.02,0.13-0.03,0.19-0.03c0.05,0,0.11,0.01,0.16,0.02h0.01h0.01l5.22,1.44c0.37,0.1,0.58,0.48,0.48,0.85l-0.4,1.46l-1.04,3.77
	c-0.06,0.23-0.24,0.41-0.48,0.48C14.14,22.08,14.08,22.09,14.01,22.09z M13.44,19.68c-0.07,0-0.14,0.01-0.2,0.03
	c-0.38,0.11-0.6,0.5-0.49,0.88c0.07,0.24,0.26,0.42,0.5,0.49c0.13,0.04,0.26,0.04,0.39,0c0.38-0.11,0.6-0.5,0.49-0.88
	c-0.07-0.24-0.26-0.42-0.5-0.49C13.57,19.69,13.5,19.68,13.44,19.68z M12.18,17.32c-0.07,0-0.14,0.01-0.2,0.03
	c-0.38,0.11-0.6,0.51-0.48,0.89c0.07,0.24,0.26,0.42,0.49,0.49c0.06,0.02,0.13,0.02,0.19,0.02c0.07,0,0.14-0.01,0.2-0.03
	c0.38-0.11,0.6-0.51,0.48-0.89c-0.07-0.24-0.26-0.42-0.49-0.49C12.31,17.32,12.24,17.32,12.18,17.32z M10.8,15.03
	c-0.07,0-0.14,0.01-0.2,0.03c-0.05,0.01-0.1,0.03-0.14,0.06c-0.17,0.09-0.29,0.25-0.34,0.44c-0.1,0.38,0.13,0.78,0.51,0.88
	c0.06,0.01,0.12,0.02,0.17,0.02c0.07,0,0.14-0.01,0.2-0.03c0.24-0.07,0.42-0.25,0.49-0.49l0,0c0.1-0.38-0.12-0.77-0.5-0.88
	C10.93,15.04,10.86,15.03,10.8,15.03L10.8,15.03z M2.69,19.04c-0.31,0-0.58-0.21-0.66-0.5l-1.51-5.2c-0.11-0.37,0.1-0.75,0.47-0.86
	l4.03-1.18l1.17-0.34c0.06-0.02,0.13-0.03,0.19-0.03c0.31,0,0.58,0.21,0.67,0.5l0.21,0.72L8.08,15l0,0l0.28,0.97l-0.01,0.02
	l-0.34,1.22l-0.09,0.33l-0.76,0.22l-4.28,1.25C2.82,19.03,2.75,19.04,2.69,19.04L2.69,19.04z M3.24,16.62
	c-0.39,0.01-0.7,0.35-0.69,0.74c0.01,0.37,0.31,0.67,0.69,0.69c0.39,0,0.71-0.32,0.71-0.72c0-0.07-0.01-0.13-0.03-0.2
	C3.84,16.83,3.56,16.62,3.24,16.62L3.24,16.62z M6.87,15.56c-0.39,0-0.71,0.32-0.71,0.71c0,0.07,0.01,0.13,0.03,0.2
	c0.09,0.3,0.37,0.51,0.68,0.52c0.07,0,0.14-0.01,0.2-0.03c0.38-0.11,0.59-0.51,0.48-0.88c-0.08-0.26-0.3-0.46-0.57-0.5
	C6.95,15.57,6.91,15.56,6.87,15.56L6.87,15.56z M4.56,14.21c-0.39,0-0.72,0.32-0.72,0.71s0.32,0.72,0.71,0.72s0.72-0.32,0.72-0.71
	c0-0.07-0.01-0.14-0.03-0.2C5.16,14.42,4.88,14.21,4.56,14.21z M2.18,12.99c-0.07,0-0.14,0.01-0.2,0.03
	C1.6,13.13,1.39,13.53,1.5,13.9l0,0c0.11,0.38,0.51,0.6,0.88,0.49s0.6-0.51,0.49-0.88C2.78,13.2,2.5,12.99,2.18,12.99L2.18,12.99z
	 M5.81,11.93c-0.07,0-0.14,0.01-0.2,0.03c-0.38,0.11-0.6,0.5-0.49,0.88c0.05,0.16,0.15,0.3,0.29,0.4c0.33,0.22,0.77,0.13,0.99-0.2
	c0.12-0.17,0.15-0.39,0.09-0.59C6.41,12.15,6.13,11.94,5.81,11.93z M18.6,18.97c-0.05,0-0.1,0-0.14-0.01
	c-0.14-0.02-0.29-0.05-0.42-0.11l-1.6-0.71l0.43-1.57c0.1-0.38,0.05-0.78-0.14-1.12c-0.19-0.34-0.51-0.59-0.89-0.69l-5.14-1.42
	l4.21-9.45c0.25-0.55,0.82-0.89,1.43-0.82c0.15,0.02,0.29,0.05,0.42,0.11l6.9,3.07c0.7,0.31,1.02,1.14,0.71,1.84L19.9,18.14
	C19.66,18.65,19.16,18.98,18.6,18.97L18.6,18.97z M16.46,7.54c-0.65,0.03-1.23,0.42-1.52,1c-0.37,0.69-0.72,2.29,1.17,5.15
	c1.19-0.14,2.33-0.52,3.36-1.13c0.6-0.35,1.05-0.9,1.28-1.56c0.21-0.62,0.05-1.31-0.41-1.78c-0.3-0.29-0.69-0.45-1.1-0.46
	c-0.44,0.01-0.85,0.19-1.16,0.49c-0.13-1.03-0.63-1.61-1.49-1.7C16.55,7.55,16.51,7.54,16.46,7.54z M8.75,14.53L8.75,14.53
	l-0.46-1.59l0.93-8.89c0.09-0.71,0.7-1.25,1.42-1.25c0.05,0,0.1,0,0.15,0.01l3.25,0.34c-0.06,0.08-0.11,0.16-0.14,0.25l0,0
	l-0.02,0.04L9.41,13.49L9.4,13.5l-0.01,0.02c-0.29,0.2-0.5,0.49-0.59,0.83L8.75,14.53L8.75,14.53z M7.41,10.59L7.41,10.59
	c-0.28-0.28-0.65-0.43-1.04-0.43c-0.14,0-0.28,0.02-0.41,0.06l-1.12,0.32l-0.98-4.6C3.71,5.19,4.19,4.45,4.94,4.29l3.24-0.7
	L8.17,3.66l0,0C8.14,3.75,8.12,3.85,8.11,3.94L7.41,10.59L7.41,10.59z"/>
</svg>
