<?xml version="1.0" encoding="utf-8"?>
<!-- Generator: Adobe Illustrator 23.0.3, SVG Export Plug-In . SVG Version: 6.00 Build 0)  -->
<svg version="1.1" id="圖層_1" xmlns="http://www.w3.org/2000/svg" xmlns:xlink="http://www.w3.org/1999/xlink" x="0px" y="0px"
	 viewBox="0 0 22.11 19.41" style="enable-background:new 0 0 22.11 19.41;" xml:space="preserve">
<style type="text/css">
	.st0{fill:#5DF0F4;}
</style>
<path id="search_icon" class="st0" d="M11.39,0.5c3.92,0,7.1,3.18,7.1,7.1c0,1.68-0.59,3.3-1.68,4.58l4.63,4.63
	c0.23,0.23,0.23,0.6,0,0.84c-0.11,0.11-0.26,0.17-0.42,0.17c-0.16,0-0.31-0.06-0.42-0.17l-4.63-4.63c-0.49,0.41-1.03,0.76-1.62,1.03
	c-0.02-0.08-0.04-0.16-0.06-0.24l-0.02-0.09c-0.07-0.28-0.15-0.56-0.23-0.82c0.57-0.28,1.08-0.65,1.53-1.1
	c2.31-2.31,2.31-6.06,0-8.37s-6.06-2.31-8.37,0C5.52,5.09,5.01,7.6,5.89,9.81C5.54,9.71,5.29,9.65,5.03,9.6
	C4.87,9.57,4.71,9.54,4.55,9.52c-1.06-3.77,1.13-7.69,4.9-8.75C10.08,0.59,10.73,0.5,11.39,0.5L11.39,0.5z M11.39,3.13
	c1.85,0.06,3.44,1.3,3.95,3.08c0.06,0.32-0.15,0.63-0.47,0.69c-0.27,0.05-0.55-0.1-0.65-0.36c-0.37-1.27-1.5-2.16-2.82-2.23
	c-0.1,0-0.21,0.01-0.32,0.02h-0.06c-0.3,0-0.56-0.23-0.59-0.53c-0.03-0.32,0.21-0.61,0.53-0.64c0,0,0,0,0,0
	C11.1,3.13,11.24,3.13,11.39,3.13L11.39,3.13z M15.27,7.78c0.33,0,0.59,0.26,0.59,0.59s-0.26,0.59-0.59,0.59s-0.59-0.26-0.59-0.59
	C14.68,8.05,14.95,7.78,15.27,7.78z M10.27,10.28c1,0.04,1.89,0.67,2.26,1.6c0.21,0.39,0.38,0.8,0.52,1.23
	c0.07,0.22,0.15,0.47,0.22,0.77v0.01c0,0.01,0,0.01,0.01,0.02c0.01,0.03,0.02,0.07,0.02,0.1c0.01,0.03,0.01,0.05,0.02,0.07
	l0.01,0.02c0.08,0.35,0.16,0.75,0.22,1.17c0,0.01,0,0.03,0,0.04c0,0.02,0,0.04,0.01,0.06c0.01,0.03,0.01,0.07,0.01,0.1l0.01,0.05
	c0.02,0.14,0.03,0.27,0.04,0.41c0.01,0.06,0.01,0.12,0.01,0.18v0.04c0,0.02,0,0.04,0,0.06s0,0.03,0,0.05c0.02,0.37,0,0.73-0.04,1.1
	c0,0.04-0.01,0.07-0.02,0.11c-0.01,0.04-0.01,0.06-0.01,0.09c-0.03,0.2-0.08,0.39-0.16,0.57c-0.13,0.36-0.42,0.64-0.78,0.75
	c-0.1,0.03-0.21,0.04-0.32,0.04c-0.25-0.01-0.5-0.06-0.73-0.16c-0.78-0.37-1.49-0.88-2.09-1.49c-0.69-0.53-1.54-0.79-2.41-0.74
	c-0.87-0.05-1.72,0.21-2.41,0.74c-0.61,0.61-1.32,1.12-2.1,1.49c-0.22,0.1-0.46,0.16-0.71,0.16c-0.12,0-0.23-0.02-0.34-0.04
	c-0.36-0.11-0.65-0.39-0.78-0.74c-0.21-0.6-0.29-1.24-0.23-1.87c0.03-0.65,0.12-1.3,0.26-1.93c0.03-0.13,0.06-0.27,0.1-0.44
	c0.05-0.22,0.12-0.44,0.2-0.7c0.14-0.45,0.32-0.88,0.54-1.3c0.37-0.94,1.26-1.57,2.27-1.61c0.55,0.03,1.09,0.12,1.61,0.28l0.09,0.02
	c0.17,0.04,0.35,0.08,0.52,0.12l0.07,0.02l0.04,0.01h0.02c0.03,0.01,0.06,0.01,0.09,0.02c0.22,0.04,0.44,0.08,0.67,0.1h0.16
	c0.18-0.02,0.35-0.04,0.48-0.07l0.05-0.01l0.06-0.01c0.03-0.01,0.06-0.01,0.1-0.02c0.06-0.01,0.12-0.02,0.18-0.04
	c0.14-0.03,0.28-0.06,0.41-0.1l0.23-0.05c0.29-0.08,0.57-0.15,0.84-0.2l0.03-0.01C9.78,10.3,10.03,10.28,10.27,10.28L10.27,10.28z
	 M10.21,13.22h0.04h0.03c0.31-0.04,0.53-0.33,0.48-0.64c-0.04-0.27-0.27-0.48-0.55-0.49c-0.05,0-0.11,0.01-0.16,0.02
	c-0.2,0.06-0.35,0.22-0.39,0.42v0.01c-0.01,0.04-0.02,0.08-0.02,0.12c0,0.04,0.01,0.09,0.02,0.13c0,0.02,0.01,0.04,0.02,0.06
	c0.02,0.05,0.04,0.1,0.07,0.15C9.76,13,9.76,13,9.77,13.01c0.01,0.01,0.02,0.02,0.02,0.03c0.07,0.07,0.16,0.13,0.25,0.16
	c0.01,0,0.02,0.01,0.04,0.01c0.01,0,0.02,0.01,0.03,0.01C10.14,13.22,10.18,13.22,10.21,13.22z M5.17,14.1v-0.84H4.38v-0.8H3.55v0.8
	h-0.8v0.84h0.8v0.8h0.84v-0.8L5.17,14.1z M9.29,14.14c0.31,0,0.57-0.25,0.57-0.56c0,0,0,0,0-0.01v-0.02c0-0.04,0-0.08-0.01-0.11
	c-0.03-0.12-0.09-0.22-0.18-0.3l-0.02-0.01l-0.01-0.01c-0.04-0.03-0.08-0.05-0.12-0.07h0C9.44,13.02,9.37,13,9.29,13
	c-0.08,0-0.15,0.02-0.22,0.04c-0.16,0.07-0.29,0.21-0.33,0.39c-0.01,0.04-0.02,0.09-0.02,0.13c0,0.14,0.05,0.27,0.14,0.37
	c0,0.01,0.01,0.01,0.02,0.02l0.01,0.01c0,0,0.01,0.01,0.01,0.01l0.01,0.01l0.14,0.09l0.02,0.01l0.02,0.01
	C9.15,14.12,9.22,14.14,9.29,14.14z M11.12,14.14c0.17,0,0.34-0.08,0.44-0.22c0.02-0.03,0.04-0.06,0.06-0.09
	c0.02-0.03,0.03-0.06,0.04-0.09c0.02-0.06,0.03-0.12,0.03-0.18c0-0.31-0.25-0.57-0.57-0.56c-0.2,0-0.39,0.11-0.49,0.28
	c-0.02,0.03-0.03,0.06-0.04,0.09c-0.01,0.03-0.02,0.06-0.02,0.09c-0.01,0.03-0.01,0.07-0.01,0.1
	C10.55,13.88,10.81,14.13,11.12,14.14L11.12,14.14z M10.21,15.05c0.04,0,0.08,0,0.11-0.01c0.03-0.01,0.07-0.02,0.1-0.03
	c0.04-0.02,0.08-0.04,0.11-0.07l0.03-0.03c0.02-0.01,0.04-0.03,0.05-0.05c0.1-0.11,0.15-0.25,0.15-0.39c0-0.31-0.25-0.57-0.57-0.57
	c-0.3,0-0.54,0.23-0.57,0.52c0,0.02,0,0.03,0,0.05c0,0.01,0,0.02,0,0.03s0,0.02,0,0.03C9.68,14.83,9.92,15.04,10.21,15.05
	L10.21,15.05z"/>
</svg>
