<?xml version="1.0" encoding="utf-8"?>
<!-- Generator: Adobe Illustrator 23.0.3, SVG Export Plug-In . SVG Version: 6.00 Build 0)  -->
<svg version="1.1" id="圖層_1" xmlns="http://www.w3.org/2000/svg" xmlns:xlink="http://www.w3.org/1999/xlink" x="0px" y="0px"
	 viewBox="0 0 25 203.52" style="enable-background:new 0 0 25 203.52;" xml:space="preserve">
<style type="text/css">
	.st0{fill:#FFFFFF;}
	.st1{fill:#5DF0F4;}
</style>
<path id="all_games_ivon" class="st0" d="M14.03,22.09c-0.06,0-0.12-0.01-0.18-0.02l-5.22-1.44c-0.37-0.1-0.58-0.48-0.48-0.85
	c0,0,0,0,0,0l0.45-1.64l0.15-0.56l-0.03-0.01H8.71c0.02-0.02,0.04-0.05,0.06-0.08l0.59-2.15l0.22-0.79
	c0.06-0.23,0.24-0.41,0.48-0.48c0.06-0.02,0.13-0.03,0.19-0.03c0.05,0,0.11,0.01,0.16,0.02h0.01h0.01l5.22,1.44
	c0.37,0.1,0.58,0.48,0.48,0.85l-0.4,1.46l-1.04,3.77c-0.06,0.23-0.24,0.41-0.48,0.48C14.16,22.08,14.1,22.09,14.03,22.09z
	 M13.46,19.68c-0.07,0-0.14,0.01-0.2,0.03c-0.38,0.11-0.6,0.5-0.49,0.88c0.07,0.24,0.26,0.42,0.5,0.49c0.13,0.04,0.26,0.04,0.39,0
	c0.38-0.11,0.6-0.5,0.49-0.88c-0.07-0.24-0.26-0.42-0.5-0.49C13.59,19.69,13.52,19.68,13.46,19.68z M12.2,17.32
	c-0.07,0-0.14,0.01-0.2,0.03c-0.38,0.11-0.6,0.51-0.48,0.89c0.07,0.24,0.26,0.42,0.49,0.49c0.06,0.02,0.13,0.02,0.19,0.02
	c0.07,0,0.14-0.01,0.2-0.03c0.38-0.11,0.6-0.51,0.48-0.89c-0.07-0.24-0.26-0.42-0.49-0.49C12.33,17.32,12.26,17.32,12.2,17.32z
	 M10.82,15.03c-0.07,0-0.14,0.01-0.2,0.03c-0.05,0.01-0.1,0.03-0.14,0.06c-0.17,0.09-0.29,0.25-0.34,0.44
	c-0.1,0.38,0.13,0.78,0.51,0.88c0.06,0.01,0.12,0.02,0.17,0.02c0.07,0,0.14-0.01,0.2-0.03c0.24-0.07,0.42-0.25,0.49-0.49l0,0
	c0.1-0.38-0.12-0.77-0.5-0.88C10.95,15.04,10.88,15.03,10.82,15.03L10.82,15.03z M2.71,19.04c-0.31,0-0.58-0.21-0.66-0.5l-1.51-5.2
	c-0.11-0.37,0.1-0.75,0.47-0.86l4.03-1.18l1.17-0.34c0.06-0.02,0.13-0.03,0.19-0.03c0.31,0,0.58,0.21,0.67,0.5l0.21,0.72L8.1,15l0,0
	l0.28,0.97l-0.01,0.02l-0.34,1.22l-0.09,0.33l-0.76,0.22L2.9,19.01C2.84,19.03,2.77,19.04,2.71,19.04L2.71,19.04z M3.26,16.62
	c-0.39,0.01-0.7,0.35-0.69,0.74c0.01,0.37,0.31,0.67,0.69,0.69c0.39,0,0.71-0.32,0.71-0.72c0-0.07-0.01-0.13-0.03-0.2
	C3.86,16.83,3.58,16.62,3.26,16.62L3.26,16.62z M6.89,15.56c-0.39,0-0.71,0.32-0.71,0.71c0,0.07,0.01,0.13,0.03,0.2
	c0.09,0.3,0.37,0.51,0.68,0.52c0.07,0,0.14-0.01,0.2-0.03c0.38-0.11,0.59-0.51,0.48-0.88c-0.08-0.26-0.3-0.46-0.57-0.5
	C6.97,15.57,6.93,15.56,6.89,15.56L6.89,15.56z M4.58,14.21c-0.39,0-0.72,0.32-0.72,0.71c0,0.39,0.32,0.72,0.71,0.72
	c0.39,0,0.72-0.32,0.72-0.71c0-0.07-0.01-0.14-0.03-0.2C5.18,14.42,4.9,14.21,4.58,14.21z M2.2,12.99c-0.07,0-0.14,0.01-0.2,0.03
	c-0.38,0.11-0.59,0.51-0.48,0.88c0,0,0,0,0,0c0.11,0.38,0.51,0.6,0.88,0.49s0.6-0.51,0.49-0.88C2.8,13.2,2.52,12.99,2.2,12.99
	L2.2,12.99z M5.83,11.93c-0.07,0-0.14,0.01-0.2,0.03c-0.38,0.11-0.6,0.5-0.49,0.88c0.05,0.16,0.15,0.3,0.29,0.4
	c0.33,0.22,0.77,0.13,0.99-0.2c0.12-0.17,0.15-0.39,0.09-0.59C6.43,12.15,6.15,11.94,5.83,11.93z M18.62,18.97
	c-0.05,0-0.1,0-0.14-0.01c-0.14-0.02-0.29-0.05-0.42-0.11l-1.6-0.71l0.43-1.57c0.1-0.38,0.05-0.78-0.14-1.12
	c-0.19-0.34-0.51-0.59-0.89-0.69l-5.14-1.42l4.21-9.45c0.25-0.55,0.82-0.89,1.43-0.82c0.15,0.02,0.29,0.05,0.42,0.11l6.9,3.07
	c0.7,0.31,1.02,1.14,0.71,1.84l-4.47,10.05C19.68,18.65,19.18,18.98,18.62,18.97L18.62,18.97z M16.48,7.54
	c-0.65,0.03-1.23,0.42-1.52,1c-0.37,0.69-0.72,2.29,1.17,5.15c1.19-0.14,2.33-0.52,3.36-1.13c0.6-0.35,1.05-0.9,1.28-1.56
	c0.21-0.62,0.05-1.31-0.41-1.78c-0.3-0.29-0.69-0.45-1.1-0.46c-0.44,0.01-0.85,0.19-1.16,0.49c-0.13-1.03-0.63-1.61-1.49-1.7
	C16.57,7.55,16.53,7.54,16.48,7.54z M8.77,14.53L8.77,14.53l-0.46-1.59l0.93-8.89C9.33,3.34,9.94,2.8,10.66,2.8
	c0.05,0,0.1,0,0.15,0.01l3.25,0.34C14,3.23,13.95,3.31,13.92,3.4l0,0L13.9,3.44L9.43,13.49L9.42,13.5l-0.01,0.02
	c-0.29,0.2-0.5,0.49-0.59,0.83L8.77,14.53L8.77,14.53z M7.43,10.59L7.43,10.59c-0.28-0.28-0.65-0.43-1.04-0.43
	c-0.14,0-0.28,0.02-0.41,0.06l-1.12,0.32l-0.98-4.6C3.73,5.19,4.21,4.45,4.96,4.29L8.2,3.59L8.19,3.66l0,0
	C8.16,3.75,8.14,3.85,8.13,3.94L7.43,10.59L7.43,10.59z"/>
<path id="Exclusion_4" class="st0" d="M17,46.56c-0.18,0-0.36-0.07-0.49-0.2l-3.83-3.83c-0.27-0.27-0.27-0.71,0-0.98l3.83-3.83
	c0.27-0.27,0.71-0.27,0.98,0l3.83,3.83c0.27,0.27,0.27,0.71,0,0.98l-3.83,3.83C17.36,46.49,17.18,46.56,17,46.56z M17,44
	c-0.39,0-0.71,0.32-0.71,0.71c0,0.39,0.32,0.71,0.71,0.71c0.39,0,0.71-0.32,0.71-0.71c0-0.19-0.07-0.37-0.21-0.51
	C17.36,44.08,17.18,44,17,44L17,44z M19.67,41.33c-0.39,0-0.71,0.32-0.71,0.71c0,0.39,0.32,0.71,0.71,0.71
	c0.39,0,0.71-0.32,0.71-0.71c0-0.19-0.07-0.37-0.21-0.51C20.04,41.41,19.86,41.33,19.67,41.33z M14.32,41.33
	c-0.39,0-0.71,0.32-0.71,0.71c0,0.39,0.32,0.71,0.71,0.71c0.39,0,0.71-0.32,0.71-0.71c0-0.19-0.07-0.37-0.21-0.51
	C14.69,41.41,14.51,41.33,14.32,41.33z M17.07,41.33c-0.39,0-0.71,0.32-0.71,0.71c0,0.39,0.32,0.71,0.71,0.71
	c0.39,0,0.71-0.32,0.71-0.71c0-0.19-0.07-0.37-0.21-0.51C17.44,41.4,17.26,41.33,17.07,41.33L17.07,41.33z M17,38.66
	c-0.39,0-0.71,0.31-0.72,0.71c0,0.39,0.31,0.71,0.71,0.72c0.39,0,0.71-0.31,0.72-0.71c0-0.19-0.07-0.37-0.21-0.51
	C17.37,38.74,17.19,38.66,17,38.66L17,38.66z M7.71,45.22H6.82c-1.84,0-3.33-1.49-3.33-3.33V41c0-1.84,1.49-3.33,3.33-3.33h0.89
	c1.84,0,3.33,1.49,3.34,3.33v0.89C11.04,43.73,9.55,45.22,7.71,45.22z M17.04,35.89h-0.89c-1.84,0-3.33-1.49-3.33-3.33v-0.89
	c0-1.84,1.49-3.33,3.33-3.34h0.89c1.84,0,3.33,1.49,3.33,3.34v0.89C20.37,34.39,18.88,35.88,17.04,35.89z M7.71,35.89H6.82
	c-1.84,0-3.33-1.49-3.33-3.33v-0.89c0-1.84,1.49-3.33,3.33-3.34h0.89c1.84,0,3.33,1.49,3.34,3.34v0.89
	C11.04,34.39,9.55,35.88,7.71,35.89z"/>
<path id="providers_icon" class="st0" d="M1.87,72.21c-0.12,0-0.25-0.02-0.37-0.05c-0.38-0.12-0.69-0.41-0.84-0.79
	c-0.22-0.64-0.31-1.32-0.25-1.99c0.05-0.86,0.17-1.7,0.38-2.53c0.17-0.74,0.44-1.46,0.79-2.13c0.27-0.54,0.67-1.01,1.16-1.36
	c0.37-0.24,0.81-0.37,1.26-0.36c0.57,0.03,1.14,0.13,1.68,0.29l0.04,0.01l0.17,0.04l0,0c0.16,0.04,0.32,0.08,0.48,0.11
	c0.04,0.01,0.07,0.02,0.11,0.02H6.5l0.05,0.01h0.01l0.07,0.01c0.24,0.05,0.47,0.09,0.71,0.11h0.17c0.16-0.01,0.32-0.04,0.51-0.07
	l0.11-0.02l0.05-0.01l0.06-0.01c0.24-0.05,0.48-0.11,0.71-0.16l0,0l0.16-0.04c0.32-0.08,0.61-0.16,0.9-0.22
	c0.27-0.06,0.55-0.09,0.83-0.09c1.07,0.04,2.02,0.71,2.42,1.71c0.22,0.42,0.4,0.86,0.55,1.31c0.08,0.24,0.16,0.51,0.24,0.82v0.02
	v0.01l0.01,0.05l0.01,0.05l0.01,0.06l0.01,0.05c0.1,0.42,0.17,0.83,0.23,1.25c0.01,0.03,0.01,0.06,0.01,0.09v0.02l0.01,0.04l0,0
	l0.01,0.06c0.02,0.19,0.04,0.35,0.05,0.49c0.01,0.07,0.01,0.15,0.02,0.22v0.02c0,0.02,0,0.05,0,0.07v0.05
	c0.02,0.39,0.01,0.78-0.04,1.17c-0.01,0.08-0.02,0.15-0.03,0.21c-0.03,0.21-0.09,0.41-0.18,0.61c-0.14,0.38-0.45,0.68-0.84,0.8
	c-0.11,0.03-0.23,0.04-0.34,0.04c-0.27-0.01-0.53-0.06-0.78-0.16c-0.83-0.4-1.59-0.94-2.23-1.59c-0.73-0.56-1.64-0.84-2.57-0.79
	c-0.92-0.06-1.83,0.22-2.57,0.79c-0.64,0.66-1.4,1.2-2.22,1.6C2.38,72.15,2.13,72.2,1.87,72.21z M10.77,66.88
	c-0.31,0-0.58,0.24-0.6,0.55c0,0.02,0,0.04,0,0.05c0,0.01,0,0.02,0,0.03s0,0.02,0,0.03c0,0.05,0.01,0.09,0.03,0.13
	c0.09,0.24,0.32,0.4,0.57,0.4h0.01c0.04,0,0.08-0.01,0.12-0.01c0.03-0.01,0.07-0.02,0.1-0.03c0.04-0.02,0.08-0.04,0.12-0.07
	c0.03-0.02,0.06-0.05,0.09-0.08c0.23-0.25,0.21-0.63-0.04-0.86C11.06,66.93,10.91,66.87,10.77,66.88L10.77,66.88z M2.81,66.19
	L2.81,66.19v0.89h0.85v0.85h0.89v-0.85H5.4v-0.89H4.55v-0.85H3.66v0.85L2.81,66.19z M11.74,65.9c-0.21,0-0.41,0.12-0.52,0.3
	c-0.02,0.03-0.03,0.06-0.04,0.1c-0.01,0.03-0.02,0.07-0.03,0.1c-0.01,0.04-0.01,0.07-0.01,0.11l0,0c0.01,0.34,0.28,0.6,0.62,0.6
	c0.18,0,0.35-0.08,0.46-0.22c0.04-0.06,0.08-0.12,0.1-0.19c0.02-0.06,0.03-0.12,0.03-0.19C12.34,66.17,12.07,65.9,11.74,65.9
	L11.74,65.9z M9.79,65.9c-0.33-0.01-0.6,0.26-0.61,0.59c0,0.17,0.07,0.34,0.2,0.46c0.04,0.04,0.09,0.08,0.15,0.1
	c0.08,0.04,0.17,0.06,0.27,0.06c0.33,0.01,0.62-0.25,0.63-0.58c0.01-0.33-0.25-0.62-0.58-0.63C9.82,65.9,9.8,65.9,9.79,65.9
	L9.79,65.9z M10.76,64.92c-0.33,0-0.61,0.27-0.61,0.61c0,0.07,0.01,0.14,0.04,0.2c0.03,0.08,0.07,0.15,0.13,0.21l0,0l0,0
	c0.11,0.12,0.27,0.19,0.44,0.19c0.02,0,0.05,0,0.07,0c0.33-0.04,0.57-0.35,0.52-0.68C11.32,65.15,11.07,64.93,10.76,64.92
	L10.76,64.92z M16.93,71.2c-0.59,0-1.18-0.07-1.76-0.21c0.01-0.06,0.02-0.13,0.04-0.21c0.05,0.01,0.09,0.02,0.14,0.03l0.03,0.01
	l0.44-1.14c-0.2-0.04-0.38-0.08-0.54-0.12c0-0.07,0-0.14-0.01-0.22c3.2,0.91,6.53-0.94,7.45-4.14c0.53-1.85,0.14-3.83-1.03-5.35
	c0-0.04-0.01-0.08-0.01-0.12c0-0.02,0-0.05-0.01-0.07c-0.01-0.07-0.02-0.13-0.03-0.2c-0.11-0.74-0.32-1.46-0.63-2.14
	c-0.02-0.03-0.03-0.07-0.05-0.1l-0.03-0.07l-0.07-0.14l-0.02-0.04c3.63,2.16,4.82,6.85,2.66,10.49
	C22.12,69.78,19.62,71.2,16.93,71.2L16.93,71.2z M21.29,68L21.29,68c-0.53,0.51-1.14,0.93-1.81,1.23l-0.05,0.02l-0.04,0.02
	l0.79,0.96c0.69-0.33,1.32-0.77,1.88-1.29L21.29,68L21.29,68z M24.16,61.8L22.96,62c0.19,0.74,0.25,1.52,0.16,2.28l1.23-0.2
	C24.4,63.31,24.34,62.55,24.16,61.8L24.16,61.8z M15.19,68.42L15.19,68.42l-0.01-0.05l0,0l-0.01-0.05l0,0V68.3
	c0-0.03-0.01-0.06-0.01-0.09c-0.05-0.36-0.11-0.74-0.2-1.14c-0.01-0.03-0.01-0.06-0.02-0.09v-0.01c-0.01-0.04-0.02-0.07-0.02-0.1
	c-0.01-0.03-0.01-0.07-0.02-0.1c2.98-0.53,5.15-3.12,5.14-6.15c0-0.86-0.18-1.71-0.52-2.5c-0.04-0.1-0.09-0.19-0.14-0.29
	c-0.26-0.51-0.58-0.99-0.97-1.41c-0.06-0.06-0.12-0.13-0.19-0.2c-0.04-0.04-0.08-0.08-0.13-0.13s-0.08-0.08-0.12-0.12l-0.01-0.01
	c-2.57-2.31-6.52-2.1-8.82,0.47c-1.03,1.15-1.6,2.64-1.6,4.18c0,0.72,0.12,1.43,0.36,2.1l0,0c-0.03,0.01-0.07,0.01-0.1,0.02l0,0l0,0
	l-0.05,0.01l-0.05,0.01c-0.07,0.01-0.14,0.02-0.22,0.03h-0.1c-0.36-0.04-0.72-0.1-1.07-0.19l-0.06-0.01L6.2,62.56l0,0
	c-0.04-0.01-0.07-0.02-0.11-0.03l0,0c-1.06-4.25,1.53-8.55,5.78-9.61c2.08-0.52,4.27-0.17,6.09,0.95c1.22,0.76,2.21,1.83,2.87,3.1
	c-0.05-0.03-0.11-0.07-0.17-0.1s-0.12-0.07-0.17-0.09c-0.09-0.17-0.2-0.33-0.33-0.52l-0.35,0.21l-0.23,0.13l-0.51,0.29
	c0.24,0.33,0.44,0.69,0.61,1.06c0.04,0.09,0.08,0.19,0.13,0.3c0.1,0.26,0.19,0.52,0.25,0.79l0.51-0.3c0.32,0.24,0.61,0.5,0.87,0.8
	c0.05,0.05,0.09,0.1,0.12,0.15l0,0l0,0c0.04,0.05,0.08,0.1,0.12,0.15c0.02,0.25,0.04,0.51,0.04,0.76
	C21.71,64.44,18.96,67.73,15.19,68.42L15.19,68.42z M19.65,63.32L19.65,63.32c-0.33,0.72-0.8,1.38-1.37,1.93l1.13,0.65
	c0.54-0.58,1-1.24,1.34-1.95L19.65,63.32L19.65,63.32z M7.41,56.26L7.41,56.26c-0.45,0.65-0.79,1.37-1.02,2.13l1.12,0.65
	c0.2-0.77,0.54-1.5,1-2.15L7.41,56.26z M13.78,54.15c0.4,0,0.79,0.04,1.18,0.11v-1.28c-0.78-0.12-1.58-0.12-2.36,0v1.28
	C12.99,54.19,13.39,54.15,13.78,54.15z M14.63,65.84L14.63,65.84c-0.16-0.53-0.37-1.05-0.63-1.54l-0.01-0.01
	c-0.54-1.27-1.77-2.1-3.15-2.13c-0.23,0-0.45,0.02-0.68,0.06c0.18-0.63,0.51-1.21,0.97-1.68c0.19-0.2,0.41-0.38,0.64-0.53
	c0.51,0.52,1.21,0.82,1.94,0.85c0.75-0.03,1.47-0.33,2.02-0.85c0.48,0.28,0.9,0.64,1.24,1.08c0.3,0.38,0.55,0.79,0.74,1.24
	c0.21,0.46,0.36,0.94,0.44,1.44c-0.46,0.57-1.04,1.03-1.68,1.37C15.9,65.44,15.27,65.67,14.63,65.84L14.63,65.84z M13.78,60.16
	c-1.13,0-2.04-0.91-2.04-2.04c0-1.13,0.91-2.04,2.04-2.04s2.04,0.91,2.04,2.04l0,0C15.83,59.24,14.91,60.16,13.78,60.16z"/>
<path id="search_icon" class="st0" d="M12.84,78.24c3.92,0,7.1,3.18,7.1,7.1c0,1.68-0.59,3.3-1.68,4.58l4.63,4.63
	c0.23,0.23,0.23,0.6,0,0.83c-0.11,0.11-0.26,0.17-0.42,0.17c-0.16,0-0.31-0.06-0.42-0.17l-4.63-4.63c-0.49,0.41-1.03,0.76-1.62,1.03
	c-0.02-0.08-0.04-0.16-0.06-0.24l-0.02-0.09c-0.07-0.28-0.15-0.56-0.23-0.82c0.57-0.28,1.08-0.65,1.53-1.1
	c2.31-2.31,2.31-6.06,0-8.37c-2.31-2.31-6.06-2.31-8.37,0c-1.68,1.68-2.19,4.19-1.31,6.39c-0.35-0.09-0.6-0.15-0.86-0.21
	C6.32,87.3,6.16,87.28,6,87.26c-1.06-3.77,1.13-7.69,4.9-8.75C11.53,78.33,12.18,78.24,12.84,78.24L12.84,78.24z M12.84,80.86
	c1.85,0.06,3.44,1.3,3.95,3.08c0.06,0.32-0.15,0.63-0.47,0.69c-0.27,0.05-0.55-0.1-0.65-0.36c-0.37-1.27-1.5-2.16-2.82-2.23
	c-0.1,0-0.21,0.01-0.32,0.01h-0.06c-0.3,0-0.56-0.23-0.59-0.53c-0.03-0.32,0.21-0.61,0.53-0.64c0,0,0,0,0,0
	C12.55,80.87,12.7,80.86,12.84,80.86L12.84,80.86z M16.72,85.52c0.33,0,0.59,0.26,0.59,0.59c0,0.33-0.26,0.59-0.59,0.59
	s-0.59-0.26-0.59-0.59C16.13,85.78,16.4,85.52,16.72,85.52z M11.72,88.02c1,0.04,1.89,0.67,2.26,1.6c0.21,0.39,0.38,0.8,0.52,1.23
	c0.07,0.22,0.15,0.47,0.22,0.77v0.01c0,0.01,0,0.01,0.01,0.02c0.01,0.04,0.02,0.07,0.02,0.1c0.01,0.03,0.01,0.05,0.02,0.07
	l0.01,0.03c0.08,0.35,0.16,0.75,0.22,1.17c0,0.01,0,0.03,0,0.04c0,0.02,0,0.04,0.01,0.06c0.01,0.03,0.01,0.07,0.01,0.1l0.01,0.05
	c0.02,0.14,0.03,0.27,0.04,0.41c0.01,0.06,0.01,0.12,0.01,0.18v0.04c0,0.02,0,0.04,0,0.06c0,0.02,0,0.03,0,0.05
	c0.02,0.37,0,0.73-0.04,1.1c0,0.04-0.01,0.07-0.02,0.11c-0.01,0.04-0.01,0.06-0.01,0.09c-0.03,0.2-0.08,0.39-0.16,0.57
	c-0.13,0.36-0.42,0.64-0.78,0.75c-0.1,0.03-0.21,0.04-0.32,0.04c-0.25-0.01-0.5-0.06-0.73-0.16c-0.78-0.37-1.49-0.88-2.09-1.49
	c-0.69-0.53-1.54-0.79-2.41-0.74C7.66,94.21,6.8,94.47,6.12,95c-0.61,0.61-1.32,1.12-2.1,1.49c-0.22,0.1-0.46,0.16-0.71,0.16
	c-0.12,0-0.23-0.02-0.34-0.04c-0.36-0.11-0.65-0.39-0.78-0.74C1.98,95.27,1.9,94.64,1.96,94c0.03-0.65,0.12-1.3,0.26-1.93
	c0.03-0.13,0.06-0.28,0.1-0.44c0.05-0.21,0.12-0.44,0.2-0.7c0.14-0.45,0.32-0.88,0.54-1.3c0.37-0.94,1.26-1.57,2.27-1.61
	c0.55,0.03,1.09,0.12,1.61,0.28l0.09,0.02c0.17,0.04,0.35,0.08,0.52,0.12l0.07,0.02l0.04,0.01h0.02c0.03,0.01,0.06,0.01,0.09,0.02
	c0.22,0.04,0.44,0.08,0.67,0.1H8.6c0.18-0.02,0.35-0.04,0.48-0.07l0.05-0.01l0.06-0.01c0.03-0.01,0.06-0.01,0.1-0.02
	c0.06-0.01,0.12-0.02,0.18-0.04c0.14-0.03,0.28-0.06,0.41-0.1l0.23-0.05c0.29-0.08,0.57-0.15,0.84-0.2l0.03-0.01
	C11.23,88.04,11.48,88.02,11.72,88.02L11.72,88.02z M11.66,90.95h0.04h0.03c0.31-0.04,0.53-0.33,0.48-0.64
	c-0.04-0.27-0.27-0.48-0.55-0.49c-0.05,0-0.11,0.01-0.16,0.02c-0.2,0.06-0.35,0.22-0.39,0.42v0.01c-0.01,0.04-0.02,0.08-0.02,0.12
	c0,0.04,0.01,0.09,0.02,0.13c0,0.02,0.01,0.04,0.02,0.06c0.02,0.05,0.04,0.1,0.07,0.15c0.01,0.01,0.01,0.02,0.02,0.02
	c0.01,0.01,0.02,0.02,0.02,0.03c0.07,0.07,0.16,0.13,0.25,0.16c0.01,0,0.02,0.01,0.04,0.01c0.01,0,0.02,0.01,0.03,0.01
	C11.59,90.95,11.63,90.96,11.66,90.95z M6.63,91.84v-0.84H5.83v-0.8H5v0.8H4.2v0.84H5v0.8h0.84v-0.8L6.63,91.84z M10.74,91.88
	c0.31,0,0.57-0.25,0.57-0.56c0,0,0,0,0-0.01v-0.02c0-0.04,0-0.08-0.01-0.11c-0.03-0.12-0.09-0.22-0.18-0.3l-0.02-0.01l-0.01-0.01
	c-0.04-0.03-0.08-0.05-0.12-0.08h0c-0.07-0.03-0.14-0.04-0.22-0.04c-0.08,0-0.15,0.02-0.22,0.04c-0.16,0.07-0.29,0.21-0.33,0.39
	c-0.01,0.04-0.02,0.09-0.02,0.13c0,0.14,0.05,0.27,0.14,0.37c0,0.01,0.01,0.01,0.02,0.02l0.01,0.01c0,0,0.01,0.01,0.01,0.01
	l0.01,0.01l0.14,0.09l0.02,0.01l0.02,0.01C10.6,91.86,10.67,91.88,10.74,91.88z M12.57,91.88c0.17,0,0.34-0.08,0.44-0.22
	c0.02-0.03,0.04-0.06,0.06-0.09c0.02-0.03,0.03-0.06,0.04-0.09c0.02-0.06,0.03-0.12,0.03-0.18c0-0.31-0.25-0.57-0.57-0.57
	c-0.2,0-0.39,0.11-0.49,0.28c-0.02,0.03-0.03,0.06-0.04,0.09c-0.01,0.03-0.02,0.06-0.02,0.1C12.01,91.24,12,91.27,12,91.3
	C12.01,91.62,12.26,91.87,12.57,91.88L12.57,91.88z M11.66,92.79c0.04,0,0.08,0,0.11-0.01c0.03-0.01,0.07-0.02,0.1-0.03
	c0.04-0.02,0.08-0.04,0.11-0.07l0.03-0.03c0.02-0.01,0.04-0.03,0.05-0.05c0.1-0.11,0.15-0.25,0.15-0.39c0-0.31-0.25-0.57-0.57-0.57
	c-0.3,0-0.54,0.23-0.57,0.52c0,0.02,0,0.03,0,0.05c0,0.01,0,0.02,0,0.03s0,0.02,0,0.03C11.13,92.56,11.37,92.78,11.66,92.79
	L11.66,92.79z"/>
<path id="all_games_ivon_1_" class="st1" d="M14.03,123.04c-0.06,0-0.12-0.01-0.18-0.03l-5.22-1.44c-0.37-0.1-0.58-0.48-0.48-0.85
	c0,0,0,0,0,0l0.45-1.64l0.15-0.56l-0.03-0.01H8.71c0.02-0.03,0.04-0.05,0.06-0.08l0.59-2.15l0.22-0.79
	c0.06-0.23,0.24-0.41,0.48-0.48c0.06-0.02,0.13-0.03,0.19-0.03c0.05,0,0.11,0.01,0.16,0.02h0.01h0.01l5.22,1.44
	c0.37,0.1,0.58,0.48,0.48,0.85l-0.4,1.46l-1.04,3.77c-0.06,0.23-0.24,0.41-0.48,0.48C14.16,123.03,14.1,123.04,14.03,123.04z
	 M13.46,120.63c-0.07,0-0.14,0.01-0.2,0.03c-0.38,0.11-0.6,0.5-0.49,0.88c0.07,0.24,0.26,0.42,0.5,0.49c0.13,0.04,0.26,0.04,0.39,0
	c0.38-0.11,0.6-0.5,0.49-0.88c-0.07-0.24-0.26-0.42-0.5-0.49C13.59,120.64,13.52,120.63,13.46,120.63z M12.2,118.26
	c-0.07,0-0.14,0.01-0.2,0.03c-0.38,0.11-0.6,0.51-0.48,0.89c0.07,0.24,0.26,0.42,0.49,0.49c0.06,0.02,0.13,0.02,0.19,0.03
	c0.07,0,0.14-0.01,0.2-0.03c0.38-0.11,0.6-0.51,0.48-0.89c-0.07-0.24-0.26-0.42-0.49-0.49C12.33,118.27,12.26,118.26,12.2,118.26z
	 M10.82,115.98c-0.07,0-0.14,0.01-0.2,0.03c-0.05,0.01-0.1,0.03-0.14,0.06c-0.17,0.09-0.29,0.25-0.34,0.44
	c-0.1,0.38,0.13,0.78,0.51,0.88c0.06,0.01,0.12,0.02,0.17,0.02c0.07,0,0.14-0.01,0.2-0.03c0.24-0.07,0.42-0.25,0.49-0.49l0,0
	c0.1-0.38-0.12-0.77-0.5-0.88C10.95,115.99,10.88,115.98,10.82,115.98L10.82,115.98z M2.71,119.99c-0.31,0-0.58-0.21-0.66-0.5
	l-1.51-5.2c-0.11-0.37,0.1-0.75,0.47-0.86l4.03-1.18l1.17-0.34c0.06-0.02,0.13-0.03,0.19-0.03c0.31,0,0.58,0.21,0.67,0.5l0.21,0.72
	l0.83,2.84l0,0l0.28,0.97l-0.01,0.02l-0.34,1.22l-0.09,0.33l-0.76,0.22l-4.29,1.25C2.84,119.98,2.77,119.99,2.71,119.99L2.71,119.99
	z M3.26,117.57c-0.39,0.01-0.7,0.35-0.69,0.74c0.01,0.37,0.31,0.67,0.69,0.69c0.39,0,0.71-0.32,0.71-0.72c0-0.07-0.01-0.13-0.03-0.2
	C3.86,117.78,3.58,117.57,3.26,117.57L3.26,117.57z M6.89,116.51c-0.39,0-0.71,0.32-0.71,0.71c0,0.07,0.01,0.13,0.03,0.2
	c0.09,0.3,0.37,0.51,0.68,0.51c0.07,0,0.14-0.01,0.2-0.03c0.38-0.11,0.59-0.51,0.48-0.88c-0.08-0.26-0.3-0.46-0.57-0.5
	C6.97,116.51,6.93,116.51,6.89,116.51L6.89,116.51z M4.58,115.16c-0.39,0-0.72,0.32-0.72,0.71c0,0.39,0.32,0.72,0.71,0.72
	c0.39,0,0.72-0.32,0.72-0.71c0-0.07-0.01-0.14-0.03-0.2C5.18,115.37,4.9,115.16,4.58,115.16z M2.2,113.94
	c-0.07,0-0.14,0.01-0.2,0.03c-0.38,0.11-0.59,0.51-0.48,0.88c0,0,0,0,0,0c0.11,0.38,0.51,0.6,0.88,0.49
	c0.38-0.11,0.6-0.51,0.49-0.88C2.8,114.15,2.52,113.94,2.2,113.94L2.2,113.94z M5.83,112.88c-0.07,0-0.14,0.01-0.2,0.03
	c-0.38,0.11-0.6,0.5-0.49,0.88c0.05,0.16,0.15,0.3,0.29,0.4c0.33,0.22,0.77,0.13,0.99-0.2c0.12-0.17,0.15-0.39,0.09-0.59
	C6.43,113.09,6.15,112.88,5.83,112.88z M18.62,119.92c-0.05,0-0.1,0-0.14-0.01c-0.14-0.02-0.29-0.05-0.42-0.11l-1.6-0.71l0.43-1.57
	c0.1-0.38,0.05-0.78-0.14-1.12c-0.19-0.34-0.51-0.59-0.89-0.69l-5.14-1.42l4.21-9.45c0.25-0.55,0.82-0.89,1.43-0.82
	c0.15,0.02,0.29,0.05,0.42,0.11l6.9,3.07c0.7,0.31,1.02,1.14,0.71,1.84l-4.47,10.05C19.68,119.6,19.18,119.92,18.62,119.92
	L18.62,119.92z M16.48,108.49c-0.65,0.03-1.23,0.42-1.52,1c-0.37,0.69-0.72,2.29,1.17,5.15c1.19-0.14,2.33-0.52,3.36-1.13
	c0.6-0.35,1.05-0.9,1.28-1.56c0.21-0.62,0.05-1.31-0.41-1.78c-0.3-0.29-0.69-0.45-1.1-0.46c-0.44,0.01-0.85,0.19-1.16,0.49
	c-0.13-1.03-0.63-1.61-1.49-1.7C16.57,108.49,16.53,108.49,16.48,108.49z M8.77,115.48L8.77,115.48l-0.46-1.59L9.24,105
	c0.09-0.72,0.69-1.25,1.41-1.26c0.05,0,0.1,0,0.15,0.01l3.25,0.34c-0.06,0.08-0.1,0.16-0.14,0.25l0,0l-0.02,0.04l-4.47,10.05
	l-0.01,0.02l-0.01,0.02c-0.29,0.2-0.5,0.49-0.59,0.83L8.77,115.48L8.77,115.48z M7.43,111.54L7.43,111.54
	c-0.28-0.28-0.65-0.43-1.04-0.43c-0.14,0-0.28,0.02-0.41,0.06l-1.12,0.33l-0.98-4.6c-0.16-0.75,0.32-1.49,1.07-1.66l3.24-0.69
	l-0.01,0.07l0,0c-0.02,0.09-0.04,0.18-0.06,0.27L7.43,111.54L7.43,111.54z"/>
<path id="Exclusion_4_1_" class="st1" d="M17,147.51c-0.18,0-0.36-0.07-0.49-0.2l-3.83-3.83c-0.27-0.27-0.27-0.71,0-0.98l3.83-3.83
	c0.27-0.27,0.71-0.27,0.98,0l3.83,3.83c0.27,0.27,0.27,0.71,0,0.98l-3.83,3.83C17.36,147.44,17.18,147.51,17,147.51z M17,144.95
	c-0.39,0-0.71,0.32-0.71,0.71c0,0.39,0.32,0.71,0.71,0.71c0.39,0,0.71-0.32,0.71-0.71c0-0.19-0.07-0.37-0.21-0.51
	C17.36,145.02,17.18,144.95,17,144.95L17,144.95z M19.67,142.28c-0.39,0-0.71,0.32-0.71,0.71c0,0.39,0.32,0.71,0.71,0.71
	c0.39,0,0.71-0.32,0.71-0.71c0-0.19-0.07-0.37-0.21-0.51C20.04,142.35,19.86,142.28,19.67,142.28z M14.32,142.28
	c-0.39,0-0.71,0.32-0.71,0.71c0,0.39,0.32,0.71,0.71,0.71c0.39,0,0.71-0.32,0.71-0.71c0-0.19-0.07-0.37-0.21-0.51
	C14.69,142.35,14.51,142.28,14.32,142.28z M17.07,142.28c-0.39,0-0.71,0.32-0.71,0.71c0,0.39,0.32,0.71,0.71,0.71
	s0.71-0.32,0.71-0.71c0-0.19-0.07-0.37-0.21-0.51C17.44,142.35,17.26,142.27,17.07,142.28L17.07,142.28z M17,139.61
	c-0.39,0-0.71,0.31-0.72,0.71c0,0.39,0.31,0.71,0.71,0.72c0.39,0,0.71-0.31,0.72-0.71c0-0.19-0.07-0.37-0.21-0.51
	C17.37,139.68,17.19,139.6,17,139.61L17,139.61z M7.71,146.17H6.82c-1.84,0-3.33-1.49-3.33-3.33v-0.89c0-1.84,1.49-3.33,3.33-3.34
	h0.89c1.84,0,3.33,1.49,3.34,3.33v0.89C11.04,144.67,9.55,146.16,7.71,146.17z M17.04,136.83h-0.89c-1.84,0-3.33-1.49-3.33-3.33
	v-0.89c0-1.84,1.49-3.33,3.33-3.34h0.89c1.84,0,3.33,1.49,3.33,3.34v0.89C20.37,135.34,18.88,136.83,17.04,136.83z M7.71,136.83
	H6.82c-1.84,0-3.33-1.49-3.33-3.33v-0.89c0-1.84,1.49-3.33,3.33-3.34h0.89c1.84,0,3.33,1.49,3.34,3.34v0.89
	C11.04,135.34,9.55,136.83,7.71,136.83z"/>
<path id="providers_icon_1_" class="st1" d="M1.87,173.15c-0.12,0-0.25-0.02-0.37-0.05c-0.38-0.12-0.69-0.41-0.84-0.79
	c-0.22-0.64-0.31-1.32-0.25-1.99c0.05-0.86,0.17-1.7,0.38-2.53c0.17-0.74,0.44-1.46,0.79-2.13c0.27-0.54,0.67-1.01,1.16-1.36
	c0.37-0.24,0.81-0.37,1.26-0.36c0.57,0.03,1.14,0.13,1.68,0.29l0.04,0.01l0.17,0.04l0,0c0.16,0.04,0.32,0.08,0.48,0.11
	c0.04,0.01,0.07,0.02,0.11,0.03H6.5l0.05,0.01h0.01l0.07,0.01c0.24,0.05,0.47,0.09,0.71,0.11h0.17c0.16-0.01,0.32-0.04,0.51-0.07
	l0.11-0.02l0.05-0.01l0.06-0.01c0.24-0.05,0.48-0.11,0.71-0.16l0,0l0.16-0.04c0.32-0.08,0.61-0.16,0.9-0.22
	c0.27-0.06,0.55-0.09,0.83-0.09c1.07,0.04,2.02,0.71,2.42,1.71c0.22,0.42,0.4,0.86,0.55,1.31c0.08,0.24,0.16,0.51,0.24,0.82v0.02
	v0.01l0.01,0.05l0.01,0.05l0.01,0.06l0.01,0.05c0.1,0.42,0.17,0.84,0.23,1.25c0.01,0.03,0.01,0.06,0.01,0.09v0.02l0.01,0.04l0,0
	l0.01,0.06c0.02,0.19,0.04,0.35,0.05,0.49c0.01,0.07,0.01,0.15,0.02,0.22v0.02c0,0.02,0,0.05,0,0.07v0.05
	c0.02,0.39,0.01,0.78-0.04,1.17c-0.01,0.08-0.02,0.15-0.03,0.21c-0.03,0.21-0.09,0.41-0.18,0.61c-0.14,0.38-0.45,0.68-0.84,0.8
	c-0.11,0.03-0.23,0.04-0.34,0.04c-0.27-0.01-0.53-0.06-0.78-0.16c-0.83-0.4-1.59-0.94-2.23-1.59c-0.73-0.56-1.64-0.84-2.57-0.79
	c-0.92-0.06-1.83,0.22-2.57,0.79c-0.64,0.66-1.4,1.2-2.22,1.6C2.38,173.09,2.13,173.15,1.87,173.15z M10.77,167.82
	c-0.31,0-0.58,0.24-0.6,0.55c0,0.02,0,0.04,0,0.05c0,0.01,0,0.02,0,0.03c0,0.01,0,0.02,0,0.03c0,0.05,0.01,0.09,0.03,0.13
	c0.09,0.24,0.32,0.4,0.57,0.4h0.01c0.04,0,0.08-0.01,0.12-0.01c0.03-0.01,0.07-0.02,0.1-0.03c0.04-0.02,0.08-0.04,0.12-0.07
	c0.03-0.02,0.06-0.05,0.09-0.08c0.23-0.25,0.21-0.63-0.04-0.86C11.06,167.88,10.91,167.82,10.77,167.82L10.77,167.82z M2.81,167.14
	L2.81,167.14v0.89h0.85v0.85h0.89v-0.85H5.4v-0.89H4.55v-0.85H3.66v0.85L2.81,167.14z M11.74,166.85c-0.21,0-0.41,0.12-0.52,0.3
	c-0.02,0.03-0.03,0.06-0.04,0.1c-0.01,0.03-0.02,0.07-0.03,0.1c-0.01,0.04-0.01,0.07-0.01,0.11l0,0c0.01,0.34,0.28,0.6,0.62,0.6
	c0.18,0,0.35-0.08,0.46-0.22c0.04-0.06,0.08-0.12,0.1-0.19c0.02-0.06,0.03-0.12,0.03-0.19C12.34,167.12,12.07,166.85,11.74,166.85
	L11.74,166.85z M9.79,166.85c-0.33-0.01-0.6,0.26-0.61,0.59c0,0.17,0.07,0.34,0.2,0.46c0.04,0.04,0.09,0.08,0.15,0.1
	c0.08,0.04,0.17,0.06,0.27,0.06c0.33,0.01,0.62-0.25,0.63-0.58c0.01-0.33-0.25-0.62-0.58-0.63C9.82,166.85,9.8,166.85,9.79,166.85
	L9.79,166.85z M10.76,165.87c-0.33,0-0.61,0.27-0.61,0.61c0,0.07,0.01,0.14,0.04,0.2c0.03,0.08,0.07,0.15,0.13,0.21l0,0l0,0
	c0.11,0.12,0.27,0.19,0.44,0.19c0.02,0,0.05,0,0.07,0c0.33-0.04,0.57-0.35,0.52-0.68C11.32,166.1,11.07,165.87,10.76,165.87
	L10.76,165.87z M16.93,172.14c-0.59,0-1.18-0.07-1.76-0.21c0.01-0.06,0.02-0.13,0.04-0.21c0.05,0.01,0.09,0.02,0.14,0.03l0.03,0.01
	l0.44-1.14c-0.2-0.04-0.38-0.08-0.54-0.12c0-0.07,0-0.14-0.01-0.22c3.2,0.91,6.53-0.94,7.45-4.14c0.53-1.85,0.14-3.83-1.03-5.35
	c0-0.04-0.01-0.08-0.01-0.12c0-0.02,0-0.05-0.01-0.07c-0.01-0.07-0.02-0.13-0.03-0.2c-0.11-0.74-0.32-1.46-0.63-2.13
	c-0.02-0.04-0.03-0.07-0.05-0.1l-0.03-0.07l-0.07-0.14l-0.02-0.04c3.63,2.16,4.82,6.85,2.66,10.49
	C22.12,170.73,19.62,172.15,16.93,172.14L16.93,172.14z M21.29,168.94L21.29,168.94c-0.53,0.51-1.14,0.93-1.81,1.23l-0.05,0.02
	l-0.04,0.02l0.79,0.96c0.69-0.33,1.32-0.77,1.88-1.29L21.29,168.94L21.29,168.94z M24.16,162.75l-1.2,0.19
	c0.19,0.74,0.25,1.52,0.16,2.28l1.23-0.2C24.4,164.26,24.34,163.49,24.16,162.75L24.16,162.75z M15.19,169.37L15.19,169.37
	l-0.01-0.05l0,0l-0.01-0.05l0,0v-0.02c0-0.03-0.01-0.06-0.01-0.09c-0.05-0.36-0.11-0.74-0.2-1.14c-0.01-0.03-0.01-0.06-0.02-0.09
	v-0.01c-0.01-0.04-0.02-0.07-0.02-0.1c-0.01-0.03-0.01-0.07-0.02-0.1c2.98-0.53,5.15-3.12,5.14-6.15c0-0.86-0.18-1.71-0.52-2.5
	c-0.04-0.1-0.09-0.19-0.14-0.29c-0.26-0.51-0.58-0.99-0.97-1.41c-0.06-0.06-0.12-0.13-0.19-0.2c-0.04-0.04-0.08-0.08-0.13-0.13
	c-0.04-0.04-0.08-0.08-0.12-0.12l-0.01-0.01c-2.57-2.31-6.52-2.1-8.82,0.47c-1.03,1.15-1.6,2.64-1.6,4.18c0,0.72,0.12,1.43,0.36,2.1
	l0,0c-0.03,0.01-0.07,0.01-0.1,0.02l0,0l0,0l-0.05,0.01l-0.05,0.01c-0.07,0.01-0.14,0.02-0.22,0.03h-0.1
	c-0.36-0.04-0.72-0.1-1.07-0.19l-0.06-0.01L6.2,163.5l0,0c-0.04-0.01-0.07-0.02-0.11-0.03l0,0c-1.06-4.25,1.53-8.55,5.78-9.61
	c2.08-0.52,4.27-0.17,6.09,0.95c1.22,0.76,2.21,1.83,2.87,3.1c-0.05-0.03-0.11-0.07-0.17-0.1s-0.12-0.07-0.17-0.09
	c-0.09-0.17-0.2-0.34-0.33-0.52l-0.35,0.21l-0.23,0.13l-0.51,0.29c0.24,0.33,0.44,0.69,0.61,1.06c0.04,0.09,0.08,0.19,0.13,0.3
	c0.1,0.26,0.19,0.52,0.25,0.79l0.51-0.3c0.32,0.24,0.61,0.5,0.87,0.8c0.05,0.05,0.09,0.1,0.12,0.15l0,0l0,0
	c0.04,0.05,0.08,0.1,0.12,0.15c0.02,0.25,0.04,0.51,0.04,0.76C21.71,165.39,18.96,168.67,15.19,169.37L15.19,169.37z M19.65,164.27
	L19.65,164.27c-0.33,0.72-0.8,1.38-1.37,1.93l1.13,0.65c0.54-0.58,1-1.24,1.34-1.95L19.65,164.27L19.65,164.27z M7.41,157.21
	L7.41,157.21c-0.45,0.65-0.79,1.37-1.02,2.13l1.12,0.65c0.2-0.77,0.54-1.5,1-2.15L7.41,157.21z M13.78,155.1
	c0.4,0,0.79,0.04,1.18,0.11v-1.28c-0.78-0.12-1.58-0.12-2.36,0v1.28C12.99,155.14,13.39,155.1,13.78,155.1z M14.63,166.78
	L14.63,166.78c-0.16-0.53-0.37-1.05-0.63-1.54l-0.01-0.01c-0.54-1.27-1.77-2.1-3.15-2.13c-0.23,0-0.45,0.02-0.68,0.05
	c0.18-0.63,0.51-1.21,0.97-1.68c0.19-0.2,0.41-0.38,0.64-0.53c0.51,0.52,1.21,0.82,1.94,0.85c0.75-0.03,1.47-0.33,2.02-0.85
	c0.48,0.28,0.9,0.64,1.24,1.08c0.3,0.38,0.55,0.79,0.74,1.24c0.21,0.46,0.36,0.94,0.44,1.44c-0.46,0.57-1.04,1.03-1.68,1.37
	C15.9,166.39,15.27,166.62,14.63,166.78L14.63,166.78z M13.78,161.1c-1.13,0-2.04-0.91-2.04-2.04c0-1.13,0.91-2.04,2.04-2.04
	s2.04,0.91,2.04,2.04l0,0C15.83,160.19,14.91,161.1,13.78,161.1z"/>
<path id="search_icon_1_" class="st1" d="M12.84,179.18c3.92,0,7.1,3.18,7.1,7.1c0,1.68-0.59,3.3-1.68,4.58l4.63,4.63
	c0.23,0.23,0.23,0.6,0,0.84c-0.11,0.11-0.26,0.17-0.42,0.17c-0.16,0-0.31-0.06-0.42-0.17l-4.63-4.63c-0.49,0.41-1.03,0.76-1.62,1.03
	c-0.02-0.08-0.04-0.16-0.06-0.24l-0.02-0.09c-0.07-0.28-0.15-0.56-0.23-0.82c0.57-0.28,1.08-0.65,1.53-1.1
	c2.31-2.31,2.31-6.06,0-8.37c-2.31-2.31-6.06-2.31-8.37,0c-1.68,1.68-2.19,4.19-1.31,6.39c-0.35-0.09-0.6-0.15-0.86-0.21
	c-0.16-0.03-0.32-0.06-0.48-0.07c-1.06-3.77,1.13-7.69,4.9-8.75C11.53,179.28,12.18,179.19,12.84,179.18L12.84,179.18z
	 M12.84,181.81c1.85,0.06,3.44,1.3,3.95,3.08c0.06,0.32-0.15,0.63-0.47,0.69c-0.27,0.05-0.55-0.1-0.65-0.36
	c-0.37-1.27-1.5-2.16-2.82-2.23c-0.1,0-0.21,0-0.32,0.01h-0.06c-0.3,0-0.56-0.23-0.59-0.54c-0.03-0.32,0.21-0.61,0.53-0.64
	c0,0,0,0,0,0C12.55,181.82,12.7,181.81,12.84,181.81L12.84,181.81z M16.72,186.47c0.33,0,0.59,0.26,0.59,0.59s-0.26,0.59-0.59,0.59
	s-0.59-0.26-0.59-0.59C16.13,186.73,16.4,186.47,16.72,186.47z M11.72,188.96c1,0.04,1.89,0.67,2.26,1.6
	c0.21,0.39,0.38,0.8,0.52,1.23c0.07,0.22,0.15,0.47,0.22,0.77v0c0,0.01,0,0.01,0.01,0.02c0.01,0.04,0.02,0.07,0.02,0.1
	s0.01,0.05,0.02,0.07l0.01,0.03c0.08,0.35,0.16,0.75,0.22,1.17c0,0.01,0,0.03,0,0.04c0,0.02,0,0.04,0.01,0.06
	c0.01,0.03,0.01,0.07,0.01,0.1l0.01,0.05c0.02,0.14,0.03,0.27,0.04,0.41c0.01,0.06,0.01,0.12,0.01,0.18v0.04c0,0.02,0,0.04,0,0.06
	s0,0.03,0,0.05c0.02,0.37,0,0.73-0.04,1.1c0,0.04-0.01,0.07-0.02,0.11c-0.01,0.04-0.01,0.06-0.01,0.09
	c-0.03,0.2-0.08,0.39-0.16,0.57c-0.13,0.36-0.42,0.64-0.78,0.75c-0.1,0.03-0.21,0.04-0.32,0.04c-0.25-0.01-0.5-0.06-0.73-0.16
	c-0.78-0.37-1.49-0.88-2.09-1.49c-0.69-0.53-1.54-0.79-2.41-0.74c-0.87-0.05-1.72,0.21-2.41,0.74c-0.61,0.61-1.32,1.12-2.1,1.49
	c-0.22,0.1-0.46,0.16-0.71,0.16c-0.12,0-0.23-0.02-0.34-0.04c-0.36-0.11-0.65-0.39-0.78-0.74c-0.21-0.6-0.29-1.24-0.23-1.87
	c0.03-0.65,0.12-1.3,0.26-1.93c0.03-0.13,0.06-0.28,0.1-0.44c0.05-0.21,0.12-0.44,0.2-0.7c0.14-0.45,0.32-0.88,0.54-1.3
	c0.37-0.94,1.26-1.57,2.27-1.61c0.55,0.03,1.09,0.12,1.61,0.28l0.09,0.02c0.17,0.04,0.35,0.08,0.52,0.12l0.07,0.02l0.04,0.01h0.02
	c0.03,0.01,0.06,0.01,0.09,0.02c0.22,0.04,0.44,0.08,0.67,0.1H8.6c0.18-0.02,0.35-0.04,0.48-0.07l0.05-0.01l0.06-0.01
	c0.03-0.01,0.06-0.01,0.1-0.02c0.06-0.01,0.12-0.02,0.18-0.04c0.14-0.03,0.28-0.06,0.41-0.1l0.23-0.05c0.29-0.08,0.57-0.15,0.84-0.2
	l0.03-0.01C11.23,188.99,11.48,188.96,11.72,188.96L11.72,188.96z M11.66,191.9h0.04h0.03c0.31-0.04,0.53-0.33,0.48-0.64
	c-0.04-0.27-0.27-0.48-0.55-0.49c-0.05,0-0.11,0.01-0.16,0.02c-0.2,0.06-0.35,0.22-0.39,0.42v0.01c-0.01,0.04-0.02,0.08-0.02,0.12
	c0,0.04,0.01,0.09,0.02,0.13c0,0.02,0.01,0.04,0.02,0.06c0.02,0.05,0.04,0.1,0.07,0.15c0.01,0.01,0.01,0.02,0.02,0.02
	c0.01,0.01,0.02,0.02,0.02,0.03c0.07,0.07,0.16,0.13,0.25,0.16c0.01,0,0.02,0.01,0.04,0.01c0.01,0,0.02,0.01,0.03,0.01
	C11.59,191.9,11.63,191.9,11.66,191.9z M6.63,192.79v-0.83H5.83v-0.8H5v0.8H4.2v0.84H5v0.8h0.84v-0.8L6.63,192.79z M10.74,192.82
	c0.31,0,0.57-0.25,0.57-0.56c0,0,0,0,0-0.01v-0.02c0-0.04,0-0.08-0.01-0.11c-0.03-0.12-0.09-0.22-0.18-0.3l-0.02-0.01l-0.01-0.01
	c-0.04-0.03-0.08-0.05-0.12-0.07h0c-0.07-0.03-0.14-0.04-0.22-0.04c-0.08,0-0.15,0.02-0.22,0.04c-0.16,0.07-0.29,0.21-0.33,0.39
	c-0.01,0.04-0.02,0.09-0.02,0.13c0,0.14,0.05,0.27,0.14,0.37c0,0.01,0.01,0.01,0.02,0.02l0.01,0.01c0,0,0.01,0.01,0.01,0.01
	l0.01,0.01l0.14,0.09l0.02,0.01l0.02,0.01C10.6,192.81,10.67,192.82,10.74,192.82z M12.57,192.82c0.17,0,0.34-0.08,0.44-0.22
	c0.02-0.03,0.04-0.06,0.06-0.09c0.02-0.03,0.03-0.06,0.04-0.09c0.02-0.06,0.03-0.12,0.03-0.17c0-0.31-0.25-0.57-0.57-0.57
	c-0.2,0-0.39,0.11-0.49,0.28c-0.02,0.03-0.03,0.06-0.04,0.09c-0.01,0.03-0.02,0.06-0.02,0.09c-0.01,0.03-0.01,0.07-0.01,0.1
	C12.01,192.56,12.26,192.82,12.57,192.82L12.57,192.82z M11.66,193.74c0.04,0,0.08,0,0.11-0.01c0.03-0.01,0.07-0.02,0.1-0.03
	c0.04-0.02,0.08-0.04,0.11-0.07l0.03-0.03c0.02-0.01,0.04-0.03,0.05-0.05c0.1-0.11,0.15-0.25,0.15-0.39c0-0.31-0.25-0.57-0.57-0.57
	c-0.3,0-0.54,0.23-0.57,0.52c0,0.02,0,0.03,0,0.05c0,0.01,0,0.02,0,0.04s0,0.02,0,0.03C11.13,193.51,11.37,193.72,11.66,193.74
	L11.66,193.74z"/>
</svg>
