<svg id="Layer_1" data-name="Layer 1" xmlns="http://www.w3.org/2000/svg" viewBox="0 0 1800 600"><defs><style>.cls-1{fill:#f4eed4;}.cls-2{fill:#3fb15b;}.cls-3{fill:#28b6f4;}.cls-4{fill:#ed5a3d;}</style></defs><title>card_pattern</title><rect class="cls-1" width="300" height="300"/><path class="cls-2" d="M8,61.91s-1-63,86-53c0,0,164,45,199,207,0,0,13,76-56,76H62s-56,8-56-66S8,61.91,8,61.91Z"/><rect class="cls-1" y="300" width="300" height="300" transform="translate(300 900) rotate(180)"/><path class="cls-2" d="M292,538.09s1,63-86,53c0,0-164-45-199-207,0,0-13-76,56-76H238s56-8,56,66S292,538.09,292,538.09Z"/><rect class="cls-1" x="299.5" width="300" height="300" transform="translate(899 300) rotate(180)"/><path class="cls-3" d="M591.49,61.91s1-63-86-53c0,0-164,45-199,207,0,0-13,76,56,76h175s56,8,56-66S591.49,61.91,591.49,61.91Z"/><rect class="cls-1" x="300" y="300" width="300" height="300" transform="translate(900 900) rotate(180)"/><path class="cls-3" d="M592,538.09s1,63-86,53c0,0-164-45-199-207,0,0-13-76,56-76H538s56-8,56,66S592,538.09,592,538.09Z"/><rect class="cls-1" x="599.5" y="300" width="300" height="300"/><path class="cls-4" d="M607.51,538.09s-1,63,86,53c0,0,164-45,199-207,0,0,13-76-56-76h-175s-56-8-56,66S607.51,538.09,607.51,538.09Z"/><rect class="cls-1" x="600" width="300" height="300" transform="translate(1500 300) rotate(180)"/><path class="cls-4" d="M892,238.09s1,63-86,53c0,0-164-45-199-207,0,0-13-76,56-76H838s56-8,56,66S892,238.09,892,238.09Z"/><rect class="cls-1" x="899.5" width="300" height="300" transform="translate(2099 300) rotate(180)"/><path class="cls-2" d="M1191.49,61.91s1-63-86-53c0,0-164,45-199,207,0,0-13,76,56,76h175s56,8,56-66S1191.49,61.91,1191.49,61.91Z"/><rect class="cls-1" x="899.5" y="300" width="300" height="300"/><path class="cls-2" d="M907.51,538.09s-1,63,86,53c0,0,164-45,199-207,0,0,13-76-56-76h-175s-56-8-56,66S907.51,538.09,907.51,538.09Z"/><rect class="cls-1" x="1200" y="300" width="300" height="300"/><path class="cls-4" d="M1208,361.91s-1-63,86-53c0,0,164,45,199,207,0,0,13,76-56,76H1262s-56,8-56-66S1208,361.91,1208,361.91Z"/><rect class="cls-1" x="1199.5" width="300" height="300" transform="translate(2699 300) rotate(180)"/><path class="cls-4" d="M1491.49,61.91s1-63-86-53c0,0-164,45-199,207,0,0-13,76,56,76h175s56,8,56-66S1491.49,61.91,1491.49,61.91Z"/><rect class="cls-1" x="1500" width="300" height="300"/><path class="cls-3" d="M1508,61.91s-1-63,86-53c0,0,164,45,199,207,0,0,13,76-56,76H1562s-56,8-56-66S1508,61.91,1508,61.91Z"/><rect class="cls-1" x="1499.5" y="300" width="300" height="300"/><path class="cls-3" d="M1507.51,538.09s-1,63,86,53c0,0,164-45,199-207,0,0,13-76-56-76h-175s-56-8-56,66S1507.51,538.09,1507.51,538.09Z"/></svg>