<?xml version="1.0" standalone="no"?>
<!DOCTYPE svg PUBLIC "-//W3C//DTD SVG 20010904//EN"
 "http://www.w3.org/TR/2001/REC-SVG-20010904/DTD/svg10.dtd">
<svg version="1.0" xmlns="http://www.w3.org/2000/svg"
 width="16.000000pt" height="16.000000pt" viewBox="0 0 16.000000 16.000000"
 preserveAspectRatio="xMidYMid meet">
<metadata>
Created by potrace 1.11, written by Peter Selinger 2001-2013
</metadata>
<g transform="translate(0.000000,16.000000) scale(0.000766,-0.000766)"
fill="#000000" stroke="none">
<path d="M0 10450 l0 -10450 10450 0 10450 0 0 10450 0 10450 -10450 0 -10450
0 0 -10450z m5235 1985 c90 -8 191 -24 230 -36 39 -11 90 -25 115 -30 119 -26
178 -41 210 -53 136 -54 177 -71 190 -82 8 -6 46 -26 85 -44 38 -18 83 -43
100 -56 16 -12 43 -26 58 -30 16 -3 61 -36 100 -73 40 -36 90 -80 112 -96 60
-44 204 -195 222 -234 9 -19 34 -52 55 -75 56 -58 105 -136 133 -209 13 -36
35 -81 49 -102 14 -21 26 -46 26 -56 0 -9 14 -29 32 -44 23 -20 31 -35 31 -58
0 -40 12 -56 37 -50 24 6 27 -12 4 -25 -12 -7 -14 -17 -9 -45 8 -39 25 -60 25
-30 0 42 114 374 153 448 6 11 17 32 24 46 7 14 31 45 53 69 22 24 40 47 40
51 0 5 8 13 19 18 10 6 26 30 36 53 9 24 48 77 86 120 38 42 69 81 69 87 0 6
5 11 11 11 6 0 34 22 63 50 61 60 94 82 217 147 191 102 266 135 409 181 151
48 259 62 485 64 141 1 195 -3 320 -25 83 -14 168 -35 190 -46 23 -11 76 -26
118 -34 49 -9 92 -24 115 -41 21 -14 42 -26 46 -26 5 0 37 -20 72 -45 34 -25
66 -45 70 -45 10 0 138 -83 142 -92 5 -12 42 -10 42 2 0 6 6 10 14 10 8 0 30
9 48 21 117 74 303 179 317 179 6 0 39 14 73 30 35 17 81 33 103 36 22 3 62
11 90 19 143 40 407 71 555 66 72 -3 214 -22 224 -30 6 -5 43 -14 82 -20 39
-6 87 -18 107 -26 20 -8 50 -15 66 -15 17 0 45 -9 63 -20 18 -11 40 -20 49
-20 9 0 22 -6 28 -14 7 -8 22 -17 34 -20 64 -16 306 -176 353 -233 20 -24 55
-56 78 -70 48 -29 71 -55 91 -100 8 -18 18 -33 23 -33 13 0 35 35 63 100 13
29 40 69 61 88 21 19 47 54 57 77 15 35 29 47 73 68 31 15 63 38 72 52 9 14
22 25 28 25 6 0 32 12 57 27 102 61 171 83 286 93 108 10 139 8 325 -21 36 -6
79 -16 95 -24 17 -7 63 -23 103 -36 67 -21 80 -30 167 -116 52 -51 95 -97 95
-103 0 -5 15 -27 33 -47 62 -71 109 -150 103 -171 -4 -11 -1 -24 8 -31 7 -6
24 -45 37 -86 12 -41 26 -75 29 -75 9 0 41 29 196 179 144 138 208 192 251
214 18 10 38 29 45 44 7 15 22 29 33 32 11 2 32 12 47 22 14 11 32 19 40 19 8
0 36 14 63 31 27 17 54 32 60 34 13 3 102 42 135 59 14 7 47 19 74 25 27 7 77
25 110 41 34 15 72 28 86 27 14 0 82 12 152 27 179 37 327 55 379 46 24 -4
107 -11 184 -14 77 -3 158 -10 180 -15 281 -62 588 -171 665 -236 8 -7 30 -16
48 -20 17 -3 32 -11 32 -15 0 -5 18 -15 40 -21 22 -7 45 -18 51 -26 6 -7 19
-13 28 -13 9 0 50 -32 91 -71 41 -38 100 -88 130 -111 65 -48 300 -284 300
-301 0 -7 19 -32 41 -57 72 -79 189 -275 189 -317 0 -7 6 -16 13 -20 18 -12
63 -84 70 -113 16 -73 37 -134 51 -149 25 -28 46 -106 51 -191 2 -45 10 -89
17 -97 12 -15 15 -33 41 -243 23 -192 7 -562 -26 -613 -8 -12 -17 -40 -20 -62
-6 -50 -67 -225 -84 -243 -7 -7 -13 -25 -13 -39 0 -14 -13 -41 -30 -60 -34
-38 -41 -93 -14 -115 32 -27 70 -67 109 -113 22 -26 47 -55 56 -64 28 -28 52
-78 46 -95 -4 -9 -20 -24 -37 -34 -16 -9 -30 -22 -30 -29 0 -23 -105 -134
-200 -212 -76 -63 -268 -261 -290 -299 -8 -15 -22 -34 -31 -42 -8 -8 -18 -22
-21 -31 -4 -9 -32 -31 -62 -49 -47 -26 -162 -126 -226 -195 -63 -68 -84 -85
-105 -85 -13 0 -27 -4 -30 -10 -15 -24 -45 -3 -144 99 -58 61 -115 111 -126
112 -22 2 -58 -5 -120 -25 -22 -8 -60 -19 -85 -27 -25 -7 -48 -18 -52 -23 -4
-6 -24 -11 -45 -13 -21 -1 -60 -9 -88 -17 -151 -45 -310 -67 -540 -72 -137 -3
-200 0 -265 12 -47 8 -114 20 -150 24 -80 11 -179 35 -245 61 -28 10 -60 19
-71 19 -42 0 -303 123 -386 181 -14 11 -31 19 -38 19 -13 0 -82 46 -155 103
-27 22 -60 43 -72 48 -13 5 -23 12 -23 17 0 5 -30 33 -67 63 -38 29 -106 92
-153 139 -47 47 -101 98 -121 113 -27 20 -38 37 -43 66 -4 27 -13 41 -31 49
-21 10 -27 9 -32 -4 -3 -9 -1 -24 4 -34 10 -15 9 -241 0 -258 -10 -17 0 -263
11 -274 9 -9 9 -15 0 -25 -8 -10 -8 -20 1 -39 15 -33 15 -34 -13 -34 -13 0
-29 -6 -35 -14 -15 -18 -87 -27 -201 -25 -52 1 -1913 2 -4135 2 -2974 0 -4051
-3 -4080 -11 -109 -31 -522 -45 -610 -21 -22 6 -76 14 -120 19 -44 4 -118 19
-165 32 -47 14 -110 31 -140 38 -30 7 -87 28 -126 46 -39 19 -74 34 -78 34 -3
0 -34 13 -69 29 -34 16 -82 37 -106 47 -25 10 -62 33 -83 51 -21 17 -47 35
-58 38 -11 4 -20 10 -20 14 0 5 -14 14 -30 21 -17 7 -34 18 -38 24 -4 7 -32
29 -62 49 -45 29 -117 90 -175 148 -5 5 -16 15 -23 22 -61 55 -119 122 -155
178 -9 14 -37 46 -61 72 -25 25 -54 66 -65 91 -11 25 -25 46 -30 46 -6 0 -19
17 -30 38 -11 21 -27 44 -35 51 -9 8 -16 22 -16 33 0 10 -8 35 -19 56 -10 20
-21 53 -25 72 -3 19 -22 67 -41 105 -19 39 -35 82 -35 97 0 15 -7 45 -15 65
-14 37 -26 86 -45 185 -5 26 -14 57 -21 70 -7 13 -13 64 -14 118 -1 52 -5 174
-9 270 -8 179 -7 189 36 365 5 22 16 74 23 115 8 41 33 127 56 190 22 63 43
133 46 155 3 24 21 60 45 93 22 29 51 77 64 105 29 62 58 106 100 155 17 21
39 51 48 69 9 18 22 36 29 40 8 4 30 34 50 65 20 32 73 93 117 135 73 72 105
100 242 212 26 22 73 51 105 67 32 15 65 33 74 41 9 7 44 27 80 44 35 17 70
40 77 50 7 10 20 19 29 19 8 0 27 7 41 15 41 22 169 75 182 75 22 0 115 34
128 47 7 7 34 13 60 13 26 0 76 8 112 16 36 9 94 19 130 23 133 13 428 11 585
-4z"/>
<path d="M4755 12033 c-161 -19 -276 -38 -304 -49 -18 -8 -42 -14 -51 -14 -25
0 -108 -36 -128 -56 -19 -19 -74 -44 -98 -44 -17 0 -85 -29 -94 -40 -3 -4 -32
-21 -65 -40 -33 -18 -77 -48 -98 -67 -20 -18 -40 -33 -45 -33 -4 0 -35 -27
-70 -60 -34 -33 -65 -60 -69 -60 -15 0 -153 -150 -171 -186 -11 -22 -30 -47
-41 -56 -12 -10 -21 -23 -21 -30 0 -7 -13 -33 -29 -57 -17 -25 -28 -48 -25
-52 2 -5 -11 -23 -31 -41 -35 -32 -105 -178 -105 -219 0 -9 -13 -50 -30 -90
-16 -41 -30 -86 -30 -100 0 -15 -7 -45 -15 -68 -8 -23 -14 -59 -13 -79 1 -20
-3 -82 -9 -137 -13 -119 -11 -364 2 -385 5 -8 12 -49 16 -90 3 -46 14 -94 28
-124 17 -37 21 -59 17 -89 -5 -31 -2 -48 19 -82 14 -24 25 -52 25 -62 0 -10
15 -41 33 -68 18 -28 39 -66 46 -85 25 -66 42 -100 50 -100 5 0 24 -24 42 -52
19 -29 57 -77 86 -106 29 -30 53 -58 53 -63 0 -25 186 -189 240 -212 19 -8 55
-35 79 -62 24 -26 63 -56 86 -66 23 -10 48 -26 56 -35 28 -34 255 -134 305
-134 14 0 38 -7 54 -15 64 -33 205 -64 320 -70 171 -9 248 -7 279 9 l29 15 -4
333 c-1 183 -5 351 -8 373 -3 22 -6 83 -7 135 -3 118 -5 120 -114 115 -69 -4
-98 1 -205 31 -69 19 -139 39 -156 43 -38 10 -50 20 -166 142 -40 41 -85 83
-100 92 -15 10 -31 30 -34 45 -4 15 -15 37 -26 48 -11 13 -21 40 -23 65 -1 24
-8 56 -14 71 -5 15 -8 49 -5 75 3 26 1 82 -3 124 -7 56 -6 87 4 114 7 20 16
60 19 88 4 29 13 64 20 78 22 43 91 144 109 159 9 7 25 31 36 52 11 21 24 38
29 38 5 0 18 10 29 22 38 40 238 146 316 167 70 19 198 24 286 11 95 -13 239
-56 239 -70 0 -5 12 -13 28 -16 15 -4 41 -16 57 -27 54 -36 171 -163 193 -209
12 -26 26 -49 31 -53 13 -7 69 -181 77 -237 11 -79 14 -151 19 -508 4 -195 8
-427 11 -515 5 -180 5 -171 1 -320 -2 -61 -6 -116 -10 -121 -3 -6 0 -51 8 -99
8 -51 10 -95 6 -104 -5 -9 -6 -34 -2 -56 6 -38 8 -40 41 -37 19 1 234 4 476 6
243 2 446 6 451 9 5 3 11 64 13 134 8 321 -1 1317 -14 1493 -4 47 -8 158 -9
247 -2 113 -6 166 -15 175 -6 6 -12 25 -12 41 0 15 -5 37 -10 48 -6 10 -12 44
-14 73 -1 30 -7 61 -13 68 -6 7 -18 33 -26 58 -9 25 -25 63 -36 85 -12 21 -21
45 -21 51 0 7 -16 33 -35 58 -19 26 -35 52 -35 60 0 7 -8 20 -17 27 -9 8 -29
41 -44 74 -15 33 -43 76 -61 95 -18 19 -45 51 -60 71 -15 20 -41 49 -58 65
-17 16 -38 43 -46 61 -9 18 -24 35 -34 38 -10 3 -46 28 -81 55 -34 28 -79 55
-100 62 -22 6 -44 17 -50 25 -6 7 -17 13 -24 13 -7 0 -19 7 -26 16 -16 20 -61
40 -189 84 -52 18 -100 37 -105 41 -6 4 -35 9 -65 10 -30 2 -95 14 -145 27
-49 14 -126 28 -170 33 -80 7 -373 9 -430 2z"/>
<path d="M8585 11989 c-195 -24 -239 -31 -255 -39 -10 -6 -27 -10 -37 -10 -19
0 -80 -28 -128 -59 -16 -11 -36 -20 -43 -20 -7 -1 -30 -14 -50 -30 -20 -16
-58 -40 -83 -53 -26 -13 -53 -31 -62 -39 -8 -8 -32 -27 -53 -44 -104 -82 -244
-241 -244 -276 0 -8 -22 -37 -50 -64 -27 -27 -50 -57 -50 -67 0 -9 -6 -37 -14
-60 -7 -24 -24 -76 -36 -116 -12 -40 -27 -75 -31 -78 -5 -3 -9 -18 -9 -33 0
-15 -5 -32 -12 -39 -6 -6 -12 -31 -14 -54 -1 -24 -6 -95 -10 -158 -4 -63 -7
-126 -7 -140 1 -14 4 -326 8 -695 4 -368 7 -686 7 -705 1 -19 -1 -167 -4 -328
l-5 -294 96 8 c53 4 110 8 126 8 17 0 34 4 38 10 6 8 10 8 13 0 3 -8 18 -9 50
-2 25 5 53 7 62 2 32 -13 627 -23 640 -10 8 8 10 44 10 191 0 86 3 399 4 475
0 31 1 498 0 525 0 11 0 63 1 115 1 163 -1 290 -7 421 -6 134 7 231 55 405 18
68 27 84 63 114 22 19 50 45 61 57 12 12 34 25 51 28 16 4 39 14 51 21 12 8
59 17 105 20 117 9 219 -14 289 -67 86 -64 149 -172 149 -257 0 -29 7 -66 15
-81 11 -22 13 -58 10 -160 -2 -72 -7 -136 -10 -141 -3 -5 -1 -11 4 -14 6 -4 8
-231 5 -573 -2 -388 0 -570 7 -579 6 -8 7 -19 1 -31 -8 -17 -16 -133 -12 -178
1 -11 2 -61 3 -112 1 -50 5 -95 10 -99 4 -4 7 -24 7 -45 l0 -37 63 -6 c78 -8
943 -3 951 5 3 3 8 165 11 360 6 422 7 360 -5 444 -7 54 -6 88 6 147 10 51 12
83 6 95 -9 18 -14 170 -10 353 2 113 2 106 -2 345 -2 124 1 203 9 225 6 19 22
74 36 121 22 76 32 94 78 141 72 75 123 106 209 129 90 23 120 23 210 3 90
-21 178 -68 178 -96 0 -5 11 -24 25 -42 14 -18 25 -39 25 -46 0 -7 12 -33 26
-58 17 -29 24 -53 21 -70 -3 -15 1 -39 9 -54 15 -29 15 -23 16 -608 0 -248 4
-357 11 -362 8 -5 8 -16 -1 -41 -18 -49 -16 -63 5 -46 15 13 15 11 -1 -19 -11
-21 -14 -38 -8 -48 6 -10 4 -30 -4 -53 -9 -27 -10 -63 -5 -131 4 -52 6 -198 5
-325 -2 -127 1 -252 6 -280 10 -48 13 -52 61 -74 36 -17 66 -24 102 -23 69 2
154 2 225 0 131 -3 544 7 548 14 3 4 17 5 32 2 40 -8 54 14 53 87 0 34 -2 63
-5 66 -3 3 0 17 5 32 7 16 10 170 9 406 -1 209 -1 389 -1 400 2 317 -6 974
-14 1125 -8 132 -26 303 -35 325 -4 11 -14 43 -21 70 -7 28 -20 62 -30 76 -16
22 -28 49 -73 164 -21 55 -47 97 -85 139 -20 22 -48 57 -63 76 -132 179 -347
306 -668 396 -75 21 -106 24 -265 23 -192 0 -336 -20 -430 -59 -16 -7 -46 -16
-65 -21 -63 -14 -138 -45 -172 -70 -18 -14 -58 -38 -88 -53 -50 -26 -133 -88
-271 -201 -88 -73 -107 -85 -131 -85 -27 0 -101 52 -163 115 -22 23 -56 51
-75 64 -19 13 -53 41 -75 62 -48 45 -144 109 -164 109 -8 0 -48 16 -89 36 -83
40 -183 68 -307 85 -120 16 -274 25 -330 18z m2615 -2280 c-7 -11 -14 -19 -16
-16 -7 7 7 37 17 37 6 0 5 -9 -1 -21z"/>
<path d="M15390 11958 c-25 -3 -65 -7 -90 -7 -25 -1 -56 -7 -70 -14 -14 -8
-48 -19 -75 -26 -27 -7 -72 -23 -100 -35 -27 -13 -66 -27 -85 -31 -19 -4 -61
-20 -93 -36 -32 -16 -65 -29 -74 -29 -9 0 -26 -9 -37 -19 -12 -11 -35 -27 -53
-38 -60 -35 -158 -105 -193 -138 -128 -121 -344 -344 -357 -369 -19 -37 -49
-80 -80 -114 -13 -14 -23 -32 -23 -41 0 -9 -6 -25 -14 -36 -7 -11 -17 -31 -21
-45 -4 -14 -13 -32 -19 -40 -7 -8 -20 -39 -29 -69 -10 -30 -33 -73 -52 -96
-22 -28 -34 -53 -34 -71 1 -34 -24 -191 -40 -250 -6 -23 -11 -52 -11 -65 1
-13 -2 -68 -5 -121 -4 -83 -3 -98 10 -98 22 0 18 -16 -9 -37 -21 -17 -23 -24
-17 -59 4 -22 11 -46 15 -53 4 -7 9 -65 10 -130 1 -68 6 -124 12 -132 6 -8 19
-57 29 -109 15 -79 25 -104 56 -147 21 -28 45 -70 53 -92 13 -38 34 -70 110
-169 15 -20 38 -60 51 -88 12 -28 45 -73 72 -100 27 -27 58 -62 68 -78 10 -15
36 -39 57 -52 21 -13 38 -31 38 -38 0 -8 9 -17 20 -21 11 -3 46 -32 78 -63 98
-97 176 -159 207 -166 17 -4 52 -21 79 -38 51 -31 259 -118 283 -118 8 0 28
-7 46 -17 18 -9 68 -22 112 -29 44 -7 118 -20 165 -29 100 -18 369 -13 485 10
266 53 543 150 627 221 77 63 173 30 281 -96 18 -21 18 -21 50 -2 35 20 171
145 221 202 17 19 54 58 82 85 29 28 69 69 89 92 l37 43 -26 31 c-14 17 -26
37 -26 45 0 8 -9 18 -19 22 -18 7 -101 100 -101 113 0 3 17 39 38 80 20 41 45
95 55 120 11 24 25 55 33 69 7 14 25 50 40 80 14 30 34 71 43 90 72 147 114
533 81 740 -15 94 -40 214 -49 235 -17 38 -41 124 -41 145 0 12 -8 34 -18 48
-10 15 -24 45 -31 67 -16 50 -39 105 -52 125 -5 8 -16 29 -24 45 -9 17 -21 39
-28 50 -6 10 -30 48 -51 83 -22 36 -49 74 -60 87 -12 12 -29 33 -39 46 -10 13
-44 51 -76 84 -32 33 -63 70 -70 82 -6 12 -21 25 -33 29 -13 3 -65 47 -116 96
-51 49 -109 96 -130 105 -20 8 -46 23 -57 33 -11 10 -31 21 -45 25 -14 4 -47
22 -75 40 -27 19 -81 43 -120 54 -38 10 -90 27 -115 36 -60 23 -173 54 -235
64 -27 5 -88 16 -135 24 -87 16 -293 19 -380 5z m378 -952 c20 -8 90 -30 154
-51 64 -20 125 -46 134 -56 9 -11 23 -19 29 -19 7 0 31 -8 53 -18 43 -19 144
-138 175 -206 19 -40 128 -196 151 -216 11 -8 11 -17 1 -48 -8 -24 -11 -65 -7
-117 9 -143 -4 -321 -26 -347 -6 -7 -16 -36 -22 -63 -20 -85 -39 -121 -73
-136 -26 -12 -31 -19 -29 -41 3 -22 -1 -28 -15 -28 -11 0 -24 -13 -32 -30 -7
-18 -35 -45 -65 -64 -28 -18 -66 -48 -84 -67 -18 -19 -47 -42 -65 -52 -64 -33
-227 -86 -314 -101 -111 -20 -179 -20 -310 0 -138 20 -244 68 -351 158 -157
134 -182 160 -182 188 0 15 -6 31 -14 35 -7 4 -24 28 -36 53 -12 25 -31 57
-41 72 -11 14 -19 39 -19 55 0 16 -5 34 -11 40 -14 14 -30 300 -18 323 4 9 12
38 18 65 5 28 17 83 25 124 9 41 24 84 34 95 10 12 29 39 42 61 13 22 35 54
49 72 14 18 37 46 50 63 39 51 195 162 273 194 24 10 61 27 84 37 23 10 54 19
70 19 16 1 52 7 79 15 60 18 235 12 293 -9z"/>
<path d="M15447 10585 c-27 -14 -54 -25 -60 -25 -7 0 -38 -21 -70 -46 -49 -38
-65 -59 -94 -122 -50 -110 -61 -150 -50 -192 5 -19 9 -60 8 -90 0 -30 4 -79
10 -108 9 -44 17 -58 56 -90 25 -20 68 -56 96 -79 28 -24 55 -43 61 -43 5 0
17 -6 25 -13 36 -31 129 -59 178 -54 109 11 185 44 274 119 24 20 57 47 72 60
21 18 34 44 52 113 26 92 29 137 14 190 -4 17 -10 56 -13 87 -3 31 -13 69 -22
83 -29 45 -145 155 -163 155 -9 0 -21 9 -26 21 -16 34 -105 58 -210 58 -76 0
-97 -3 -138 -24z"/>
<path d="M12960 11845 c-70 -13 -111 -31 -177 -78 -50 -35 -107 -143 -97 -183
3 -13 1 -30 -5 -37 -14 -18 -25 -134 -14 -150 5 -7 15 -32 22 -57 7 -25 20
-52 30 -61 9 -8 30 -31 47 -50 17 -20 52 -51 79 -69 43 -30 58 -34 148 -42
110 -9 191 5 231 39 11 11 33 25 48 33 15 7 30 21 33 31 4 10 24 36 46 57 54
51 70 121 54 237 -15 109 -44 167 -119 241 -50 50 -74 66 -117 77 -80 23 -137
26 -209 12z"/>
<path d="M12815 10933 c-68 -14 -65 -11 -65 -57 0 -24 -5 -57 -11 -75 -8 -24
-8 -39 1 -60 9 -22 9 -38 0 -68 -9 -28 -9 -53 -3 -85 6 -27 6 -52 1 -61 -5 -9
-10 -54 -12 -99 -4 -74 -2 -85 16 -99 17 -13 19 -19 9 -37 -7 -12 -14 -84 -17
-160 -3 -75 -9 -155 -14 -177 -7 -28 -6 -62 4 -115 8 -48 10 -82 4 -93 -6 -11
-5 -45 2 -88 5 -39 8 -73 6 -77 -4 -7 -20 -138 -18 -157 0 -5 0 -32 0 -60 0
-93 1 -110 7 -185 10 -137 8 -255 -4 -278 -12 -23 -10 -144 4 -249 6 -38 12
-52 24 -51 9 0 43 -5 76 -11 60 -10 381 -7 481 5 l52 6 6 66 c4 37 3 87 -2
112 -5 25 -5 58 -1 74 12 43 11 353 -3 871 -1 44 1 143 5 220 11 202 9 799 -3
830 -13 33 -13 86 0 119 6 18 6 27 -2 32 -12 8 -509 14 -543 7z"/>
<path d="M4913 10603 c-29 -3 -43 -9 -43 -18 0 -11 -8 -13 -28 -9 -24 5 -34 0
-62 -33 -19 -21 -52 -52 -75 -70 -35 -26 -44 -41 -54 -85 -7 -29 -12 -62 -11
-73 0 -11 2 -65 4 -120 2 -90 4 -101 23 -110 12 -6 42 -34 68 -62 55 -62 126
-93 214 -93 47 0 71 7 125 35 37 19 74 35 81 35 14 0 68 32 116 69 24 18 26
25 22 73 -2 29 -9 73 -16 98 -6 25 -11 62 -10 83 1 20 -2 37 -7 37 -6 0 -10 7
-10 15 0 24 -91 146 -119 158 -14 6 -35 21 -46 32 -11 12 -33 26 -48 33 -28
12 -40 12 -124 5z"/>
<path d="M11170 8594 c0 -14 3 -15 18 -3 9 7 19 15 21 16 2 2 -5 3 -17 3 -14
0 -22 -6 -22 -16z"/>
</g>
</svg>
