<svg width="500" height="363" viewBox="0 0 500 363" fill="none" xmlns="http://www.w3.org/2000/svg">
<g clip-path="url(#clip0_1_2)">
<path d="M61.137 348.438H54.251C54.17 348.438 54.094 348.455 54.021 348.483C53.949 348.51 53.852 348.574 53.731 348.668L53.259 348.995L53.115 348.93L54.649 346.353H71.9L70.281 348.996H70.161V348.756C70.161 348.661 70.125 348.585 70.052 348.527C69.979 348.469 69.884 348.439 69.761 348.439H63.661V360.975C63.661 361.077 63.671 361.158 63.691 361.215C63.711 361.274 63.75 361.327 63.806 361.377L64.121 361.649V361.8H60.641V361.649L60.955 361.377C61.02 361.327 61.066 361.269 61.094 361.204C61.122 361.139 61.136 361.062 61.136 360.975V348.438H61.137Z" fill="white"/>
<path d="M75.115 361.8H71.453L82.289 345.819L93.053 361.8H89.346V361.649C89.506 361.649 89.631 361.621 89.725 361.561C89.818 361.504 89.863 361.429 89.863 361.334C89.863 361.268 89.854 361.208 89.834 361.153C89.813 361.099 89.79 361.059 89.767 361.029L86.118 355.636H80.851C80.602 355.636 80.437 355.641 80.357 355.651C80.276 355.664 80.22 355.686 80.188 355.722L79.837 355.985L79.715 355.897L81.251 353.515H84.668L82.29 349.983L74.69 361.017C74.659 361.061 74.635 361.111 74.618 361.163C74.602 361.219 74.594 361.276 74.594 361.334C74.594 361.429 74.64 361.504 74.733 361.561C74.827 361.621 74.953 361.649 75.115 361.649V361.8V361.8Z" fill="white"/>
<path d="M94.891 360.974V347.146C94.891 347.073 94.877 347.006 94.847 346.945C94.821 346.882 94.774 346.827 94.71 346.776L94.42 346.505V346.353H97.874V346.505L97.584 346.776C97.52 346.834 97.476 346.89 97.451 346.945C97.427 347 97.415 347.066 97.415 347.146V360.974C97.415 361.062 97.429 361.139 97.456 361.203C97.485 361.267 97.527 361.326 97.584 361.376L97.874 361.648V361.799H94.42V361.648L94.71 361.376C94.774 361.326 94.821 361.268 94.847 361.203C94.877 361.139 94.891 361.062 94.891 360.974Z" fill="white"/>
<path d="M109.882 348.438C108.859 348.438 108.01 348.524 107.334 348.689C106.657 348.857 106.085 349.114 105.618 349.463C104.878 350.026 104.317 350.698 103.939 351.477C103.561 352.258 103.371 353.123 103.371 354.072C103.371 355.08 103.556 355.965 103.927 356.729C104.297 357.495 104.853 358.137 105.594 358.659C106.117 359.03 106.7 359.292 107.338 359.448C107.98 359.604 108.859 359.68 109.979 359.68H117.42C117.526 359.68 117.617 359.665 117.697 359.637C117.78 359.609 117.866 359.558 117.964 359.486L118.435 359.128H118.641L117.021 361.801H109.979C108.352 361.801 107.091 361.678 106.192 361.427C105.293 361.177 104.45 360.757 103.661 360.17C102.694 359.46 101.964 358.608 101.467 357.609C100.974 356.614 100.725 355.503 100.725 354.277C100.725 353.328 100.868 352.437 101.152 351.604C101.44 350.771 101.864 350.005 102.427 349.309C102.823 348.823 103.273 348.388 103.781 348.002C104.288 347.621 104.844 347.29 105.448 347.015C105.979 346.776 106.551 346.607 107.163 346.504C107.775 346.402 108.682 346.352 109.881 346.352H118.41L116.803 348.995H116.682L116.706 348.799V348.755C116.706 348.66 116.666 348.584 116.585 348.526C116.504 348.468 116.404 348.438 116.284 348.438H109.882V348.438Z" fill="white"/>
<path d="M121.272 360.974V347.146C121.272 347.066 121.26 347 121.236 346.945C121.212 346.89 121.167 346.834 121.103 346.776L120.788 346.505V346.353H124.268V346.505L123.954 346.776C123.89 346.827 123.844 346.881 123.816 346.945C123.786 347.007 123.773 347.073 123.773 347.146V360.974C123.773 361.062 123.786 361.139 123.816 361.203C123.844 361.267 123.89 361.326 123.954 361.376L124.268 361.648V361.799H120.788V361.648L121.103 361.376C121.16 361.326 121.201 361.268 121.23 361.203C121.259 361.138 121.272 361.062 121.272 360.974ZM133.305 360.974V354.256H125.187C125.09 354.256 125.006 354.267 124.933 354.294C124.861 354.319 124.773 354.371 124.667 354.45L124.197 354.809L124.052 354.744L125.586 352.135H133.305V347.146C133.305 347.073 133.292 347.006 133.263 346.945C133.234 346.882 133.188 346.827 133.123 346.776L132.808 346.505V346.353H136.3V346.505L135.974 346.776C135.917 346.82 135.879 346.87 135.859 346.928C135.839 346.985 135.829 347.057 135.829 347.146V360.974C135.829 361.076 135.841 361.158 135.865 361.219C135.89 361.282 135.926 361.334 135.974 361.376L136.3 361.648V361.799H132.808V361.648L133.123 361.376C133.187 361.326 133.234 361.268 133.263 361.203C133.292 361.139 133.305 361.062 133.305 360.974Z" fill="white"/>
<path d="M152.285 357.659V347.146C152.277 347.066 152.261 347 152.237 346.945C152.214 346.89 152.168 346.834 152.105 346.776L151.814 346.505V346.353H155.269V346.505L154.98 346.776C154.916 346.827 154.87 346.881 154.846 346.938C154.822 346.998 154.807 347.066 154.797 347.146V358.355C154.797 359.586 154.197 360.515 152.998 361.139C151.798 361.762 149.998 362.073 147.597 362.073C145.205 362.073 143.407 361.762 142.202 361.139C140.999 360.515 140.397 359.586 140.397 358.355V347.146C140.397 347.066 140.385 347 140.361 346.945C140.337 346.89 140.292 346.834 140.228 346.776L139.938 346.505V346.353H143.394V346.505L143.104 346.776C143.04 346.827 142.994 346.881 142.966 346.945C142.937 347.007 142.923 347.073 142.923 347.146V357.659C142.923 358.53 143.258 359.137 143.926 359.481C144.594 359.824 145.81 359.997 147.574 359.997C149.371 359.997 150.604 359.827 151.278 359.486C151.948 359.145 152.285 358.536 152.285 357.659Z" fill="white"/>
<path d="M171.286 357.083V347.145C171.276 347.065 171.261 346.999 171.237 346.944C171.214 346.889 171.169 346.833 171.105 346.775L170.79 346.504V346.352H174.028V346.504L173.726 346.775C173.669 346.826 173.627 346.88 173.598 346.944C173.571 347.006 173.557 347.072 173.557 347.145V362.311L161.512 351.245V360.974C161.512 361.062 161.526 361.139 161.555 361.203C161.583 361.267 161.623 361.326 161.681 361.376L161.971 361.648V361.799H158.734V361.648L159.06 361.376C159.117 361.326 159.159 361.268 159.188 361.203C159.215 361.139 159.229 361.061 159.229 360.974V345.819L171.286 357.083Z" fill="white"/>
<path d="M185.613 348.438C184.59 348.438 183.741 348.524 183.065 348.689C182.388 348.857 181.817 349.114 181.349 349.463C180.61 350.026 180.049 350.698 179.671 351.477C179.292 352.258 179.103 353.123 179.103 354.072C179.103 355.08 179.288 355.965 179.659 356.729C180.03 357.495 180.586 358.137 181.326 358.659C181.848 359.03 182.432 359.292 183.071 359.448C183.713 359.604 184.592 359.68 185.712 359.68H189.771V354.299H184.348C184.241 354.299 184.151 354.314 184.07 354.342C183.988 354.371 183.901 354.421 183.803 354.494L183.332 354.852L183.187 354.766L184.746 352.179H192.284V360.973C192.284 361.061 192.299 361.138 192.332 361.202C192.365 361.266 192.408 361.325 192.465 361.375L192.754 361.647V361.798H185.712C184.085 361.798 182.823 361.675 181.925 361.424C181.026 361.174 180.183 360.754 179.393 360.167C178.427 359.457 177.697 358.605 177.2 357.606C176.706 356.611 176.458 355.5 176.458 354.274C176.458 353.325 176.601 352.434 176.885 351.601C177.172 350.768 177.596 350.002 178.16 349.306C178.556 348.82 179.006 348.385 179.513 347.999C180.021 347.618 180.576 347.287 181.18 347.012C181.712 346.773 182.283 346.604 182.896 346.501C183.508 346.399 184.415 346.349 185.613 346.349H192.064L190.458 348.992H190.312L190.337 348.796V348.752C190.337 348.657 190.296 348.581 190.216 348.523C190.135 348.465 190.034 348.435 189.914 348.435H185.613V348.438Z" fill="white"/>
<path d="M212.035 348.438C211.012 348.438 210.162 348.524 209.486 348.689C208.81 348.857 208.238 349.114 207.771 349.463C207.03 350.026 206.469 350.698 206.092 351.477C205.714 352.258 205.524 353.123 205.524 354.072C205.524 355.08 205.709 355.965 206.08 356.729C206.45 357.495 207.006 358.137 207.747 358.659C208.269 359.03 208.853 359.292 209.491 359.448C210.133 359.604 211.012 359.68 212.132 359.68H219.574C219.68 359.68 219.771 359.665 219.852 359.637C219.933 359.609 220.02 359.558 220.118 359.486L220.589 359.128H220.795L219.177 361.801H212.133C210.506 361.801 209.245 361.678 208.347 361.427C207.448 361.177 206.604 360.757 205.815 360.17C204.848 359.46 204.118 358.608 203.622 357.609C203.128 356.614 202.88 355.503 202.88 354.277C202.88 353.328 203.023 352.437 203.308 351.604C203.595 350.771 204.019 350.005 204.584 349.309C204.979 348.823 205.429 348.388 205.937 348.002C206.444 347.621 207 347.29 207.604 347.015C208.136 346.776 208.708 346.607 209.319 346.504C209.933 346.402 210.838 346.352 212.038 346.352H220.567L218.96 348.995H218.84L218.863 348.799V348.755C218.863 348.66 218.823 348.584 218.742 348.526C218.661 348.468 218.561 348.438 218.44 348.438H212.035V348.438Z" fill="white"/>
<path d="M223.534 360.974V347.146C223.534 347.073 223.52 347.006 223.49 346.945C223.463 346.882 223.416 346.827 223.351 346.776L223.062 346.505V346.353H226.517V346.505L226.227 346.776C226.163 346.834 226.118 346.89 226.094 346.945C226.07 347 226.058 347.066 226.058 347.146V360.974C226.058 361.062 226.072 361.139 226.1 361.203C226.129 361.267 226.171 361.326 226.228 361.376L226.518 361.648V361.799H223.063V361.648L223.352 361.376C223.416 361.326 223.463 361.268 223.491 361.203C223.52 361.139 223.534 361.062 223.534 360.974Z" fill="white"/>
<path d="M236.52 348.438H229.634C229.552 348.438 229.477 348.455 229.405 348.483C229.333 348.51 229.236 348.574 229.115 348.668L228.644 348.995L228.499 348.93L230.033 346.353H247.284L245.667 348.996H245.546V348.756C245.546 348.661 245.508 348.585 245.435 348.527C245.364 348.469 245.266 348.439 245.146 348.439H239.047V360.975C239.047 361.077 239.057 361.158 239.074 361.215C239.095 361.274 239.132 361.327 239.191 361.377L239.506 361.649V361.8H236.026V361.649L236.339 361.377C236.403 361.327 236.45 361.269 236.48 361.204C236.507 361.14 236.521 361.062 236.521 360.975V348.438H236.52Z" fill="white"/>
<path d="M254.304 360.974V355.05L246.839 346.352H250.825V346.504L250.57 346.698C250.539 346.733 250.511 346.776 250.487 346.824C250.462 346.871 250.449 346.912 250.449 346.949C250.449 347.065 250.582 347.274 250.85 347.581C250.887 347.624 250.921 347.659 250.946 347.69L255.476 353.003L259.751 347.69C259.768 347.666 259.799 347.626 259.847 347.568C260.1 347.285 260.224 347.079 260.224 346.949C260.224 346.912 260.21 346.871 260.185 346.824C260.162 346.776 260.134 346.733 260.104 346.698L259.872 346.504V346.352H263.786L256.829 354.853V360.974C256.829 361.062 256.841 361.139 256.869 361.203C256.899 361.267 256.944 361.326 257.011 361.376L257.301 361.648V361.799H253.833V361.648L254.136 361.376C254.192 361.326 254.233 361.268 254.26 361.203C254.292 361.139 254.304 361.062 254.304 360.974Z" fill="white"/>
<path d="M280.891 348.438C279.87 348.438 279.02 348.524 278.344 348.689C277.667 348.857 277.095 349.114 276.628 349.463C275.886 350.026 275.328 350.698 274.948 351.477C274.572 352.258 274.382 353.123 274.382 354.072C274.382 355.08 274.565 355.965 274.938 356.729C275.307 357.495 275.863 358.137 276.605 358.659C277.126 359.03 277.71 359.292 278.348 359.448C278.99 359.604 279.869 359.68 280.988 359.68H285.049V354.299H279.625C279.519 354.299 279.428 354.314 279.347 354.342C279.267 354.371 279.177 354.421 279.08 354.494L278.611 354.852L278.465 354.766L280.022 352.179H287.561V360.973C287.561 361.061 287.578 361.138 287.607 361.202C287.642 361.266 287.684 361.325 287.744 361.375L288.034 361.647V361.798H280.988C279.363 361.798 278.099 361.675 277.202 361.424C276.305 361.174 275.459 360.754 274.672 360.167C273.706 359.457 272.974 358.605 272.479 357.606C271.984 356.611 271.736 355.5 271.736 354.274C271.736 353.325 271.882 352.434 272.165 351.601C272.452 350.768 272.875 350.002 273.441 349.306C273.835 348.82 274.286 348.385 274.794 347.999C275.303 347.618 275.857 347.287 276.462 347.012C276.993 346.773 277.562 346.604 278.177 346.501C278.787 346.399 279.697 346.349 280.893 346.349H287.345L285.739 348.992H285.595L285.618 348.796V348.752C285.618 348.657 285.577 348.581 285.499 348.523C285.415 348.465 285.314 348.435 285.193 348.435H280.891V348.438Z" fill="white"/>
<path d="M300.148 346.079C301.446 346.079 302.65 346.246 303.765 346.576C304.883 346.905 305.84 347.379 306.637 347.994C307.675 348.791 308.459 349.702 308.984 350.727C309.512 351.754 309.778 352.869 309.778 354.072C309.778 355.268 309.512 356.378 308.98 357.405C308.451 358.429 307.665 359.337 306.637 360.128C305.827 360.757 304.869 361.242 303.754 361.573C302.639 361.907 301.439 362.073 300.148 362.073C298.868 362.073 297.669 361.907 296.555 361.573C295.44 361.242 294.48 360.757 293.672 360.128C292.633 359.345 291.851 358.441 291.322 357.42C290.797 356.399 290.532 355.282 290.532 354.072C290.532 352.876 290.797 351.763 291.33 350.734C291.859 349.704 292.644 348.791 293.672 347.994C294.469 347.379 295.426 346.905 296.54 346.576C297.66 346.246 298.861 346.079 300.148 346.079ZM300.148 348.157C298.094 348.157 296.419 348.71 295.124 349.813C293.828 350.921 293.179 352.338 293.179 354.072C293.179 355.81 293.828 357.233 295.124 358.339C296.42 359.443 298.095 359.997 300.148 359.997C302.201 359.997 303.879 359.443 305.179 358.339C306.483 357.234 307.131 355.811 307.131 354.072C307.131 352.339 306.483 350.922 305.179 349.813C303.879 348.709 302.202 348.157 300.148 348.157Z" fill="white"/>
<path d="M319.308 357.571L324.996 347.677C325.087 347.519 325.152 347.38 325.197 347.264C325.242 347.15 325.261 347.057 325.261 346.993C325.261 346.943 325.252 346.895 325.231 346.85C325.213 346.808 325.182 346.767 325.141 346.732L324.898 346.504V346.352H328.451L319.284 362.312L310.126 346.352H313.834V346.504L313.616 346.698C313.567 346.743 313.53 346.791 313.504 346.841C313.477 346.893 313.461 346.935 313.461 346.971C313.461 347.037 313.485 347.134 313.534 347.264C313.582 347.397 313.651 347.536 313.737 347.691L319.308 357.571Z" fill="white"/>
<path d="M337.936 348.438C336.914 348.438 336.065 348.524 335.388 348.689C334.712 348.857 334.14 349.114 333.673 349.463C332.93 350.026 332.372 350.698 331.992 351.477C331.614 352.258 331.425 353.123 331.425 354.072C331.425 355.08 331.609 355.965 331.982 356.729C332.351 357.495 332.907 358.137 333.649 358.659C334.17 359.03 334.753 359.292 335.392 359.448C336.035 359.604 336.913 359.68 338.032 359.68H345.474C345.58 359.68 345.671 359.665 345.753 359.637C345.833 359.609 345.923 359.558 346.019 359.486L346.489 359.128H346.696L345.078 361.801H338.032C336.407 361.801 335.143 361.678 334.247 361.427C333.349 361.177 332.504 360.757 331.716 360.17C330.75 359.46 330.018 358.608 329.521 357.609C329.029 356.614 328.78 355.503 328.78 354.277C328.78 353.328 328.926 352.437 329.208 351.604C329.494 350.771 329.919 350.005 330.486 349.309C330.878 348.823 331.331 348.388 331.839 348.002C332.345 347.621 332.902 347.29 333.505 347.015C334.037 346.776 334.607 346.607 335.221 346.504C335.832 346.402 336.741 346.352 337.938 346.352H346.466L344.862 348.995H344.741L344.766 348.799V348.755C344.766 348.66 344.723 348.584 344.644 348.526C344.561 348.468 344.461 348.438 344.341 348.438H337.936V348.438ZM332.041 354.385L333.079 352.266H344.908L343.325 354.942H343.179L343.202 354.724V354.679C343.202 354.593 343.165 354.523 343.089 354.468C343.014 354.414 342.909 354.385 342.781 354.385H332.041V354.385Z" fill="white"/>
<path d="M358.482 346.352C359.643 346.352 360.633 346.653 361.448 347.255C362.266 347.856 362.78 348.659 362.991 349.666L358.667 352.537C360.751 352.827 362.407 353.723 363.629 355.225C364.856 356.724 365.465 358.613 365.465 360.888V361.8H362.47V361.649L362.797 361.377C362.853 361.327 362.896 361.269 362.922 361.204C362.953 361.14 362.967 361.062 362.967 360.975V360.487C362.967 358.668 362.343 357.164 361.099 355.975C359.854 354.785 358.283 354.193 356.382 354.193C356.141 354.193 355.884 354.2 355.609 354.218C355.337 354.237 355.042 354.263 354.729 354.3L359.305 351.071C359.644 350.825 359.878 350.613 360.005 350.434C360.137 350.257 360.198 350.06 360.198 349.842C360.198 349.407 359.996 349.067 359.585 348.816C359.174 348.565 358.601 348.439 357.869 348.439H351.852V360.975C351.852 361.063 351.866 361.14 351.894 361.204C351.921 361.268 351.969 361.327 352.033 361.377L352.322 361.649V361.8H348.867V361.649L349.158 361.377C349.217 361.327 349.256 361.269 349.286 361.204C349.312 361.14 349.325 361.062 349.325 360.975V347.147C349.325 347.067 349.315 347.001 349.29 346.946C349.268 346.891 349.222 346.835 349.158 346.777L348.867 346.506V346.354H358.482V346.352Z" fill="white"/>
<path d="M380.243 357.083V347.145C380.235 347.065 380.219 346.999 380.194 346.944C380.169 346.889 380.124 346.833 380.062 346.775L379.748 346.504V346.352H382.985V346.504L382.68 346.775C382.627 346.826 382.584 346.88 382.553 346.944C382.526 347.006 382.514 347.072 382.514 347.145V362.311L370.47 351.245V360.974C370.47 361.062 370.483 361.139 370.512 361.203C370.539 361.267 370.581 361.326 370.638 361.376L370.929 361.648V361.799H367.692V361.648L368.016 361.376C368.075 361.326 368.117 361.268 368.145 361.203C368.17 361.139 368.185 361.061 368.185 360.974V345.819L380.243 357.083Z" fill="white"/>
<path d="M395.9 357.703L401.987 345.819L406.713 361.8H403.571V361.649L403.872 361.377C403.915 361.342 403.949 361.292 403.976 361.226C404.003 361.16 404.018 361.091 404.018 361.019C404.018 360.983 404.011 360.928 403.993 360.857C403.979 360.784 403.955 360.701 403.92 360.606L401.301 351.517L395.779 362.313L390.019 351.625L387.612 360.597C387.589 360.675 387.571 360.749 387.557 360.814C387.547 360.879 387.541 360.941 387.541 360.999C387.541 361.078 387.554 361.152 387.577 361.217C387.602 361.283 387.637 361.337 387.685 361.379L387.962 361.651V361.802H384.847L389.641 345.821L395.9 357.703Z" fill="white"/>
<path d="M417.135 348.438C416.114 348.438 415.265 348.524 414.588 348.689C413.912 348.857 413.339 349.114 412.872 349.463C412.131 350.026 411.57 350.698 411.191 351.477C410.814 352.258 410.624 353.123 410.624 354.072C410.624 355.08 410.808 355.965 411.182 356.729C411.55 357.495 412.106 358.137 412.848 358.659C413.369 359.03 413.953 359.292 414.591 359.448C415.234 359.604 416.113 359.68 417.232 359.68H424.673C424.78 359.68 424.87 359.665 424.953 359.637C425.032 359.609 425.122 359.558 425.218 359.486L425.688 359.128H425.895L424.277 361.801H417.232C415.605 361.801 414.344 361.678 413.446 361.427C412.548 361.177 411.703 360.757 410.916 360.17C409.949 359.46 409.218 358.608 408.72 357.609C408.228 356.614 407.98 355.503 407.98 354.277C407.98 353.328 408.125 352.437 408.407 351.604C408.693 350.771 409.12 350.005 409.685 349.309C410.078 348.823 410.53 348.388 411.038 348.002C411.544 347.621 412.1 347.29 412.704 347.015C413.236 346.776 413.806 346.607 414.42 346.504C415.031 346.402 415.94 346.352 417.137 346.352H425.666L424.062 348.995H423.94L423.963 348.799V348.755C423.963 348.66 423.923 348.584 423.844 348.526C423.76 348.468 423.66 348.438 423.539 348.438H417.135V348.438ZM411.239 354.385L412.279 352.266H424.106L422.523 354.942H422.378L422.402 354.724V354.679C422.402 354.593 422.363 354.523 422.288 354.468C422.211 354.414 422.108 354.385 421.98 354.385H411.239V354.385Z" fill="white"/>
<path d="M440.413 357.083V347.145C440.407 347.065 440.389 346.999 440.364 346.944C440.341 346.889 440.296 346.833 440.234 346.775L439.919 346.504V346.352H443.157V346.504L442.853 346.775C442.797 346.826 442.755 346.88 442.724 346.944C442.699 347.006 442.684 347.072 442.684 347.145V362.311L430.641 351.245V360.974C430.641 361.062 430.655 361.139 430.682 361.203C430.71 361.267 430.751 361.326 430.811 361.376L431.099 361.648V361.799H427.863V361.648L428.186 361.376C428.246 361.326 428.288 361.268 428.315 361.203C428.342 361.138 428.355 361.061 428.355 360.974V345.819L440.413 357.083Z" fill="white"/>
<path d="M452.734 348.438H445.849C445.768 348.438 445.695 348.455 445.621 348.483C445.549 348.51 445.451 348.574 445.331 348.668L444.857 348.995L444.713 348.93L446.248 346.353H463.5L461.881 348.996H461.76V348.756C461.76 348.661 461.722 348.585 461.65 348.527C461.578 348.469 461.481 348.439 461.36 348.439H455.261V360.975C455.261 361.077 455.271 361.158 455.288 361.215C455.309 361.274 455.348 361.327 455.405 361.377L455.72 361.649V361.8H452.241V361.649L452.555 361.377C452.617 361.327 452.663 361.269 452.693 361.204C452.72 361.14 452.733 361.062 452.733 360.975V348.438H452.734Z" fill="white"/>
<path d="M96.171 259.224H169.165C169.165 259.224 229.874 199.878 332.195 224.432C332.195 224.432 227.82 167.819 96.171 259.224Z" fill="#008DCF"/>
<path d="M257.835 0C257.835 0 311.044 118.696 500 173.267H372.442C372.442 173.267 372.434 225.106 480.899 279.001C480.899 279.001 350.61 256.486 314.456 155.528H375.852C375.852 155.528 270.793 87.307 257.835 0Z" fill="#E23C1B"/>
<path d="M199.87 70.271C199.87 70.271 216.244 86.634 223.058 90.728C223.058 90.728 252.396 62.77 257.17 32.072C257.169 32.072 231.248 74.361 199.87 70.271Z" fill="#EC6616"/>
<path d="M176.675 60.04C176.675 60.04 223.74 126.203 280.361 139.164H221.014C221.014 139.164 182.812 118.016 176.675 60.04Z" fill="#F6A808"/>
<path d="M167.128 51.165C167.128 51.165 130.973 142.574 0 193.734L111.192 177.362C111.192 177.362 104.369 227.161 27.965 259.224C27.965 259.224 128.926 251.039 157.574 170.541L267.393 155.534H114.603C114.603 155.535 163.034 109.832 167.128 51.165Z" fill="#9DC63B"/>
<path d="M211.583 290.38C208.096 287.992 206.001 286.797 205.305 286.797C204.829 286.797 203.703 287.61 201.96 289.187C197.695 289.208 193.385 289.436 189.314 289.869V282.093C189.314 281.986 189.856 281.628 190.941 281.021C191.252 280.845 191.407 280.594 191.407 280.273C191.407 279.633 187.938 278.972 180.999 278.294C181.271 280.326 181.407 283.232 181.407 287.011L181.408 291.032C176.183 292.05 171.895 293.48 169.432 295.301V289.785C166.745 289.082 163.994 288.422 161.171 287.815C161.481 290.097 161.636 292.949 161.636 296.374V299.902C161.636 300.83 161.537 304.68 161.344 311.454V311.509C161.344 312.186 162.294 312.526 164.192 312.526C167.681 312.526 169.426 311.973 169.426 310.868V308.246H181.405V317.339C181.405 317.947 181.325 321.317 181.171 327.447V327.501C181.171 328.18 181.907 328.518 183.381 328.518C187.489 328.518 189.543 328.003 189.543 326.967C189.388 321.904 189.312 319.033 189.312 318.357V308.247H201.812V311.404C201.812 312.116 202.666 312.472 204.37 312.472C208.093 312.472 209.954 311.903 209.954 310.761C209.799 304.022 209.72 300.314 209.72 299.637V293.592C209.72 293.45 210.303 292.862 211.465 291.826C211.812 291.613 211.989 291.363 211.989 291.078C211.989 290.793 211.856 290.558 211.583 290.38ZM169.434 306.909V297.056C171.253 295.357 175.459 293.715 181.41 292.518L181.412 306.909H169.434ZM189.309 306.909V291.344H189.315V291.324C193.105 290.916 197.299 290.672 201.81 290.647V306.909H189.309Z" fill="white"/>
<path d="M100.682 303.056C100.76 303.449 100.798 303.912 100.798 304.448C100.798 308.192 99.189 310.064 95.972 310.064C93.645 310.064 92.484 309.083 92.484 307.122C92.484 305.803 93.18 304.842 94.577 304.235C97.096 303.094 98.453 301.239 98.647 298.672L99.693 298.619C100.119 300.045 100.39 301.097 100.507 301.773H137.372C139.463 299.849 140.783 298.884 141.324 298.884C141.945 298.884 143.729 300.097 146.677 302.521C146.752 302.558 146.811 302.593 146.848 302.63C147.043 302.806 147.14 303.057 147.14 303.377C147.14 303.877 146.889 304.162 146.383 304.234C145.144 304.34 144.465 304.447 144.351 304.553C142.567 306.444 140.647 308.065 138.594 309.42L137.605 308.938C137.721 307.977 137.798 306.998 137.837 305.997C137.837 305.711 137.837 305.392 137.837 305.034C137.837 304.286 137.816 303.626 137.779 303.055H100.682V303.056ZM136.267 326.055C138.981 322.917 140.491 321.349 140.803 321.349C141.229 321.349 142.391 322.166 144.291 323.809C146.19 325.414 147.14 326.376 147.14 326.696C147.14 327.088 147.005 327.286 146.734 327.286H104.695C100.197 327.286 96.921 327.411 94.867 327.66L93.646 325.466C96.127 325.862 100.101 326.056 105.566 326.056H115.8V321.081H109.287C104.792 321.081 101.515 321.223 99.462 321.509L98.241 319.317C100.721 319.674 104.695 319.853 110.16 319.853H115.8V316.054C112.273 316.625 108.474 316.983 104.404 317.124C104.288 317.124 104.112 317.481 103.881 318.193C103.725 318.55 103.491 318.728 103.182 318.728C102.716 318.728 101.903 316.143 100.741 310.972C103.491 311.471 106.304 311.793 109.172 311.935C109.91 310.937 110.432 309.581 110.74 307.87C106.98 307.87 104.384 307.978 102.951 308.192L101.903 306.107C104.228 306.426 107.329 306.587 111.206 306.587H126.964C129.365 304.341 130.687 303.217 130.919 303.217C131.345 303.217 132.412 303.805 134.116 304.982C135.821 306.194 136.675 306.944 136.675 307.228C136.675 307.622 136.48 307.818 136.093 307.818H119.755C118.476 308.781 116.827 309.725 114.811 310.651C112.796 311.543 111.613 311.988 111.263 311.988C111.768 312.096 114.385 312.149 119.115 312.149C122.952 312.149 127.429 312.006 132.546 311.72C130.995 310.545 129.715 309.743 128.709 309.315L128.999 308.78C129.038 308.78 129.097 308.78 129.174 308.78C136.694 308.78 140.455 310.421 140.455 313.701C140.455 315.733 139.505 316.747 137.605 316.747C136.752 316.747 135.996 316.215 135.335 315.145C134.405 313.504 133.767 312.684 133.418 312.684C130.472 313.576 127.195 314.413 123.591 315.197V319.743H129.057C131.654 316.891 133.107 315.466 133.418 315.466C133.805 315.466 134.909 316.197 136.731 317.658C138.553 319.12 139.465 320.012 139.465 320.334C139.465 320.726 139.328 320.921 139.057 320.921H123.474V325.841L136.267 326.055ZM109.927 290.113C105.429 290.113 102.154 290.238 100.099 290.489L98.937 288.296C101.378 288.65 105.333 288.829 110.797 288.829H115.682V285.139H105.682C101.225 285.139 97.947 285.266 95.855 285.515L94.692 283.323C97.133 283.679 101.107 283.857 106.61 283.857H115.681C115.681 283.786 115.681 283.662 115.681 283.483C115.681 282.128 115.584 280.684 115.392 279.151C122.018 279.722 125.333 280.327 125.333 280.968C125.333 281.254 125.14 281.468 124.752 281.611C123.785 281.932 123.298 282.183 123.298 282.358V283.857H135.333C137.97 281.076 139.404 279.686 139.639 279.686C139.988 279.686 141.092 280.435 142.952 281.932C144.814 283.429 145.744 284.285 145.744 284.498C145.744 284.927 145.55 285.139 145.162 285.139H123.298V288.829H131.207C133.804 286.441 135.198 285.246 135.394 285.246C135.702 285.246 136.789 285.905 138.65 287.226C140.47 288.509 141.382 289.276 141.382 289.524C141.382 289.917 141.168 290.113 140.74 290.113H109.927V290.113ZM138.244 295.623C138.244 296.408 138.264 297.246 138.302 298.138V299.155C138.302 299.973 136.518 300.383 132.951 300.383C131.556 300.383 130.86 300.099 130.86 299.528V298.727H109.171V299.528C109.171 300.242 107.523 300.599 104.229 300.599C102.485 300.599 101.613 300.242 101.613 299.528C101.649 298.46 101.67 297.033 101.67 295.251C101.67 294.109 101.574 292.667 101.379 290.918C103.433 291.24 106.088 291.847 109.346 292.737H130.335C132.312 291.167 133.493 290.383 133.883 290.383C134.27 290.383 135.355 290.848 137.14 291.775C138.921 292.668 139.813 293.273 139.813 293.592C139.813 293.915 139.618 294.2 139.23 294.447C138.533 294.877 138.185 295.109 138.185 295.141L138.244 295.623ZM130.86 293.963H109.171V297.44H130.86V293.963Z" fill="white"/>
<path d="M236.55 288.829C231.9 288.829 228.74 288.938 227.075 289.15L225.968 286.85C228.76 287.206 232.926 287.385 238.469 287.385H268.821C271.031 284.854 272.487 283.177 273.18 282.357C273.297 282.216 273.492 282.144 273.764 282.144C274.114 282.144 275.371 283.053 277.544 284.872C279.677 286.691 280.739 287.742 280.739 288.028C280.739 288.527 280.508 288.777 280.042 288.777L236.55 288.829ZM275.217 314.075C275.217 317.427 272.521 319.619 267.133 320.654L267.079 320.707C266.57 320.78 266.204 320.813 265.974 320.813C265.315 320.813 264.966 320.529 264.924 319.959C264.732 317.568 264.227 316.091 263.415 315.521C262.636 314.986 261.515 314.521 260.042 314.128L260.217 313.059C261.728 313.164 263.375 313.219 265.158 313.219C265.47 313.219 265.797 313.219 266.145 313.219C266.96 313.219 267.369 312.846 267.369 312.096V299.742H257.659V316.429C257.659 318.926 257.694 322.509 257.773 327.178C257.773 327.858 256.319 328.305 253.414 328.517H253.354C252.423 328.589 251.745 328.624 251.318 328.624C249.845 328.624 249.109 328.286 249.109 327.608C249.189 322.186 249.226 318.106 249.226 315.359V299.742H240.155V312.633C240.155 313.523 240.195 316.304 240.27 320.976C240.27 321.904 238.256 322.366 234.224 322.366C232.789 322.366 232.072 322.028 232.072 321.351C232.15 315.93 232.189 312.775 232.189 311.885V305.412C232.189 300.421 232.092 297.193 231.899 295.731C233.759 296.194 235.27 296.622 236.434 297.015C237.868 297.513 239.263 297.978 240.618 298.404H249.226C249.226 298.3 249.226 298.12 249.226 297.87C249.226 294.446 249.071 291.773 248.761 289.847C251.861 290.312 254.476 290.722 256.61 291.077C258.78 291.399 259.869 291.756 259.869 292.147C259.869 292.467 259.615 292.736 259.108 292.949C258.142 293.449 257.659 293.79 257.659 293.966V298.353H266.552C269.229 296.105 270.74 294.983 271.089 294.983C271.437 294.983 272.621 295.643 274.634 296.962C276.611 298.282 277.602 299.102 277.602 299.421C277.602 299.673 277.449 299.903 277.137 300.119C275.856 300.973 275.217 301.527 275.217 301.775V314.075V314.075ZM244.458 279.096L244.749 278.242C245.407 278.204 246.221 278.187 247.189 278.187C254.516 278.187 258.18 279.969 258.18 283.534C258.18 286.067 256.802 287.333 254.051 287.333C252.192 287.333 250.948 286.549 250.331 284.98C248.976 281.878 247.014 279.917 244.458 279.096Z" fill="white"/>
<path d="M320.591 300.436H314.31V316.162C316.945 315.733 319.681 315.109 322.506 314.288L322.86 315.252C315.106 320.494 306.831 324.129 298.033 326.162C297.952 326.198 297.86 326.678 297.743 327.607C297.664 328.14 297.431 328.41 297.042 328.41C296.425 328.41 295.009 325.198 292.8 318.78C294.43 318.78 295.807 318.711 296.929 318.567V303.805C296.929 299.634 296.735 296.283 296.346 293.749C302.161 294.57 305.067 295.213 305.067 295.677C305.067 295.96 304.875 296.175 304.489 296.317C303.753 296.639 303.384 296.888 303.384 297.066V317.873C305.047 317.658 306.328 317.481 307.219 317.337V285.245H303.439C302.355 285.245 301.212 285.266 300.008 285.3C299.742 285.3 299.546 285.3 299.432 285.3C297.493 285.338 296.078 285.425 295.182 285.569L294.023 283.323C296.661 283.679 300.265 283.857 304.837 283.857H311.523C314.161 280.504 315.689 278.83 316.117 278.83C316.621 278.83 317.845 279.702 319.779 281.45C321.715 283.232 322.689 284.304 322.689 284.659C322.689 285.052 322.508 285.246 322.164 285.246H314.312V299.1C315.749 295.534 316.621 293.75 316.932 293.75C317.431 293.75 318.792 295.552 321 299.154C323.054 292.555 324.083 285.602 324.083 278.294C327.106 278.865 329.604 279.364 331.583 279.793C333.52 280.183 334.489 280.576 334.489 280.968C334.489 281.289 334.237 281.521 333.734 281.662C332.839 281.985 332.393 282.181 332.393 282.251C331.621 285.425 330.67 288.348 329.546 291.023H335.593C337.957 287.78 339.334 286.155 339.721 286.155C340.149 286.155 341.387 287.01 343.442 288.724C345.538 290.397 346.584 291.414 346.584 291.772C346.584 292.128 346.389 292.305 346.004 292.305H342.862C342.513 296.193 341.582 300.275 340.073 304.553C338.562 308.868 336.891 312.149 335.071 314.394C335.071 314.681 336.349 315.572 338.91 317.069C341.431 318.567 344.279 319.833 347.452 320.867L347.339 321.615C345.828 321.759 344.723 323.488 344.026 326.803C343.753 327.947 343.346 328.516 342.804 328.516C341.91 328.516 340.011 327.427 337.106 325.253C334.2 323.041 332.046 320.939 330.651 318.941C325.653 323.362 319.313 326.517 311.641 328.41L311.061 327.607C318.383 324.29 324.025 319.833 327.976 314.234C326.271 310.92 325.244 306.033 324.894 299.58C324.894 299.725 324.198 300.614 322.806 302.254C321.409 303.93 320.265 305.125 319.371 305.838L318.497 305.25C319.235 303.858 319.932 302.254 320.591 300.436ZM335.008 292.361H329.021C327.974 294.535 327.025 296.354 326.172 297.815C326.172 297.887 326.639 299.492 327.567 302.63C328.5 305.766 329.546 308.173 330.709 309.848C333.303 305.035 334.744 299.207 335.008 292.361Z" fill="white"/>
<path d="M363.871 291.8C363.871 288.198 363.698 285.362 363.35 283.294C366.491 283.972 369.397 284.774 372.071 285.701H386.609C386.181 285.452 385.812 284.986 385.502 284.309C384.612 281.815 382.928 280.138 380.443 279.282L380.735 278.48C381.975 278.336 383.352 278.267 384.863 278.267C390.642 278.267 393.527 279.746 393.527 282.705C393.527 284.059 392.927 285.059 391.725 285.7H401.899C404.382 282.455 405.914 280.832 406.494 280.832C406.881 280.832 408.083 281.672 410.098 283.348C412.155 285.022 413.179 286.038 413.179 286.395C413.179 286.825 412.948 287.038 412.484 287.038H371.606V296.987C371.606 306.719 370.598 313.71 368.583 317.951C366.525 322.229 363.816 325.564 360.443 327.953L359.626 327.472C362.46 321.624 363.871 311.587 363.871 297.362V291.8V291.8ZM379.282 288.323C385.797 289.642 389.05 290.604 389.05 291.21C389.05 291.497 388.82 291.691 388.354 291.801C387.152 292.085 386.531 292.281 386.493 292.387C386.452 292.387 386.318 292.744 386.087 293.457C385.079 296.417 384.012 298.842 382.888 300.73C384.324 301.229 385.039 301.641 385.039 301.96C385.039 302.246 384.885 302.46 384.574 302.604C383.76 302.96 383.353 303.297 383.353 303.62V318.486C383.353 318.951 383.45 321.839 383.642 327.153C383.642 328.079 381.648 328.543 377.654 328.543C376.491 328.543 375.912 328.187 375.912 327.473C376.062 322.801 376.141 319.54 376.141 317.685V308.753C374.63 310.145 373.12 311.32 371.607 312.284L371.025 311.801C372.846 309.129 374.571 305.438 376.201 300.731C377.827 296.024 378.854 291.888 379.282 288.323ZM393.934 300.088C390.288 300.088 387.752 300.195 386.317 300.409L385.212 298.323C387.576 298.643 390.677 298.802 394.517 298.802H398.877V296.717C398.877 293.759 398.683 291.139 398.294 288.856C404.886 289.604 408.179 290.211 408.179 290.674C408.179 290.996 407.986 291.227 407.6 291.368C406.629 291.833 406.147 292.189 406.147 292.44V298.801H406.495C407.971 295.024 408.956 293.133 409.461 293.133C409.81 293.133 410.682 294.113 412.078 296.074C413.472 298.001 414.168 299.141 414.168 299.498C414.168 299.818 414.034 299.979 413.765 299.979H406.148V321.694C406.148 325.153 403.783 327.344 399.05 328.272H398.992C398.567 328.379 398.197 328.433 397.891 328.433C397.269 328.433 396.899 328.165 396.783 327.629C396.512 325.741 396.086 324.473 395.506 323.833C394.885 323.154 393.2 322.439 390.446 321.693L390.679 320.676C392.696 320.821 394.653 320.89 396.551 320.89C396.863 320.89 397.151 320.89 397.425 320.89C398.394 320.89 398.877 320.48 398.877 319.659V300.085H393.934V300.088ZM386.258 304.207L386.84 303.62C389.437 304.048 391.683 304.974 393.584 306.4C395.483 307.825 396.432 309.413 396.432 311.16C396.432 313.658 395.021 314.903 392.19 314.903C390.133 314.903 389.109 313.727 389.109 311.375C389.067 308.166 388.122 305.777 386.258 304.207Z" fill="white"/>
</g>
<defs>
<clipPath id="clip0_1_2">
<rect width="500" height="362.31" fill="white"/>
</clipPath>
</defs>
</svg>
